<?xml version="1.0" standalone="no"?>
<!DOCTYPE svg PUBLIC "-//W3C//DTD SVG 1.1//EN" "http://www.w3.org/Graphics/SVG/1.1/DTD/svg11.dtd" >
<svg>
<metadata>
Created by FontForge 20090914 at Sun Jan 25 09:50:04 2015
 By www-data
Johan Holmdahl/www.free-typewriter-fonts.com
</metadata>
<defs>
<font id="Splendid66-Bold" horiz-adv-x="501" >
  <font-face 
    font-family="Splendid 66"
    font-weight="700"
    font-stretch="normal"
    units-per-em="1000"
    panose-1="0 0 0 0 0 0 0 0 0 0"
    ascent="800"
    descent="-200"
    x-height="305"
    cap-height="474"
    bbox="-13 -188 498 770"
    underline-thickness="50"
    underline-position="-75"
    unicode-range="U+0020-U+E007"
  />
<missing-glyph horiz-adv-x="500" 
d="M63 0v757h375v-757h-375zM125 63h250v632h-250v-632z" />
    <glyph glyph-name=".notdef" horiz-adv-x="500" 
d="M63 0v757h375v-757h-375zM125 63h250v632h-250v-632z" />
    <glyph glyph-name="space" unicode=" " horiz-adv-x="500" 
 />
    <glyph glyph-name="exclam" unicode="!" 
d="M324 355l-6 -6v-42l-8 -4v-84l-8 -4v-38c-13.333 -12.667 -25.666 -19 -36.999 -19h-27c-12.667 8 -21.334 16.333 -26.001 25v40c-6 8 -8.66699 26.667 -8 56c-6 8.66699 -8.66699 44.334 -8 107.001c-3.33301 4 -6.33301 9 -9 15h1l-6 11v20
c3.33301 8 11.666 18.333 24.999 31c6 7.33301 18.333 11 37 11h30c14 0 27 -4.66699 39 -14c0.666992 -1.33301 4 -6.33301 10 -15c0.666992 -6.66699 3.33398 -11.334 8.00098 -14.001c-1.33301 -4.66699 -4.33301 -17 -9 -37l-2 -3v-3l4 -6v-27zM252 1
l-3.99902 0.000976562c-6 2 -13.333 3.33301 -22 4c-2 4 -10.667 8.66699 -26 14c-2 5.33301 -5 10.666 -9 15.999c-1.33301 4 -4.33301 7.66699 -9 11v20l6 6v32c28 20.667 48 31 60 31h23c11.333 0 22.5 -3.83301 33.5 -11.5s18.167 -16.5 21.5 -26.5l6 -6v-51
c-18.667 -18 -30.334 -28.333 -35.001 -31c-10 -5.33301 -25 -8 -45 -8z" />
    <glyph glyph-name="quotedbl" unicode="&#x22;" 
d="M387 602l2 -2v-12c-2 -2.66699 -3.66699 -4.66699 -5 -6l11 -13l-12 -8v-71c-6 -6 -12.333 -11 -19 -15h-16c-6 0 -12.667 3.33301 -20 10l-4 28c-2.66699 4.66699 -4.66699 9.33398 -6 14.001l3 10l3 3v17c-4.66699 7.33301 -6.66699 27 -6 59l-9 4v58l-6 5v56
c6 7.33301 17.333 17.666 34 30.999h26l30 -16c2.66699 -4 6.66699 -9.66699 12 -17v-74l-6 -5l-4 -16l-4 -5v-34zM191 527v-2.99805c3.33301 -4.66699 5 -11 5 -19s-2.83301 -15.667 -8.5 -23s-12.5 -11 -20.5 -11h-14c-8.66699 0 -17.667 6.66699 -27 20v25l4 4v25
c-4.66699 7.33301 -6.66699 32.333 -6 75c-6 8 -8.66699 24.333 -8 49c-4.66699 7.33301 -6.66699 30.666 -6 69.999c4.66699 4 7.66699 9 9 15c4 1.33301 7 6.66602 9 15.999h57c13.333 -6.66699 23 -20.667 29 -42l6 -6v-17l-6 -10l-1 -35l-7 -4v-48l-9 -4v-77h-6z" />
    <glyph glyph-name="percent" unicode="%" 
d="M183 526l7 0.000976562l-1 1l24 -8c26 -26 39.667 -48 41 -66c2.66699 -4.66699 4.66699 -9.33398 6 -14.001l-3 -12l-4 -3v-34l-8 -3c-1.33301 -3.33301 -4 -8 -8 -14c-2 -8 -5.33301 -14.333 -10 -19c0 -6 -2 -10.667 -6 -14c-2 -8.66699 -9.5 -17.334 -22.5 -26.001
s-19.833 -16.667 -20.5 -24l-41 -20h-5v11c-2.66699 -6 -3.33398 -9.66699 -2.00098 -11c-21.333 2.66699 -37 5.66699 -47 9c-18 6.66699 -29 17 -33 31c-11.333 8.66699 -18.333 23.334 -21 44.001v50l4 5l4 23c8 11.333 17 21.666 27 30.999
c2.66699 4.66699 4.33398 11.334 5.00098 20.001c4.66699 3.33301 7.66699 8 9 14l57 32h48v-3zM202 441.001l2 -1l-6 9c-1.33301 5.33301 -8.33301 13 -21 23l-13 3l-21 -3c-20 -14.667 -32.167 -24.5 -36.5 -29.5s-10.833 -18.167 -19.5 -39.5l-3 -3v-38l-6 -2
c2.66699 -4.66699 4.66699 -11 6 -19l11 -11c28.667 -4.66699 45 -7 49 -7h2c3.33301 2.66699 7.33301 8.66699 12 18l13 13c11.333 4.66699 18 13 20 25c4 2 6.33301 6.33301 7 13l4 4v45zM298 412.001l10.002 10.001l9 3v32c6.66699 1.33301 10 3.66602 10 6.99902
c4 5.33301 11.667 12 23 20c0 4.66699 0.333008 12.667 1 24c2.66699 1.33301 5.66699 7.66602 9 18.999l19 18c2 4.66699 3.33301 11 4 19l6 8c1.33301 3.33301 4 8 8 14c4 18.667 13.333 28 28 28c4.66699 0 11 -1.33301 19 -4l9 -9v-39
c-5.33301 -4 -8.66602 -8.33301 -9.99902 -13l-5 -4c-0.666992 -3.33301 -1.33398 -7.33301 -2.00098 -12c-4.66699 -3.33301 -7.66699 -7.33301 -9 -12c-4 -6.66699 -11 -16.334 -21 -29.001c-2.66699 -8 -7.66699 -15.333 -15 -22c-2 -8.66699 -5 -14.334 -9 -17.001
c-0.666992 -4 -3.33398 -9.33301 -8.00098 -16c-0.666992 -4.66699 -2.83398 -10 -6.50098 -16s-9.5 -13 -17.5 -21c-2 -4 -4.33301 -7.66699 -7 -11c-3.33301 -7.33301 -7.66602 -18 -12.999 -32c-14 -16 -22 -30.333 -24 -43c-4 -2 -6.33301 -6.66699 -7 -14
c-4.66699 -7.33301 -12 -17 -22 -29l-2 -10c-4 -5.33301 -8.66699 -11 -14 -17c-2 -4.66699 -4.66699 -8.66699 -8 -12c-2.66699 -9.33301 -9.83398 -21.166 -21.501 -35.499s-19.167 -28.5 -22.5 -42.5l-11 -10l-5 -20c-4 -1.33301 -6.66699 -5 -8 -11
c-2 -1.33301 -7.66699 -11.666 -17 -30.999s-14 -30 -14 -32c-4.66699 -3.33301 -7.66699 -7.33301 -9 -12l-5 -5c-0.666992 -3.33301 -1.33398 -7.33301 -2.00098 -12c-4.66699 -4 -7.33398 -7.66699 -8.00098 -11l-5 -5l-6 -13l-3 -3c-6 -16.667 -18.333 -25 -37 -25
c-6 0 -14.667 6.66699 -26 20v22c4.66699 4 11.667 10.667 21 20c0.666992 4 1.66699 11 3 21c4.66699 3.33301 7.66699 7.33301 9 12l5 5c0.666992 3.33301 1.33398 7.33301 2.00098 12l14 11c0.666992 4 3.33398 9.66699 8.00098 17c2 4.66699 4.33301 9 7 13l8 12
c2.66699 4 5.33398 7.66699 8.00098 11c2 6.66699 10.333 16 25 28l3 13c3.33301 4.66699 7.33301 9.33398 12 14.001l4 18l6 8l3 12c5.33301 4.66699 11.333 13.334 18 26.001c2.66699 1.33301 4.66699 5 6 11c4 2 7 6.33301 9 13l11 5l3 19l13 17
c2.66699 11.333 8.66699 21.333 18 30c1.33301 4 3.66602 7.66699 6.99902 11c1.33301 5.33301 6.33301 16.666 15 33.999v0l8 16zM255.002 146.002l-1.00098 0.999023v15c1.33301 2.66699 2.83301 6.16699 4.5 10.5s4.5 9.83301 8.5 16.5
c0.666992 10 2.33398 19.333 5.00098 28l4 4c10.667 22 26.667 39.833 48 53.5s43.666 20.5 66.999 20.5c10 0 26.667 -6.66699 50 -20c1.33301 -1.33301 7.33301 -5.66602 18 -12.999c1.33301 -6 4 -10 8 -12c1.33301 -4.66699 2.33301 -9 3 -13l7 -6v-33l-6 -10l-1 -54
l-8 -6c-0.666992 -2 -1 -5 -1 -9c-5.33301 -4 -8.66602 -8.33301 -9.99902 -13c-4 -3.33301 -6.66699 -7.33301 -8 -12c-13.333 -13.333 -26.5 -25.833 -39.5 -37.5s-31.167 -17.5 -54.5 -17.5c-43.333 0 -70.333 14.333 -81 43c-3.33301 3.33301 -6 9 -8 17l-5 5v42z
M428.001 202.001v2.00098c-3.33301 4 -6 9.33301 -8 16c-2.66699 2.66699 -5.33398 8 -8.00098 16l-7 6h-18c-14.667 0 -32.334 -10.333 -53.001 -31c-3.33301 -9.33301 -8.66602 -17.333 -15.999 -24c-1.33301 -4.66699 -2.33301 -10.667 -3 -18
c-6 -2.66699 -9 -11.334 -9 -26.001l2 -8l-2 -6c2.66699 -11.333 7.33398 -19.833 14.001 -25.5l21 -17.5c20 8 38.667 20.667 56 38c2 4 4.66699 8 8 12c1.33301 4.66699 3.66602 8.66699 6.99902 12c0.666992 5.33301 3.33398 13 8.00098 23
c0.666992 11.333 2 20.333 4 27z" />
    <glyph glyph-name="ampersand" unicode="&#x26;" 
d="M133 368l18 -17l2 -11l6 -5c0.666992 -5.33301 1.66699 -10.666 3 -15.999l4 -4c1.33301 -4 6.33301 -10.333 15 -19l60 33l4 11c5.33301 6.66699 14 16.334 26 29.001h-11c0 12.667 -1 24 -3 34l-21 20l-2 5c-9.33301 6.66699 -17.333 10 -24 10
c-12.667 0 -29 -6 -49 -18c-2 -4 -4.33301 -7.33301 -7 -10c-1.33301 -4.66699 -2.33301 -11.334 -3 -20.001c-4.66699 -2.66699 -7.66699 -8.33398 -9 -17.001zM82 321l0.000976562 24h-8v29h22v3l10 -1v49c16 24 35.333 42 58 54h71c16.667 0 37 -12 61 -36l2 -10l7 -8
v-32c-5.33301 -2 -8.33301 -6.66699 -9 -14l10 2l-2 -40c-2 -2 -5 -7 -9 -15l-39 -38c-12.667 -12.667 -28.334 -23.667 -47.001 -33c6.66699 -6.66699 13.5 -14 20.5 -22s11.5 -15.667 13.5 -23c2.66699 -3.33301 5 -7 7 -11l11 -7c10 -20 26.333 -39.667 49 -59l4 5v4
c0 4.66699 0.666992 10.667 2 18l8 11v1v20l13 5l4 16l32 16c8.66699 0 16.667 -0.666992 24 -2v26h29v-29h-11c11.333 -2 20.333 -3 27 -3l16 -16v-7c0 -6 -7.33301 -19.667 -22 -41h-53l-11 -16c-2 -8 -5 -13.333 -9 -16c-0.666992 -4 -3 -9 -7 -15v-11v-11
c10 -12 41.333 -28.667 94 -50v-35c-10 -6.66699 -21.667 -10 -35 -10c-25.333 0 -47 5.33301 -65 16c-0.666992 1.33301 -6.66699 6 -18 14c-0.666992 4.66699 -3.5 9.83398 -8.5 15.501s-9.83301 8.5 -14.5 8.5l-11 -6c-5.33301 -5.33301 -13.666 -13 -24.999 -23
c-5.33301 -0.666992 -13.833 -3.5 -25.5 -8.5s-21.167 -7.5 -28.5 -7.5h-60c-8.66699 0 -19.334 3.33301 -32.001 10c-2.66699 3.33301 -5 7 -7 11c-5.33301 4.66699 -12.333 10 -21 16c-1.33301 4.66699 -4 8.66699 -8 12c-1.33301 6 -7 11.333 -17 16
c-0.666992 11.333 -1.66699 21 -3 29l-5 6l-3 15l-8 3c-4.66699 4.66699 -6.66699 10 -6 16l3 8l7 4l-7 7l26 26c3.33301 7.33301 7.33301 18.666 12 33.999c6 4.66699 11 8 15 10l2 10c8 6 17.333 13.667 28 23v8v9c-8.66699 8.66699 -14 16.667 -16 24l-13 11l-1 11h-23z
M217.001 55c-0.666992 0 5.99609 2.00098 19.9961 6.00098c4.66699 4 12.334 9 23.001 15c2.66699 3.33301 7.33398 8.33301 14.001 15h3c-9.33301 3.33301 -15.666 8.66602 -18.999 15.999c-10 6 -18.333 15 -25 27l-20.5 28.5c-9 12.333 -18.5 27.833 -28.5 46.5l-15 13
c-10.667 -6 -17 -11.667 -19 -17c-4.66699 -4 -9.66699 -10.333 -15 -19c-6 -10.667 -10 -17.334 -12 -20.001v-55c2.66699 -4.66699 5 -11 7 -19c2.66699 -2.66699 7.33398 -6 14.001 -10c0 -7.33301 5.66699 -13.666 17 -18.999s21.333 -8 30 -8h26z" />
    <glyph glyph-name="parenleft" unicode="(" 
d="M216 291l3.00293 -17.001l8 -6v-31c4.66699 -9.33301 7.66699 -19 9 -29c4 -4 6.66699 -12 8 -24c3.33301 -5.33301 5.66602 -10.666 6.99902 -15.999c3.33301 -2.66699 6 -8 8 -16c3.33301 -2.66699 6 -8 8 -16l4 -3c2 -4.66699 8 -13.334 18 -26.001
c0.666992 -3.33301 11 -15 31 -35c1.33301 -4.66699 3.66602 -8.66699 6.99902 -12c12 -2.66699 20.667 -9 26 -19l2 -16l-2 -19c-8.66699 -6.66699 -14.667 -10 -18 -10h-26c-22.667 15.333 -36.667 27.333 -42 36c-6.66699 4.66699 -14.334 11 -23.001 19l-2 11l-6 5
c-0.666992 4 -3.33398 8 -8.00098 12c-0.666992 4.66699 -2.66699 8.33398 -6 11.001c-2 5.33301 -5 9.66602 -9 12.999l-2 6c-0.666992 0.666992 -6.66699 12.334 -18 35.001l2 -2c-3.33301 6 -6.33301 12.667 -9 20l-6 8l-3 21l-7 1v39c-4.66699 8 -6.66699 56.333 -6 145
l4 5l4 28l6 5v35c6 2 9.66699 6 11 12c4 1.33301 6.66699 6.33301 8 15c3.33301 2 5.66602 8.66699 6.99902 20c4.66699 2.66699 7.66699 6 9 10l5 5c0.666992 3.33301 1.33398 7 2.00098 11l6 5c0.666992 3.33301 1.33398 7 2.00098 11
c9.33301 13.333 24.666 32.333 45.999 57c3.33301 10.667 12 19.334 26 26.001c11.333 6 23.333 9 36 9l18 -9v-45c-12.667 -6 -19.667 -9.66699 -21 -11c-7.33301 -4.66699 -11.666 -10.667 -12.999 -18l-15 -5c-4 -7.33301 -11.333 -16.333 -22 -27
c-4 -7.33301 -9.33301 -16 -16 -26c-2 -4.66699 -4.33301 -8.83398 -7 -12.501l-8 -10.5c-0.666992 -6.66699 -2.33398 -13.667 -5.00098 -21l-3 -3c-2 -5.33301 -4.16699 -10.833 -6.5 -16.5s-4.16602 -15.5 -5.49902 -29.5l-5 -4v-33l-8 -4v-63z" />
    <glyph glyph-name="parenright" unicode=")" 
d="M330 263l-1.00488 -43.001l-8 -3c0 -5.33301 -0.666992 -11.333 -2 -18l-6 -9v-4c0 -4.66699 -0.666992 -10.667 -2 -18l-13 -22c-1.33301 -4 -2.33301 -9.66699 -3 -17l-7 -9l-2 -5l-5 -5c-0.666992 -3.33301 -1.33398 -7.33301 -2.00098 -12
c-4.66699 -3.33301 -8 -7.66602 -10 -12.999c-3.33301 -2.66699 -5.33301 -6 -6 -10c-10.667 -14.667 -28.667 -34.334 -54 -59.001c-6 -16.667 -15.667 -25 -29 -25h-24c-6 2 -12 5.33301 -18 10v42c37.333 24.667 56 43.334 56 56.001
c4.66699 4.66699 10.834 13.5 18.501 26.5s14.167 21.5 19.5 25.5c0.666992 4.66699 3.33398 10.334 8.00098 17.001c2 4 4.33301 7.66699 7 11c0.666992 8 2.33398 16.333 5.00098 25l3 3c0.666992 6.66699 2.33398 14 5.00098 22l5 3v61l6 4v42
c-4.66699 7.33301 -6.66699 26 -6 56c-5.33301 9.33301 -8.66602 17.666 -9.99902 24.999c-4 6 -6.66699 11.333 -8 16c-8 10.667 -13.333 26 -16 46c-8 10 -20 24 -36 42c-1.33301 4.66699 -6.66602 11.667 -15.999 21l-1 4c-9.33301 5.33301 -22.333 14.333 -39 27
c-2 10.667 -3 17 -3 19s1 8.33301 3 19c9.33301 7.33301 19 11 29 11c14 0 28.333 -7.66699 43 -23l34 -36l3 -10c4 -2 9 -5.33301 15 -10l2 -12l6 -5l2 -11l5 -4c1.33301 -4.66699 4.33301 -8.66699 9 -12l2 -12l5 -5c1.33301 -4 4.33301 -7.66699 9 -11
c1.33301 -12.667 4 -21.667 8 -27c0.666992 -4 1.66699 -7.66699 3 -11l-8 5c6 -5.33301 11 -13 15 -23l9 -5v-56c3.33301 -8 5.33301 -37.333 6 -88z" />
    <glyph glyph-name="plus" unicode="+" 
d="M294 264c14.667 0 38.002 -0.666992 70.002 -2c30 -0.666992 53.333 -1 70 -1v-49l-18 -8c-34.667 -2.66699 -56.667 -4 -66 -4c-3.33301 0 -8.5 0.666992 -15.5 2s-12.167 2 -15.5 2c-6.66699 0 -15.334 -1 -26.001 -3v-23l-3 1l7 -11v-21l-3 -4l3 -3v-61
c-4 -6.66699 -9.33301 -12 -16 -16l-15 -2c-14.667 0 -25.334 6.33301 -32.001 19v119c-11.333 3.33301 -22.333 5 -33 5c-2.66699 0 -7 -0.666992 -13 -2s-10.333 -2 -13 -2c-3.33301 0 -23 1.33301 -59 4l-17 8v53h135v125c5.33301 6 11 11 17 15l10 2
c14.667 0 26.667 -9 36 -27v-51l-5 -9l1 -14l4 -6v-23l5 -5z" />
    <glyph glyph-name="ch44" unicode="," 
d="M324 2l-7.00195 -33.999l-4 -5l-5 -27c-3.33301 -2 -5.66602 -8.33301 -6.99902 -19c-4.66699 -3.33301 -7.66699 -7.33301 -9 -12c-4 -3.33301 -6.66699 -7.33301 -8 -12c-4 -3.33301 -6.66699 -7.33301 -8 -12c-8 -6.66699 -13.667 -10 -17 -10h-25
c-10.667 4.66699 -19.334 11.667 -26.001 21v43c6.66699 4 11.334 7.33301 14.001 10c6 4 9.33301 8.33301 10 13c3.33301 5.33301 7.66602 10.666 12.999 15.999c0.666992 6 2.33398 12 5.00098 18l3 3l1 9h-6h-28c-2 4 -10.333 8.66699 -25 14
c-4.66699 8.66699 -11 16.667 -19 24v68l15 16c16.667 16 38.667 24 66 24c4.66699 0 11.334 -1.66699 20.001 -5l7 -6l11 -3c10 -8 20.333 -18 31 -30v-29l-4 -4l4 -4v-66z" />
    <glyph glyph-name="period" unicode="." horiz-adv-x="504" 
d="M340 62c-0.666992 -3.33301 -1.66699 -7.66699 -3 -13c-4 -2 -6.66699 -5.33301 -8 -10c-22.667 -23.333 -47.334 -35 -74.001 -35c-24.667 0 -51.667 12.667 -81 38l-4 12l-5 6v68c4.66699 4 10 11.333 16 22c4.66699 2 7.66699 6.33301 9 13l40 20h9
c22.667 0 40.334 -2.33301 53.001 -7c10 -4 25 -12.667 45 -26l4 -13l6 -6v-63z" />
    <glyph glyph-name="slash" unicode="/" 
d="M386 575l-1.99609 -1.00488l7 12.5c2 3.66699 5 8.83398 9 15.501c3.33301 4.66699 8 12 14 22l14 8h28l16 -16v-21l-6 -7c-5.33301 -9.33301 -11.666 -24.333 -18.999 -45c-4.66699 -6.66699 -12 -16 -22 -28c-0.666992 -3.33301 -1.33398 -7.33301 -2.00098 -12
c-4.66699 -3.33301 -7.66699 -7.66602 -9 -12.999c-4 -2.66699 -6.33301 -5.66699 -7 -9l-6 -7c-1.33301 -3.33301 -4 -8 -8 -14c-0.666992 -4 -3.33398 -9.66699 -8.00098 -17c-1.33301 -4 -4 -7.66699 -8 -11c-1.33301 -5.33301 -3.66602 -10.666 -6.99902 -15.999
c-2 -7.33301 -5.33301 -13.333 -10 -18c0 -8 -10 -23.667 -30 -47c-6 -8.66699 -13 -22.334 -21 -41.001c-4 -3.33301 -6.66699 -7.33301 -8 -12l-4 -4c-1.33301 -4.66699 -2.33301 -10 -3 -16c-4.66699 -4.66699 -7.33398 -8.66699 -8.00098 -12l-6 -5
c-0.666992 -3.33301 -1.33398 -7.33301 -2.00098 -12c-4 -3.33301 -9.33301 -8.66602 -16 -15.999h2c-2.66699 -4.66699 -4.83398 -8.66699 -6.50098 -12s-4.83398 -8.33301 -9.50098 -15c-0.666992 -4 -3.33398 -9.66699 -8.00098 -17c-2 -4.66699 -4.33301 -9 -7 -13
s-5.66699 -7.66699 -9 -11c-1.33301 -7.33301 -4 -12.666 -8 -15.999c-3.33301 -10 -9 -18.333 -17 -25l-4 -14c-3.33301 -1.33301 -5.66602 -6.33301 -6.99902 -15c-4 -2.66699 -6.66699 -6.33398 -8 -11.001c-4 -3.33301 -6.66699 -7.66602 -8 -12.999
c-2.66699 -1.33301 -5 -3.66602 -7 -6.99902l8 -7c-4.66699 -3.33301 -10.334 -9 -17.001 -17l-5 -4c-0.666992 -3.33301 -1.33398 -7 -2.00098 -11l-6 -5c-0.666992 -3.33301 -1.33398 -7 -2.00098 -11l-14 -13c-1.33301 -7.33301 -3.66602 -12.333 -6.99902 -15
c-1.33301 -5.33301 -3 -11 -5 -17l-4 -4c-2 -4.66699 -7.66699 -13.334 -17 -26.001h-27c-8.66699 0 -17.667 7 -27 21v28c0.666992 0.666992 4.83398 7.66699 12.501 21s12.167 20.833 13.5 22.5s3.66602 8.16699 6.99902 19.5c4.66699 6 11.667 14 21 24
c0.666992 3.33301 1.66699 7.33301 3 12c4 3.33301 6.66699 7.33301 8 12l5 4c0.666992 4 3.33398 9 8.00098 15c0.666992 4 3.33398 9.66699 8.00098 17c1.33301 4 4 8 8 12c1.33301 4 4 8 8 12c6.66699 12.667 16.334 32.334 29.001 59.001c4.66699 6 11 14.667 19 26
c3.33301 9.33301 8.66602 17.333 15.999 24c1.33301 4 2.33301 9.66699 3 17c3.33301 5.33301 8 12.333 14 21c0.666992 2 1.33398 5.33301 2.00098 10c4.66699 4.66699 7.33398 9 8.00098 13c2 1.33301 7.33301 7 16 17l-2 -1c2.66699 5.33301 5.16699 9.66602 7.5 12.999
s5.16602 6.66602 8.49902 9.99902c0.666992 4.66699 3.33398 10.334 8.00098 17.001c2 4.66699 4.33301 9 7 13s5.66699 7.66699 9 11c1.33301 6 6.33301 15 15 27c1.33301 4.66699 3.66602 10 6.99902 16c0.666992 0.666992 3 7.33398 7 20.001
c3.33301 2 5.66602 6 6.99902 12c4 2 6.66699 6 8 12c4 2 6.66699 5.33301 8 10c4 3.33301 6.66699 7.33301 8 12l5 4c0.666992 3.33301 1.33398 7.33301 2.00098 12c4.66699 3.33301 8 7.66602 10 12.999c3.33301 2.66699 5.66602 6.33398 6.99902 11.001l5 4l2 8z" />
    <glyph glyph-name="zero" unicode="0" 
d="M359 414l31 -16.9971c1.33301 -5.33301 4.66602 -10 9.99902 -14v-9c-0.666992 -14 4 -25.333 14 -34c1.33301 -4.66699 5.33301 -8 12 -10v-35c3.33301 -8 5.33301 -55 6 -141l-6 -5l-4 -19c-3.33301 -1.33301 -5.66602 -6.33301 -6.99902 -15
c-2.66699 -6 -7.33398 -14 -14.001 -24c-0.666992 -2.66699 -1.66699 -6.33398 -3 -11.001c-4 -3.33301 -16.333 -17 -37 -41c-16.667 -18.667 -31 -29 -43 -31c-10 -10.667 -31.667 -16 -65 -16c-3.33301 0 -15.666 0.666992 -36.999 2l-5 5c-36 8 -66.333 24.333 -91 49
c-0.666992 4.66699 -2.66699 8.33398 -6 11.001c-2 5.33301 -4.66699 9.33301 -8 12c-2 5.33301 -5 9.66602 -9 12.999l-2 6c-3.33301 6 -8.33301 14.333 -15 25l-4 22l2 -1l-6 9l-4 20l-4 5v110l5 10c0.666992 8 2 18 4 30c4 3.33301 6.66699 8 8 14
c3.33301 1.33301 5.66602 3.66602 6.99902 6.99902h-18l23 23c1.33301 4 2.33301 9.66699 3 17c9.33301 14 25 34.333 47 61c8.66699 1.33301 23 8 43 20c16.667 11.333 37.334 17 62.001 17c13.333 0 35 -4.66699 65 -14c9.33301 -9.33301 19.333 -20 30 -32
c2.66699 -0.666992 13 -2.33398 31 -5.00098zM377 200.003c0 5.33301 0.99707 13.333 2.99707 24c3.33301 2 6 6 8 12l-5 34l2 -1l-6 8c-2 6.66699 -3.33301 15.334 -4 26.001c-3.33301 4 -6 9.33301 -8 16c-4 6.66699 -11 16 -21 28
c-1.33301 10 -6.66602 19.333 -15.999 28c-2 12.667 -24 27 -66 43h-8c-3.33301 0 -8.66602 -0.833008 -15.999 -2.5s-13.166 -2.83398 -17.499 -3.50098l-13.5 -2l-21 -14l-10 1c-7.33301 0 -11.666 -4.66699 -12.999 -14c-4.66699 -4 -7.33398 -8 -8.00098 -12l-6 -5
l-2 -7l-8 -10l3 1c-1.33301 -4 -4 -9 -8 -15c-0.666992 -6.66699 -3.33398 -16 -8.00098 -28c-1.33301 -10.667 -2.66602 -19.667 -3.99902 -27l-3 -5v-61c4.66699 -6 5.66699 -13.333 3 -22c1.33301 -7.33301 2.66602 -16.333 3.99902 -27c3.33301 -4 6 -12 8 -24l13 -12
c0.666992 -8.66699 1.66699 -15 3 -19l6 -6c-0.666992 -6.66699 4 -12 14 -16c2 -10 13.333 -19 34 -27c17.333 -6.66699 32.333 -10 45 -10c12 0 27.833 4.5 47.5 13.5s30.5 18.833 32.5 29.5c4 3.33301 6.33301 7 7 11l6 5c0.666992 3.33301 1.33398 7 2.00098 11l5 4
c2 8 6.66699 19.667 14 35l4 2v35z" />
    <glyph glyph-name="one" unicode="1" horiz-adv-x="504" 
d="M299 106l4.99805 -5.00195l-9 -9v-32l6 -3h133l11 -7l7 -11v-27c-5.33301 -2 -9 -7.66699 -11 -17c-36.667 0 -92 -1.33301 -166 -4s-129.333 -4 -166 -4c-7.33301 0 -15.666 3.33301 -24.999 10v44l15 16h98c4 0 9 -1.33301 15 -4l28 3
c0 0.666992 0.333008 1.33398 1 2.00098s1 1.33398 1 2.00098l-1 3l-4 5v114l2 6l-2 6v194l4 5v6v4c-10 3.33301 -28.333 5 -55 5c-6 0 -15.333 -0.833008 -28 -2.5s-22 -2.5 -28 -2.5c-31.333 0 -47 10.667 -47 32l1 11l23 23h10c3.33301 0 8.33301 -0.666992 15 -2
s11.667 -2 15 -2c6 2.66699 10.667 4 14 4l55 -1c20.667 0 40.334 -3 59.001 -9l16 -14v-31l-11 -8l10 -9l3 -19l6 -7v-25l-5 -5v-12l-2 1l7 -11v-61l-3 -7l3 -5v-40l-4 -7v0l-2 -18l1 1c3.33301 -6 5 -12 5 -18l-4 -4l-1 -33l5 -6v-15z" />
    <glyph glyph-name="two" unicode="2" 
d="M367 239c-6.66699 -5.33301 -46 -23.333 -118 -54c-57.333 -24 -88.666 -46.333 -93.999 -67l-5 -5c-2 -3.33301 -4.33301 -6.66602 -7 -9.99902c-2 -8 -4.16699 -14.5 -6.5 -19.5l-8.5 -17.5v-5h277c12 -5.33301 20.333 -12.333 25 -21l2 -12l-2 -14
c-6 -5.33301 -36 -10 -90 -14c-43.333 -3.33301 -77 -5 -101 -5l-4 4h-63c-4.66699 0 -11.167 -0.666992 -19.5 -2s-14.833 -2 -19.5 -2c-10 0 -27.333 2 -52 6c-2 7.33301 -5.33301 13 -10 17v60l4 5c1.33301 5.33301 2.66602 13 3.99902 23l6 10l3 12l12 12
c4 8.66699 15 22 33 40c2 4 4.33301 8 7 12c8.66699 6.66699 22.667 16.334 42 29.001c10 6 46.333 19.333 109 40c8.66699 3.33301 20 9.66602 34 18.999c8 3.33301 12 8.66602 12 15.999c5.33301 4 8 8.33301 8 13l5 5c1.33301 4 2.33301 10.333 3 19l-8 6l8 6
c-0.666992 6 -1.66699 11 -3 15l-5 5c0 4 -2.66699 7.66699 -8 11c0 4.66699 -2.66699 9 -8 13l-2 10l-25 10l-3 4c-24.667 7.33301 -40.667 11 -48 11c-27.333 0 -53.5 -9.5 -78.5 -28.5s-48.167 -29.5 -69.5 -31.5v49c47.333 48 87 72 119 72
c33.333 0 60.666 -3.33301 81.999 -10l77 -48c0.666992 -4.66699 3.66699 -9 9 -13c0.666992 -4.66699 1.33398 -8.66699 2.00098 -12l6 -5c0.666992 -7.33301 3.66699 -12.333 9 -15v-93c-4.66699 -3.33301 -7.66699 -9.33301 -9 -18c-5.33301 -3.33301 -8 -7.33301 -8 -12
c-5.33301 -3.33301 -8.33301 -7.33301 -9 -12l-18 -12z" />
    <glyph glyph-name="three" unicode="3" 
d="M213 446l-10.999 -2.99902h-116l-15 15v47h302c6.66699 -3.33301 12.334 -9 17.001 -17l2 -16l-2 -15l-55 -53l-80 -81c-0.666992 -5.33301 -3 -10.333 -7 -15c8 8 24.667 11.667 50 11l36 -1c6 -6 24 -17.667 54 -35c3.33301 -9.33301 5.33301 -14.5 6 -15.5
s4.66699 -4.83301 12 -11.5l3 -21l6 -5v-33c0 -1.33301 -3 -20.333 -9 -57c-2.66699 -5.33301 -7.33398 -13 -14.001 -23c-0.666992 -2.66699 -1.33398 -6.66699 -2.00098 -12c-4.66699 -3.33301 -7.66699 -7.33301 -9 -12c-18 -19.333 -46.333 -47 -85 -83l-50 -34
c-14.667 -2 -36.5 -10.667 -65.5 -26s-51.833 -23 -68.5 -23h-46c-8.66699 0 -17.667 7 -27 21l-2 14l2 16c6 4.66699 29.167 10.334 69.5 17.001s64.833 15 73.5 25c13.333 1.33301 31.333 10 54 26s35.667 24.667 39 26l42 42c1.33301 4.66699 3.33301 9.66699 6 15
c6 5.33301 11.333 14.333 16 27l3 3c1.33301 5.33301 3 11 5 17l3 2v50c-4.66699 5.33301 -9.33398 12.333 -14.001 21c-23.333 14 -42.333 21 -57 21c-9.33301 0 -22.5 -2.5 -39.5 -7.5s-29.5 -7.83301 -37.5 -8.5l1 2l-11 -6h-50c0 13.333 1 26.666 3 39.999
c10 5.33301 18.667 15.666 26 30.999c6.66699 1.33301 13 3.33301 19 6l2 10c6 4.66699 22.667 21.5 50 50.5s44 47.167 50 54.5c-14.667 0.666992 -36.667 0.666992 -66 0c-3.33301 2 -7.66602 3.33301 -12.999 4z" />
    <glyph glyph-name="four" unicode="4" 
d="M347 233l2.99805 -18h103v-48l-17 -12h-89l1 -4c0 -2.66699 -1.33301 -6.33398 -4 -11.001v-63l8 -10l-4 -4v-51c-4 -6.66699 -9.33301 -12 -16 -16l-15 -2l-15 2c-6.66699 4 -11.667 9.33301 -15 16v74l3 3c-2 5.33301 -3 10 -3 14l4 6v11c-5.33301 12 -6 24 -2 36
c-6 0 -15.167 -0.5 -27.5 -1.5s-21.833 -1.5 -28.5 -1.5h-155l-16 8c-0.666992 4 -1.66699 10.667 -3 20h11l-8 2h-2h-1v3l2 17c4 5.33301 8 10 12 14c0.666992 6 2.66699 13.333 6 22c4 2 6 5 6 9l6 9l2 17c2 2.66699 4.66699 8.66699 8 18l5 4l3 20l5 4
c1.33301 5.33301 2.33301 13.666 3 24.999l5 4l4 27l-1 8l3 8l4 2v33l8 4v84l2 1v41l4 5c2.66699 10.667 11.334 16 26.001 16c10 0 19.333 -3.33301 28 -10c0.666992 -1.33301 4.33398 -6.66602 11.001 -15.999v-21l-6 -6v-85l-8 -4v-62l-9 -3l-2 -13l-4 -5l-4 -27l-5 -6
c-1.33301 -4.66699 -2.33301 -9.66699 -3 -15l-6 -10l-2 -19l-5 -5c-1.33301 -4 -2.33301 -9.66699 -3 -17c-3.33301 -6 -7.66602 -11.667 -12.999 -17c-0.666992 -6.66699 -2.33398 -14 -5.00098 -22h-1h152c-0.666992 3.33301 -1 7.33301 -1 12l1 13l4 3v22
c-4 6.66699 -6 13 -6 19l2 14l4 5c0 0.666992 0.666992 0.666992 2 0l-6 10l-2 10l2 10l4 5l1 2l-1 5l-10 10l11 11c1.33301 4.66699 2.33301 13.334 3 26.001c14 5.33301 24 8 30 8h5l18 -9v-148l5 -5z" />
    <glyph glyph-name="five" unicode="5" horiz-adv-x="498" 
d="M408 190l10.0039 -7.99902v-84c-2 -2 -6.66699 -8.83301 -14 -20.5s-11.333 -18.5 -12 -20.5l-5 -5c-0.666992 -3.33301 -1.33398 -7.33301 -2.00098 -12l-6 -5c-0.666992 -3.33301 -1.66699 -7.33301 -3 -12c-8 -5.33301 -26 -22.333 -54 -51
c-22.667 -23.333 -42.667 -37 -60 -41c-45.333 -44 -102 -66 -170 -66c-20 0 -32.333 7.33301 -37 22l-9 9c9.33301 14.667 27 25.667 53 33l66 12l3 4c25.333 8 57.333 26.667 96 56c42.667 32.667 65.334 58.334 68.001 77.001l14 11c0.666992 4.66699 3 10 7 16
c1.33301 10 2.66602 19.333 3.99902 28l4 3v27c-4.66699 8 -7.33398 15.667 -8.00098 23l-26 26c-10.667 0 -20.667 1.66699 -30 5l-2 3h-9c-16 0 -39.333 -2.66699 -70 -8c-36.667 -5.33301 -56.667 -11.333 -60 -18c-10 -4 -19.333 -6 -28 -6
c-4.66699 0 -14.667 4.33301 -30 13v136l2 6l-2 6v71c4.66699 4 7.66699 10.333 9 19c10 0 24.5 0.5 43.5 1.5s33.167 1.5 42.5 1.5l78 1c4 -2.66699 8.33301 -5.33398 13 -8.00098l17 8c4 0 10.167 0.666992 18.5 2s14.5 2 18.5 2c3.33301 0 24.666 -5 63.999 -15v-26
c-2.66699 -2 -6 -7.66699 -10 -17l-16 -8h-96c-4.66699 0 -11.667 0.833008 -21 2.5s-16.333 2.5 -21 2.5c-10.667 0 -24.334 -0.666992 -41.001 -2c-21.333 -2 -35 -3 -41 -3v-124c39.333 14 75 21 107 21c6 0 18.667 -3 38 -9s30.333 -10.333 33 -13
c16.667 -2.66699 33 -9.33398 49 -20.001c2 -4.66699 11 -15 27 -31c0 -4.66699 -0.666992 -9.66699 -2 -15z" />
    <glyph glyph-name="six" unicode="6" 
d="M406 226c4.66699 -6 12.002 -14.001 22.002 -24.001v-92c-4.66699 -3.33301 -9 -10 -13 -20s-7.66699 -16.667 -11 -20l-2 -6c-4 -3.33301 -6.66699 -7.33301 -8 -12c-10 -12 -28.167 -24.833 -54.5 -38.5s-46.833 -20.5 -61.5 -20.5h-37
c-2.66699 0 -6.66699 0.833008 -12 2.5s-10 2.16699 -14 1.5c-9.33301 4 -21.333 8.66699 -36 14c-12.667 9.33301 -31 25 -55 47c0 5.33301 -5.33301 13 -16 23l-2 10l-6 8l-4 25l-6 1v40l-6 6v21l4 7c0 5.33301 -0.666992 14 -2 26s-2 20.667 -2 26l6 4v48l6 1
c2 8 3.33301 16.333 4 25c9.33301 14.667 17.666 21.334 24.999 20.001c-1.33301 5.33301 -7 12 -17 20c4.66699 4 10.334 10.333 17.001 19c3.33301 4 5.66602 10 6.99902 18c4 6 8.33301 12 13 18c2.66699 8 8 16 16 24c2 12.667 9.33301 20 22 22
c3.33301 2.66699 7.33301 4 12 4v17l73 55l35 12l5 5c19.333 3.33301 51.333 7.33301 96 12v-45c-12.667 -13.333 -31 -20 -55 -20c-18.667 -8 -36.334 -14 -53.001 -18c-1.33301 -2.66699 -6.33301 -5.66699 -15 -9c-4 -3.33301 -25.667 -19 -65 -47
c-2.66699 -6.66699 -7 -14.834 -13 -24.501s-9.66699 -16.5 -11 -20.5c-4 -3.33301 -6.66699 -7.33301 -8 -12c-3.33301 -3.33301 -5.66602 -9 -6.99902 -17c-7.33301 -5.33301 -18 -11 -32 -17l5 -2c2.66699 -7.33301 4 -13.666 4 -18.999c0 -10.667 -2 -17.667 -6 -21
l-4 -27l-4 -5v0l16 10c4 6 9.33301 11.333 16 16l10 2l5 5c6.66699 2 16 5.33301 28 10h9c5.33301 -2.66699 15.666 -4 30.999 -4c4 0 9.33301 -3 16 -9v3l50 -3c14 -6.66699 27.667 -10.667 41 -12l23 -17c0 -0.666992 4.66699 -7.66699 14 -21
c4 -6.66699 6.33301 -15 7 -25zM374.002 150.999l-1 1v45c-4.66699 7.33301 -7.33398 14.666 -8.00098 21.999l-8 1c-11.333 8.66699 -26.333 21 -45 37c-7.33301 2.66699 -17.666 7.66699 -30.999 15l-3 5c-8 -5.33301 -18.667 -9.33301 -32 -12
c-18 -3.33301 -29.333 -6 -34 -8c-9.33301 -3.33301 -19.333 -10 -30 -20c-16.667 -15.333 -26 -23.666 -28 -24.999c-2.66699 -6.66699 -7 -12.667 -13 -18v-38c4 -8.66699 6.33301 -17.667 7 -27c4.66699 -5.33301 9.66699 -14.333 15 -27l6 -5
c2 -13.333 19 -25.333 51 -36l4 -4c11.333 -4 21.333 -6 30 -6c10 0 34 4.66699 72 14c3.33301 5.33301 10.333 11.666 21 18.999l4 8l6 6h-1c2 4.66699 4.66699 8.33398 8 11.001c0.666992 5.33301 3 11.333 7 18z" />
    <glyph glyph-name="seven" unicode="7" 
d="M74 255v63l4 5l4 19c6 8.66699 14 14.334 24 17.001l-5 36c-2 14.667 -3 27.334 -3 38.001h17l6 6h168l4 -4h10c6.66699 2.66699 32.667 4 78 4c13.333 0 26.333 -3 39 -9v-42l12 -10l-8 -7c1.33301 -0.666992 2 -2.33398 2 -5.00098
c0 -5.33301 -1.33301 -13.833 -4 -25.5s-4.33398 -19.5 -5.00098 -23.5l-5 -7c-1.33301 -5.33301 -2.33301 -12.333 -3 -21l-5 -7c-1.33301 -5.33301 -2.33301 -11.333 -3 -18c-4.66699 -5.33301 -7.33398 -12.666 -8.00098 -21.999
c-4.66699 -4.66699 -7.33398 -9 -8.00098 -13l-16 -16h2c-2 -5.33301 -4.66699 -9.33301 -8 -12c-2.66699 -8 -8 -16 -16 -24c-1.33301 -4 -8.83301 -14.5 -22.5 -31.5s-22.834 -27.5 -27.501 -31.5l-2 -6c-4 -3.33301 -6.66699 -7.33301 -8 -12
c-6 -7.33301 -15.667 -18 -29 -32c-0.666992 -4 -3 -9 -7 -15c-2 -8 -5.33301 -14 -10 -18c0 -6.66699 -1 -13.667 -3 -21l-4 -3v-36l-8 -4v-86c-8 -8 -25.333 -12 -52 -12c-2.66699 8.66699 -6.33398 15 -11.001 19v52l6 5v59l6 2l4 21l5 6
c3.33301 7.33301 7.33301 18.666 12 33.999c3.33301 2 5.66602 8.66699 6.99902 20c4.66699 2 7.66699 5.66699 9 11c4 3.33301 6.66699 7.66602 8 12.999c4 2 6.33301 6.66699 7 14c14.667 14 34.667 36.667 60 68c2.66699 2 9.33398 10.5 20.001 25.5s16.667 24.5 18 28.5
l5 4c0.666992 3.33301 1.33398 7 2.00098 11l6 5c0.666992 3.33301 1.33398 7.33301 2.00098 12l24 26c-6 7.33301 -8.66699 14 -8 20l5 6c2 8 4.66699 14.667 8 20c1.33301 5.33301 4 11 8 17c-1.33301 -0.666992 -0.666016 -1.33398 2.00098 -2.00098l-6 7l-2 9h-99
c-5.33301 0 -13 -0.833008 -23 -2.5s-17.667 -2.5 -23 -2.5c-7.33301 0 -18.166 0.833008 -32.499 2.5s-25.166 2.5 -32.499 2.5c-2 0 -7.33301 -1 -16 -3c-2 -7.33301 -5.33301 -13.666 -10 -18.999v-48l-4 -4v-12c3.33301 -5.33301 5 -9.33301 5 -12
c0 -20 -20.667 -29.667 -62 -29z" />
    <glyph glyph-name="eight" unicode="8" 
d="M312 320c39.333 -12.667 67.9971 -30.6641 85.9971 -53.9971l2 -9c4.66699 -4.66699 7.33398 -10 8.00098 -16l6 -7l3 -19l6 -5v-87c-2.66699 -4 -7 -11 -13 -21c-1.33301 -6.66699 -6.16602 -16 -14.499 -28s-12.5 -20.667 -12.5 -26
c-31.333 -20 -53.333 -32.667 -66 -38c-22 -10.667 -45.667 -16 -71 -16c-14 0 -30.333 4.33301 -49 13c-22.667 9.33301 -38 14.666 -46 15.999c-19.333 13.333 -40.666 37.333 -63.999 72l-3 19l-5 5v79l4 5l4 24l5 5c1.33301 5.33301 2.33301 11 3 17
c27.333 41.333 59 65.666 95 72.999c-6.66699 6 -17.667 11.667 -33 17l-20 20c-2 6 -8 15 -18 27l-2 10l-6 6v86l5 6c1.33301 4.66699 2.33301 10 3 16l6 5c0.666992 3.33301 1.33398 7 2.00098 11c9.33301 10.667 25.333 25 48 43
c5.33301 6.66699 18.666 12.667 39.999 18c18 4.66699 32.667 7 44 7c10.667 0 29.5 -6.5 56.5 -19.5s41.833 -23.5 44.5 -31.5l22 -21c1.33301 -14 4.66602 -28.667 9.99902 -44l7 -6v-14l-5 -5v-4c0 -2.66699 0.833008 -6.83398 2.5 -12.501s2.5 -10.167 2.5 -13.5l-6 -7
c-1.33301 -4.66699 -2.33301 -11 -3 -19l-6 -5c-0.666992 -3.33301 -1.66699 -7.33301 -3 -12c-4 -3.33301 -6.33301 -7 -7 -11c-13.333 -16.667 -26.666 -29.667 -39.999 -39c-6 -0.666992 -13.333 -4 -22 -10zM242.997 340.003l15.001 4.99902l13 13l9 2l3 7
c8.66699 6 20.667 15.333 36 28c0.666992 2.66699 1.33398 6 2.00098 10c4 4 6.66699 10.333 8 19l4 4v42c0 6.66699 -3.66699 13 -11 19c-0.666992 2.66699 -11.334 13.334 -32.001 32.001c-17.333 7.33301 -32 11 -44 11c-4.66699 0 -20.667 -7 -48 -21
c-0.666992 -2 -4.33398 -6.66699 -11.001 -14c-4 -5.33301 -6 -10.333 -6 -15l-7 -6c-0.666992 -3.33301 -1.33398 -7 -2.00098 -11l-3 -3v-21l3 -6c0.666992 -9.33301 1.66699 -16.333 3 -21l5 -5c0.666992 -4 3.66699 -8 9 -12c0 -4.66699 10 -16.667 30 -36
c2.66699 -7.33301 4 -12 4 -14c0.666992 2 1.66699 3 3 3l3 -1c4.66699 -4 9.33398 -7 14.001 -9zM352.998 104.002l-1.99902 -1.00098c2 4.66699 4.33301 8.33398 7 11.001c1.33301 6 3 11.667 5 17l3 2v63c-3.33301 4.66699 -5.66602 9.66699 -6.99902 15l-4 3
c-2 6 -3.66699 11.667 -5 17l-50 43c-20.667 2.66699 -36 6.66699 -46 12h-4c-0.666992 0 -16.334 -5 -47.001 -15c-10 -5.33301 -20.333 -13.333 -31 -24l-22 -20c-0.666992 -4.66699 -3.33398 -10 -8.00098 -16c-0.666992 -4 -2.66699 -9 -6 -15v-60
c2.66699 -4.66699 5.5 -10.5 8.5 -17.5s9.5 -16.5 19.5 -28.5c1.33301 -7.33301 8 -12.333 20 -15c2 -4 15 -11.667 39 -23h42c5.33301 0 19 3.33301 41 10c3.33301 4 9 7 17 9c2.66699 2 12.667 13 30 33z" />
    <glyph glyph-name="nine" unicode="9" horiz-adv-x="504" 
d="M137 355l-0.000976562 -42l-6 -2c-1.33301 -1.33301 -2.33301 -2 -3 -2l6 -7c7.33301 -19.333 11.333 -34 12 -44c28.667 -35.333 60.334 -53 95.001 -53c16 0 35 4.33301 57 13c25.333 10 39.666 21.333 42.999 34l13 9c4 12.667 16.333 23.667 37 33
c0 2 -1.33301 3 -4 3c-8 0 -12.667 3.83301 -14 11.5s-2.33301 15.167 -3 22.5c-6.66699 6 -8 14.333 -4 25l1 2v0c-6 2 -11 4.33301 -15 7c-4 5.33301 -6.33301 10.333 -7 15l-28 28c-18 6.66699 -28.667 12 -32 16c-8.66699 2.66699 -22 6 -40 10l-3 -5h-37
c-5.33301 -7.33301 -20.666 -19.333 -45.999 -36c-3.33301 -4.66699 -6.66602 -12 -9.99902 -22l-4 -4c-2.66699 -5.33301 -5.33398 -9.33301 -8.00098 -12zM345.999 126l-0.998047 -1.00586c1.33301 4.66699 4 11.167 8 19.5s10 12.5 18 12.5l-3 16l2 1
c1.33301 6.66699 2.33301 17.334 3 32.001h15l5 10l23 4c-11.333 3.33301 -19.666 6 -24.999 8c-8.66699 -7.33301 -17 -16.666 -25 -27.999l-36 -24c-10.667 -16 -31.334 -24 -62.001 -24h-58l-6 5c-5.33301 1.33301 -11.666 2.33301 -18.999 3l-5 5
c-19.333 6.66699 -33 13 -41 19c-3.33301 2.66699 -14 12.667 -32 30c-1.33301 4.66699 -4 8.66699 -8 12c-1.33301 5.33301 -4.33301 9 -9 11l-4 31c-3.33301 3.33301 -10.666 9 -21.999 17l16 11v78l8 4c0 4 1 8.66699 3 14c19.333 20 29.666 33.667 30.999 41l48 37
c37.333 12 61.333 18 72 18l13 -1l6 -3l9 1c13.333 0 27.666 -2.33301 42.999 -7l6 -4c8 -1.33301 14 -4.66602 18 -9.99902c12 -6.66699 25 -17 39 -31l2 -5l15 -10l3 -21l6 -7v-22h8v-53l8 -8c0 -6.66699 -2.33301 -12.667 -7 -18l7 -7v-62l2 1c0 -16 -2.33301 -31 -7 -45
l-1 -1v-29l-13 -10l3 -4v-20l-7 -8c-0.666992 -2.66699 -1.33398 -6 -2.00098 -10l-6 -5c-0.666992 -3.33301 -1.33398 -7.33301 -2.00098 -12c-4.66699 -3.33301 -7.66699 -7.66602 -9 -12.999c-1.33301 -1.33301 -6.33301 -7 -15 -17l2 1
c-2 -5.33301 -7.33301 -12 -16 -20c-4.66699 -11.333 -18.334 -26.166 -41.001 -44.499s-40.667 -30.166 -54 -35.499l6 6c-11.333 -9.33301 -42 -26.666 -92 -51.999h-9c-2.66699 0 -10.667 4.33301 -24 13c-2 6 -3 11.667 -3 17c0 11.333 2.66699 19.333 8 24
c1.33301 1.33301 10.333 5 27 11c56.667 19.333 101.667 49.333 135 90c7.33301 7.33301 15.333 19.666 24 36.999l6 5c0.666992 3.33301 1.33398 7.33301 2.00098 12c3.33301 3.33301 8 8.33301 14 15z" />
    <glyph glyph-name="ch58" unicode=":" 
d="M281 228h-32.001c-15.333 0 -29.666 7.33301 -42.999 22c-1.33301 4.66699 -4.33301 9 -9 13v56c4.66699 4 7.66699 8 9 12c14.667 18.667 32.334 28 53.001 28c22.667 0 40.667 -8 54 -24c1.33301 -4 4.66602 -8 9.99902 -12v-61c-7.33301 -14 -21.333 -25.333 -42 -34z
M291.999 11l-20 -5h-23c-11.333 0 -25.333 5.33301 -42 16l-5 13l-5 6v60c4.66699 4 7.66699 8 9 12c12.667 16 32 24 58 24c24 0 43.667 -11.333 59 -34v-70c-8 -2.66699 -18.333 -10 -31 -22z" />
    <glyph glyph-name="equal" unicode="=" 
d="M113 269c-2.66699 0 -12.666 2 -29.999 6v39h-24l24 3v8c29.333 4 44.666 6 45.999 6c4.66699 0 9.66699 -1.33301 15 -4c6 0.666992 10.333 2 13 4h262v-58h-276c-3.33301 0 -8.33301 -0.666992 -15 -2s-11.667 -2 -15 -2zM426.001 149l-11 -13l-13 -8h-319v56
c9.33301 0 23.5 0.833008 42.5 2.5s33.167 2.5 42.5 2.5c25.333 0 63 0.666992 113 2s87.667 2 113 2h6c18.667 -8 28 -17.667 28 -29z" />
    <glyph glyph-name="question" unicode="?" 
d="M197 406c-2.66699 -4 -6.33203 -7.00195 -10.999 -9.00195v-8l12 -11l3 -12l11 -11l-11 -11c-1.33301 -4.66699 -2.33301 -12.334 -3 -23.001c-4 -4 -15 -11.333 -33 -22h-27l-33 16c-0.666992 8 -3.33398 16.333 -8.00098 25v15l4 6l5 23c4 2 6.33301 7 7 15
c4.66699 3.33301 7.66699 8 9 14c4 1.33301 6.66699 4.33301 8 9c4 4 10 10.333 18 19c46 26.667 79.333 40 100 40c29.333 0 57.666 -8 84.999 -24c0.666992 -2.66699 12.334 -9.66699 35.001 -21c-0.666992 -7.33301 -0.333984 -13.666 0.999023 -18.999l7 -1
c7.33301 -4.66699 12.333 -10 15 -16l5 -31c2.66699 -12 4 -22 4 -30c0 -2 -3.33301 -17 -10 -45c-4 -1.33301 -6.66699 -4.66602 -8 -9.99902c-4 -3.33301 -6.66699 -7 -8 -11c-16 -18.667 -33 -30 -51 -34c-8.66699 -5.33301 -20 -14.333 -34 -27v-43
c-6 -6 -12.333 -11 -19 -15h-13c-11.333 0 -21.666 3 -30.999 9v56l5 6l4 13l37 39c12 12.667 29.333 22.334 52 29.001l4 4c2 4 4.33301 7.66699 7 11c2 7.33301 4.66699 13.333 8 18v21c-3.33301 4.66699 -6 10.667 -8 18c-2.66699 5.33301 -7 13.333 -13 24
c-16.667 4 -41.667 11 -75 21c-21.333 -9.33301 -38.333 -15.333 -51 -18zM313.002 29.998c-4 -8.66699 -11.5029 -16.5 -22.5029 -23.5s-21.5 -10.5 -31.5 -10.5h-24c-13.333 6.66699 -21.666 11 -24.999 13c-9.33301 6 -15.666 13 -18.999 21l-5 6v51l5 6
c10.667 25.333 32.334 38 65.001 38c1.33301 0 12 -1.66699 32 -5l15.5 -16c5 -5.33301 8.16699 -11.333 9.5 -18l6 -5v-51z" />
    <glyph glyph-name="A" unicode="A" 
d="M179 101v1v0v-1zM178 101h1v0h-1zM178 101v-1v1v0zM388 117c3.33301 -11.333 5.33398 -25.001 6.00098 -41.001c13.333 -1.33301 33.333 -8 60 -20c4 -1.33301 9.66699 -4 17 -8l3 -15l-2 -17c-4.66699 -2 -7.66699 -6.33301 -9 -13
c-4 -1.33301 -6.66699 -7.66602 -8 -18.999h-21c-33.333 0 -83.333 2.66699 -150 8l-17 8v49c9.33301 10 24.666 16 45.999 18v40l-2 2h-132v-3l9 -9l-9 -9v-22l34 -8l9 -8l2 -13l-2 -15c-5.33301 -4 -12 -14.333 -20 -31c-16.667 0 -41.167 -1.16699 -73.5 -3.5
s-56.5 -3.5 -72.5 -3.5l-22 12c-7.33301 4 -11 13.333 -11 28l2 16c8 14 30.667 23.333 68 28l7 17l4 3v29l8 11h-2l6 14l4 2v37l8 4v30l6 6l4 19l6 9c-0.666992 1.33301 -1 3.33301 -1 6c0 4.66699 1.33301 10.667 4 18l5 4v46l7 3c1.33301 4.66699 3.66602 10 6.99902 16
l4 27l6 9c0 6.66699 0.666992 14 2 22l6 10v5c0 5.33301 0.666992 12.333 2 21l5 6c7.33301 30 24 45.333 50 46c2.66699 -1.33301 7 -3.33301 13 -6s13.667 -7.66699 23 -15c4 -1.33301 10.333 -4 19 -8v-20l2 -1v-40l5 -5c0 -3.33301 2.66699 -8 8 -14
c0 -4.66699 1 -12 3 -22l6 -7v-16l-4 -5c2 -5.33301 5.66699 -12.666 11 -21.999c2 -8 3.33301 -16.333 4 -25c4 -2.66699 8 -6 12 -10c0.666992 -6.66699 3.33398 -13.667 8.00098 -21c6 -9.33301 9.66699 -15.333 11 -18l4 -4c2 -6.66699 3.66699 -12.667 5 -18l4 -5
c6.66699 -32.667 10.334 -53.334 11.001 -62.001c3.33301 -5.33301 5.66602 -10.333 6.99902 -15l-3 -10zM195.001 180.999l9.00293 -2.99902v0l-1 -3l11 7c-0.666992 0 24.666 1 75.999 3c-2 6 -5 10.667 -9 14v35c-6 8 -8.66699 20.333 -8 37
c-6 11.333 -9.33301 21 -10 29l2 -1l-6 7c-2 5.33301 -3.33301 11.333 -4 18c-3.33301 4 -5 8 -5 12c0 2.66699 1.33301 6 4 10c-4.66699 8 -8.66699 23.333 -12 46c-0.666992 -6.66699 -3.33398 -15.667 -8.00098 -27
c-0.666992 -6.66699 -2.33398 -14.334 -5.00098 -23.001l-4 -3v-34l-7 -2l-4 -23l-5 -5v-38l-7 -2l-4 -23l-3 -3v-28z" />
    <glyph glyph-name="B" unicode="B" horiz-adv-x="498" 
d="M77 414v2v-1h-2zM370 239l5 -2.00098l5 -4l13 -4l21 -21c0 -3.33301 2.66699 -8 8 -14c0.666992 -7.33301 3.33398 -14 8.00098 -20l2 -9c2.66699 -2 5 -6.16699 7 -12.5s4.66699 -10.833 8 -13.5v-38l-6 -10l-1 -39c-5.33301 -2 -9 -6.66699 -11 -14
c-5.33301 -4.66699 -11.333 -12.334 -18 -23.001c-10 -6.66699 -18.667 -14 -26 -22l-60 -18c-17.333 -4.66699 -41 -7 -71 -7c-2.66699 0 -6.66699 0.666992 -12 2s-9.33301 2 -12 2c-2 0 -4.66699 -0.666992 -8 -2s-6 -2 -8 -2c-3.33301 0 -7 1.33301 -11 4h-96
c-4.66699 0 -12 -0.666992 -22 -2s-17.667 -2 -23 -2l-23 23l-1 10c0 14.667 8.66699 26.667 26 36h68v358l-19 5c-8.66699 -2 -19.334 -5 -32.001 -9h-4v3l-6 -1l2 -1l-23 4c-1.33301 4 -4 10 -8 18c2.66699 0 4.66699 -1.33301 6 -4c0.666992 4.66699 3 8.33398 7 11.001
h-16c0 5.33301 2 10 6 14c5.33301 12 19.333 18 42 18l8 -4c6.66699 0 12.667 0.666992 18 2l8 6c12 -1.33301 17.667 -2 17 -2c4 0 9.66699 1 17 3s13 3 17 3c86 0 139 -1 159 -3c11.333 -1.33301 22.666 -9.66602 33.999 -24.999c6.66699 -4 17.334 -13 32.001 -27
c1.33301 -4.66699 4.33301 -9 9 -13c0.666992 -8.66699 1.66699 -15 3 -19l6 -6v-73c-2.66699 -1.33301 -6 -9.33301 -10 -24c-5.33301 -4.66699 -11.333 -12 -18 -22zM263 262.999l76.002 26c9.33301 3.33301 14 12.333 14 27l4 4v30c0 30 -38.333 45 -115 45
c-6 0 -23.667 -1.33301 -53 -4v-127c2.66699 2 5.66699 3 9 3c7.33301 0 18.166 -0.666992 32.499 -2s25.166 -2 32.499 -2zM382.002 146.999c-6.66699 6.66699 -11.332 12.6641 -13.999 17.9971l-35 21c-4.66699 0.666992 -13.334 2.83398 -26.001 6.50098s-22 5.5 -28 5.5
h-86v-159h53l5 -6h4c6.66699 2.66699 24.667 5.33398 54 8.00098c22.667 2 38.667 9.33301 48 22c4 2 7.66699 4 11 6c1.33301 2.66699 3 6.33398 5 11.001s4 10 6 16l3 2v49z" />
    <glyph glyph-name="C" unicode="C" 
d="M349 439l1.99805 7.00293c11.333 12.667 24.333 19 39 19l14 -1c4.66699 -6 12.334 -14.667 23.001 -26l2 -20l-2 -20c-10.667 -10 -15.667 -17.333 -15 -22l-4 -5v-27c2.66699 -6 4 -11.667 4 -17l-7 -11l-2 -25c-2 -2 -5 -7 -9 -15
c-9.33301 -7.33301 -18 -10.666 -26 -9.99902l-26 18c-0.666992 5.33301 -1.33398 10.333 -2.00098 15l-6 8v24l2 4l-2 3l-2 10l-6 5c-1.33301 9.33301 -8.66602 19.666 -21.999 30.999c-8 2 -14 5.33301 -18 10c-9.33301 4 -14.666 6 -15.999 6h-37
c6 0 -2.33301 -2.66699 -25 -8c-4 -3.33301 -9.66699 -6 -17 -8c-13.333 -12.667 -20.666 -23 -21.999 -31l-6 -5c-0.666992 -3.33301 -1.33398 -7 -2.00098 -11l-5 -5c-1.33301 -4 -2.33301 -9.66699 -3 -17l-6 -7c-1.33301 -7.33301 -3.66602 -13.333 -6.99902 -18
c-0.666992 -9.33301 -2.33398 -18 -5.00098 -26l-2 -2v-59c4 -8.66699 6.33301 -17.334 7 -26.001c4 -7.33301 6.33301 -19.333 7 -36l6 -6c0.666992 -5.33301 1.66699 -10.333 3 -15l5 -5c1.33301 -10 6.66602 -19.333 15.999 -28c2.66699 -16 15.334 -29 38.001 -39
c18.667 -7.33301 37.667 -11 57 -11h3c15.333 9.33301 24 14.666 26 15.999c10 7.33301 16 15 18 23c6 7.33301 15.333 18 28 32c1.33301 4 2.33301 8.33301 3 13l5 7c0.666992 8 2.66699 16.333 6 25c2.66699 2 5.33398 6.66699 8.00098 14l15 8h27
c8 -5.33301 13.667 -11.333 17 -18v-41l-5 -5l-5 -20l-4 -4l-4 -17c-7.33301 -10 -18.666 -24.333 -33.999 -43l-60 -49c-23.333 -6.66699 -46 -10 -68 -10c-48.667 0 -92.667 20.667 -132 62l-3 12l-4 5l-2 5c-2.66699 2.66699 -5 5.66699 -7 9
c-0.666992 7.33301 -1.66699 13 -3 17c-2 1.33301 -7 3 -15 5v35l-6 5c-6 46.667 -8.66699 95 -8 145l6 5v32l9 7c0 1.33301 2.33301 6 7 14l2 17c2 2.66699 4.66699 8.66699 8 18l4 4l5 22c5.33301 4.66699 15.333 18 30 40l-3 -7c1.33301 4 11.666 11.167 30.999 21.5
s32.666 16.166 39.999 17.499l5 6h74l10 -7l-1 2c4.66699 -1.33301 10.667 -4.66602 18 -9.99902c5.33301 -0.666992 17.333 -4.33398 36 -11.001z" />
    <glyph glyph-name="D" unicode="D" horiz-adv-x="503" 
d="M430 285c1.33301 -5.33301 4.33496 -12 9.00195 -20v-92c0 -2 -3 -17.333 -9 -46l-6 -9l-2 -17l-4 -6l-4 -24l-29 -28l-5 -12l-21 -12c-16 -32 -85.333 -48 -208 -48h-50c-19.333 0 -37.333 3 -54 9v38l16 13h69v12l-5 12h11l-3 11l-4 -2l1 17l2 -7
c-6 22.667 -8.66699 129 -8 319h-64c-6 5.33301 -11 11.333 -15 18l-2 13l2 16c19.333 11.333 47.666 17 84.999 17h136c2 -1.33301 12.667 -4.33301 32 -9c22.667 -5.33301 53 -26.666 91 -63.999c-0.666992 -4.66699 0.666016 -9 3.99902 -13c8 -4 13 -14 15 -30
c-0.666992 0.666992 -1.66699 1 -3 1v-1l7 -9c2 -16.667 9.66699 -30.334 23 -41.001zM184.002 172l7.00195 -4.00195v-134l1 -1h40c12.667 0 26.667 2 42 6c18.667 5.33301 30 12 34 20l21 7c2 4 4.66699 10 8 18c4.66699 3.33301 8.16699 7 10.5 11
s4.16602 10.333 5.49902 19l6 6c1.33301 7.33301 3.66602 13.333 6.99902 18c1.33301 8 4 14.333 8 19v107c-4 5.33301 -6.66699 15 -8 29c-4 8.66699 -6.66699 16.334 -8 23.001l-5 6c-0.666992 4.66699 -1 8.33398 -1 11.001c-3.33301 2.66699 -8 6 -14 10
c-4 18.667 -23 33.334 -57 44.001c-26 8 -51 12 -75 12c-7.33301 0 -14.333 -0.666992 -21 -2v-146c2.66699 -6 4 -18.333 4 -37l-4 -5c-0.666992 1.33301 -1.66699 2.66602 -3 3.99902l7 -11v-16l-5 -6v-5v-3z" />
    <glyph glyph-name="E" unicode="E" horiz-adv-x="500" 
d="M273 257l-3.00195 5v41l5 5c2 4.66699 5 10 9 16h20c4 0 11 -4 21 -12c0 -10 0.333008 -28 1 -54c0.666992 -23.333 1 -41.333 1 -54l-3 1l7 -11v-17l-7 -11l-2 -24c-9.33301 -6.66699 -21.333 -9.66699 -36 -9c-6.66699 4 -12.667 9 -18 15v50h-78v-159l12 -2h148
c8.66699 0 16.334 0.333008 23.001 1v31l8 4v44l8 4v37h45c6 -3.33301 11.333 -8.33301 16 -15l2 9v-11l-2 2c-2.66699 -21.333 -5 -37.666 -7 -48.999l8 -7l-13 -9v-51l-4 -1l2 -2v-27c-12.667 -8 -35.334 -12.667 -68.001 -14c-24 -0.666992 -48.333 -1 -73 -1
c-19.333 -0.666992 -31.666 -2.66699 -36.999 -6h-188c-3.33301 0 -12 6 -26 18l-2 18l2 16l17 9h70v364h-72c-6 5.33301 -11 11.333 -15 18v16c4 5.33301 8.66699 10.666 14 15.999l10 6c16 0 39.833 0.5 71.5 1.5s55.5 1.5 71.5 1.5h91l110 -4l18 -15v-43
c3.33301 -8 5.33301 -34 6 -78c-9.33301 -6.66699 -18.666 -10 -27.999 -10s-16 4.33301 -20 13l-7 5v78l-198 -7c1.33301 -13.333 2.33301 -40.333 3 -81l-3 -3l3 -4v-21l-4 -6l6 -3v-26h82l2 2h1z" />
    <glyph glyph-name="F" unicode="F" horiz-adv-x="504" 
d="M142 130l-5 5.99902v119l4 4v18c-3.33301 4 -5 7.66699 -5 11c0 2.66699 1.66699 6.33398 5 11.001v19c-4 6.66699 -6 13 -6 19l2 16l4 3v43h-60l-25 12v54h382c0.666992 -8 1.5 -13 2.5 -15s4.16699 -4.66699 9.5 -8c0.666992 -22.667 1.33398 -56.334 2.00098 -101.001
l4 -7v-18c-4.66699 -7.33301 -13 -14.666 -25 -21.999h-18c-12 4 -19.333 11.667 -22 23l-3 4l-3 12l6 10v14c-4.66699 10.667 -6.66699 25 -6 43c-33.333 2.66699 -75 4 -125 4c-31.333 0 -50.666 -1.33301 -57.999 -4v-141h62v74c18.667 4.66699 29.334 7 32.001 7h6
l27 -18v-148l6 -9v-16c-6 -6.66699 -9.66699 -15 -11 -25l-15 -7h-5c-2.66699 0 -11 1.66699 -25 5l-9 12l2 -1l-8 12v53h-62v-56c2.66699 -6 4 -12 4 -18l-4 -4v-79c4.66699 0 12.667 0.833008 24 2.5s20 2.5 26 2.5c2 0 11 -0.666992 27 -2l24 -23v-14
c-22 -20.667 -37 -30.667 -45 -30l-184 4c-6.66699 0 -15.334 6 -26.001 18l-2 15l2 14c6.66699 12 14.667 18 24 18c1.33301 0 3.66602 -0.833008 6.99902 -2.5s5.66602 -2.5 6.99902 -2.5h49l-2 1l7 11l-7 10l8 7v53l2 -1z" />
    <glyph glyph-name="G" unicode="G" 
d="M315 211c6.66699 16 31.001 24 73.001 24c7.33301 0 18 -0.666992 32 -2s24.667 -2 32 -2l16 -16v-7c0 -6 -2.33301 -10.667 -7 -14l-4 -8c-6.66699 -6 -21 -10 -43 -12v-28l-7 -4v-6c4 -10.667 6.33301 -25 7 -43c4 -6.66699 6.33301 -24.334 7 -53.001l7 -8v-29
l-16 -16h-20c-6.66699 0 -13.334 6.66699 -20.001 20l-8 6v14c-31.333 -31.333 -68.666 -47 -111.999 -47c-20.667 0 -39.667 1.66699 -57 5c-3.33301 3.33301 -8.33301 5.66602 -15 6.99902c-12.667 9.33301 -31.334 24.666 -56.001 45.999l-3 12l-13 13l-2 11l-6 5l-2 10
l-14 24l-4 22l2 -1l-6 9l-4 20l-4 5v47l2 3l-2 3v44l6 4v45l5 3l6 21c7.33301 6.66699 11.666 11.667 12.999 15l2 20l5 5c5.33301 14.667 16.666 28.334 33.999 41.001l5 9c24.667 11.333 52.667 26.333 84 45h7c-2.66699 0 20.666 -3.33301 69.999 -10l2 -13l12 -2l11 -8
l-1 3c5.33301 -1.33301 12.333 -6.33301 21 -15l1 1l4 4c1.33301 6.66699 2.33301 17.334 3 32.001h27l18 -9v-50l-2 -2c2 -4 3 -9.33301 3 -16l-7 -3v-91l-21 -8h-10c-3.33301 2.66699 -8.33301 4.66699 -15 6l-2 9c-2.66699 2 -5.66699 5 -9 9v42l-5 4
c-1.33301 4.66699 -4 8.66699 -8 12c-1.33301 3.33301 -7.66602 10.666 -18.999 21.999s-18.666 17 -21.999 17h-72c-7.33301 0 -16.666 -4.33301 -27.999 -13s-16.666 -16.667 -15.999 -24l-7 -6c-0.666992 -3.33301 -1.33398 -7 -2.00098 -11l-13 -12l-4 -24l-4 -4
c-1.33301 -10 -4.33301 -17.333 -9 -22v-42l-8 -3l-4 -19l4 -21l8 -5v-37c5.33301 -9.33301 8.33301 -17.666 9 -24.999c3.33301 -5.33301 5.66602 -10.666 6.99902 -15.999l5 -4c1.33301 -12.667 7 -23.334 17 -32.001c0.666992 -8 7 -17.667 19 -29s21.667 -17 29 -17h59
c6 4 15.667 9 29 15c9.33301 7.33301 20.333 19 33 35c2 0.666992 3.66699 5.33398 5 14.001c4 2 6.33301 6.33301 7 13l4 4v56h-101v44l18 9c8.66699 0 17.334 0.333008 26.001 1c12 0 18 -2.66699 18 -8c0 -2 -0.666992 -4.33301 -2 -7z" />
    <glyph glyph-name="H" unicode="H" horiz-adv-x="504" 
d="M194 359l3.00195 -2.99902v-55l-4 -4v-42c0.666992 -0.666992 18 -0.666992 52 0l6 -6l8 -3l7 7c3.33301 1.33301 37.333 2 102 2l-7 3v12c-8 4 -13.333 10 -16 18v48l4 4l-6 4v57h-46c-16.667 12.667 -25 23.334 -25 32.001c0 4.66699 5 14 15 28
c6 0 15.5 0.666992 28.5 2s22.833 2 29.5 2c8.66699 0 21.667 -5.66699 39 -17l12 5h43l32 -34l-26 -12h-19l-4 2l-6 -2c-6 1.33301 -11.333 0.666016 -16 -2.00098v-91l-4 -3l2 -3v-50c6 -4 9 -9 9 -15c0 -10 -12 -18.667 -36 -26h13l10 -6c3.33301 -6 5.33301 -11 6 -15
c4 -2.66699 6.33301 -8.33398 7 -17.001c-2.66699 -6.66699 -7 -14 -13 -22v-7c0 -5.33301 1 -14.166 3 -26.499s3 -21.5 3 -27.5c6 -10.667 7.66699 -22.334 5 -35.001l2 -8l-2 -9l1 -3l5 1c10 0 29.333 -7.33301 58 -22l3 -14l-3 -13
c-12.667 -8.66699 -42.334 -13 -89.001 -13h-52l-30 1l-17 8v47c20.667 0 43 1.33301 67 4l1 28l-4 4v20c3.33301 2 5 3.33301 5 4c0 6 -0.833008 15.667 -2.5 29s-2.5 23.333 -2.5 30l22 16v39c-8 -6 -21.333 -9 -40 -9c-17.333 0 -33.333 3.33301 -48 10l2 -11
c-32.667 0 -62.334 1.33301 -89.001 4c3.33301 -4.66699 5 -8.66699 5 -12s-1.33301 -7.33301 -4 -12v-26c2.66699 -6 4 -13.333 4 -22l-4 -4v-18c2 -5.33301 3 -28.666 3 -69.999c16 -1.33301 34.333 -3 55 -5l10 -10v-39c-26 -3.33301 -68.333 -5 -127 -5
c-5.33301 -3.33301 -21 -5 -47 -5c-9.33301 6.66699 -17 14 -23 22l-3 10l3 12c18.667 12 44 18.667 76 20v12c-3.33301 3.33301 -5 7 -5 11l2 7l-7 7l6 5v63l6 10l-6 10v73l-2 1v162h-56c-6 5.33301 -11 11.333 -15 18l-2 13l2 13c4 5.33301 9.33301 10.666 16 15.999
c8 0 20 0.5 36 1.5s28.333 1.5 37 1.5l92 1c12 -8 18 -18.333 18 -31c0 -14 -6 -25 -18 -33h-51v-13c2 -6 3.33301 -14.333 4 -25z" />
    <glyph glyph-name="I" unicode="I" 
d="M429 14l1.00098 -9l2 1l-1 -1l-8 -13l-14 -8c-25.333 0 -63.5 -0.5 -114.5 -1.5s-88.833 -1.5 -113.5 -1.5l-48 -1c-5.33301 0 -16.333 2.33301 -33 7l-3 19l2 14c7.33301 12 15.666 20.333 24.999 25h108c0 112 0.666992 217.667 2 317l6 4v46h-1
c-11.333 -0.666992 -29 -2.16699 -53 -4.5s-42 -3.5 -54 -3.5h-67l18 18l-8 8c10.667 6.66699 17.334 11 20.001 13c7.33301 6 12 12.333 14 19c19.333 7.33301 45 11 77 11c7.33301 0 18 -1.33301 32 -4s24.667 -4 32 -4c5.33301 0 12.833 1.5 22.5 4.5
s17.167 4.5 22.5 4.5c11.333 0 20.666 -1.66699 27.999 -5c9.33301 0.666992 20 1 32 1c26 0 50 -2.66699 72 -8v-14c-4 -10 -7.33301 -20 -10 -30c-8.66699 -9.33301 -49.667 -13 -123 -11v-27c2.66699 -6.66699 4 -17.334 4 -32.001c-4 -2 -6 -3.33301 -6 -4
c0 -25.333 1 -64 3 -116s3 -90.667 3 -116l-4 -4v-17l4 -6v-16l-4 -5v-17c13.333 -1.33301 22.333 -2 27 -2h58c6.66699 3.33301 13.667 5 21 5c14 0 23.667 -7.66699 29 -23c4 -3.33301 6 -7.66602 6 -12.999h-6z" />
    <glyph glyph-name="J" unicode="J" horiz-adv-x="504" 
d="M112 179l-2 -1h2v0v1zM216 37c12 5.33301 22.0059 8.99902 30.0059 10.999c18.667 14 31.667 31.333 39 52l3 2l-1 304l-37 -1c-24 -0.666992 -45 2.66602 -63 9.99902l-2 17l2 13c6.66699 8 15 14.667 25 20c10.667 0 26.667 0.666992 48 2s37.333 2 48 2
c12.667 0 32 -0.666992 58 -2s45.333 -2 58 -2c10 -5.33301 20 -14 30 -26l-10 -10c-3.33301 -10 -9.33301 -18.667 -18 -26h-10c-8.66699 0 -21.167 0.833008 -37.5 2.5s-28.833 2.5 -37.5 2.5v-10l6 -4v-218c4.66699 -7.33301 7 -13.333 7 -18c0 -10 -0.333008 -20 -1 -30
l-3 -3c-3.33301 -20.667 -4.33301 -36 -3 -46c-6 -4.66699 -9.66699 -9.66699 -11 -15c-6.66699 -7.33301 -12.334 -19.333 -17.001 -36c-14.667 -10.667 -29.667 -22.334 -45 -35.001c-31.333 -10.667 -54.333 -16 -69 -16c-10.667 0 -22.834 1.83301 -36.501 5.5
s-26.834 6.83398 -39.501 9.50098c-6 6 -16 12.667 -30 20c-1.33301 5.33301 -4 9.66602 -8 12.999c-1.33301 4.66699 -4.33301 8.66699 -9 12c-0.666992 4.66699 -1.33398 8.66699 -2.00098 12l-14 23c-0.666992 6.66699 -3.33398 11.334 -8.00098 14.001v55l5 10
c0.666992 6 1.66699 13.667 3 23c4 4.66699 11.333 12.667 22 24l20 3l-2 -1l6 -1v4c6 -1.33301 14 -3.33301 24 -6l15 -13c0.666992 -5.33301 1.66699 -10.666 3 -15.999l6 -6v-22c-8.66699 -8 -23.667 -18 -45 -30c3.33301 -5.33301 5.66602 -11.666 6.99902 -18.999
c5.33301 -8 14.333 -20 27 -36c4.66699 -1.33301 14.667 -6.33301 30 -15z" />
    <glyph glyph-name="K" unicode="K" horiz-adv-x="498" 
d="M402 43l10.001 6h47l15 -8c3.33301 -8 5 -15 5 -21c0 -16 -12.667 -24.333 -38 -25v0h-24c-6.66699 -2.66699 -44.334 -4 -113.001 -4l-15 8c-1.33301 4 -5 10.333 -11 19c0 6.66699 5.33301 15.334 16 26.001c12 0.666992 24.333 2.66699 37 6l-3 2
c-3.33301 5.33301 -7.66602 13.333 -12.999 24l3 -2c-3.33301 4.66699 -6.66602 11.334 -9.99902 20.001c-12 12 -20 24.333 -24 37c-3.33301 3.33301 -6 7 -8 11l-4 4c-2 6 -3.66699 11.667 -5 17c-4 7.33301 -6.66699 14 -8 20c-2.66699 3.33301 -5 7 -7 11l-6 6l-2 11
l-12 11l4 4l-3 3c-2.66699 -4 -6.66699 -8.66699 -12 -14c-12.667 -16.667 -28 -38 -46 -64v-101c10 0 20.833 -0.5 32.5 -1.5s20.834 -4.83301 27.501 -11.5v-37l-18 -8c-84.667 -3.33301 -131.334 -5 -140.001 -5h-32v46l8 9c10 3.33301 30.667 6.33301 62 9l1 204l5 2
l-3 4v114l-2 1v31c-17.333 0.666992 -29.333 1.33398 -36 2.00098c-14.667 2 -25.667 5 -33 9c-2.66699 8 -4 14.667 -4 20c0 6.66699 1.66699 13 5 19l30 15h139l11 -7l6 -10l2 -14l-2 -16c-6 -6 -15.333 -9.33301 -28 -10c-18 -1.33301 -28.333 -2.33301 -31 -3v-173l4 5
l4 13c18 14.667 28.667 28 32 40c4 3.33301 6.66699 7.33301 8 12c4 3.33301 7 8 9 14c6.66699 3.33301 12 5.66602 16 6.99902l4 3c1.33301 4 3.66602 7.66699 6.99902 11c1.33301 5.33301 3.5 11 6.5 17s9.5 13.333 19.5 22c3.33301 6.66699 8.66602 13 15.999 19
c1.33301 4 4 8.33301 8 13h-21l-10 5c-5.33301 7.33301 -8 16.333 -8 27c0 6 1.33301 11.667 4 17l14 8h106c2.66699 -2 15.334 -3.33301 38.001 -4c12 -0.666992 21.333 -4.33398 28 -11.001l2 -12l-2 -12l-23 -22h-21l-5 4c-21.333 0 -36.333 -4.66699 -45 -14
c-2 -6.66699 -5.33301 -11.667 -10 -15c-10 -12 -21.333 -28.667 -34 -50c-10.667 -12.667 -28.334 -31.334 -53.001 -56.001l-3 -10l4 -11l-2 1l7 -8l2 -7l6 -5c0.666992 -4 3 -7.66699 7 -11l2 -6l14 -9c0.666992 -3.33301 4 -9 10 -17c0 -4.66699 4.66699 -11.667 14 -21
c5.33301 -10 12 -24.667 20 -44h-1l6 -9c1.33301 -5.33301 4 -11.333 8 -18c1.33301 -7.33301 5.83301 -17 13.5 -29s12.167 -20.667 13.5 -26l8 -5h5z" />
    <glyph glyph-name="L" unicode="L" horiz-adv-x="504" 
d="M298 430l2 1h-2v0v-1zM401 53l-0.000976562 2.99707c-3.33301 4.66699 -5 10.334 -5 17.001c0 4.66699 0.666992 10 2 16l5 3v66l7 3c1.33301 6.66699 2.33301 15.667 3 27l25 15h9c6.66699 -2.66699 13 -7 19 -13v-182c-8 -3.33301 -16 -9 -24 -17h-63l-4 4h-4
c-8.66699 0 -21.834 -1.33301 -39.501 -4s-30.834 -4 -39.501 -4c-15.333 0 -38.666 -0.333008 -69.999 -1s-54.666 -1 -69.999 -1l-60 -1c-8 0 -15.833 4 -23.5 12s-11.5 15.667 -11.5 23c0 23.333 15.667 35 47 35c13.333 0 24.333 -1.66699 33 -5
c6 2.66699 14 4.66699 24 6v82l6 3c0 5.33301 -0.666992 15 -2 29c-1.33301 12 -2 21.667 -2 29l1 3l-3 2c0 12 -0.666992 32 -2 60c-0.666992 25.333 -1 45 -1 59c-2.66699 6.66699 -3.66699 22 -3 46l4 4l-1 35c-55.333 0 -88.666 2.66699 -99.999 8l-2 18l2 21l14 13
c2.66699 0.666992 6 2.66699 10 6c20.667 0 52.167 0.666992 94.5 2s74.166 2 95.499 2h7c8.66699 -5.33301 22.334 -6.66602 41.001 -3.99902c6.66699 -5.33301 12 -10.666 16 -15.999l2 -16l-2 -14c-2.66699 -6 -7.66699 -11.333 -15 -16l-19 -3l2 1l-6 1v-3h-5
c-5.33301 2.66699 -10.333 4 -15 4c2.66699 0 -14 -1.33301 -50 -4v-39c2 -6.66699 3.33301 -29 4 -67l-4 -4v-8l6 -4v-232h167z" />
    <glyph glyph-name="M" unicode="M" 
d="M424 213l2.99707 -0.993164v-163c5.33301 -0.666992 23.333 -1.33398 54 -2.00098v-56h-158v54c10.667 0 26 0.666992 46 2v126l5 9l1 7l-1 -1v8l-3 4v14l5 6c1.33301 4.66699 2.33301 12.334 3 23.001l3 3l-3 3l-2 10l-6 6v18l6 6
c0.666992 3.33301 1.33398 7 2.00098 11l4 4l-4 4c-0.666992 10 -1.66699 18 -3 24l-5 5v14l5 5l-5 7l-1 13c-1.33301 -4.66699 -3.66602 -10.334 -6.99902 -17.001c-0.666992 -8 -2 -15 -4 -21l-6 -7c0 -6 -2.66699 -11.333 -8 -16v-2c0 -4 -0.666992 -9.66699 -2 -17
c-4.66699 -4.66699 -9 -8.33398 -13 -11.001v-31l-8 -4v-35l-8 -5c-1.33301 -4.66699 -2.33301 -13 -3 -25c-4.66699 -2 -7.33398 -6.66699 -8.00098 -14l-4 -4l-5 -22c-6.66699 -4 -14.667 -8 -24 -12h-5c-9.33301 0 -22 3.66699 -38 11
c-1.33301 6.66699 -4.33301 11 -9 13c-0.666992 8.66699 -1.66699 15.667 -3 21h1l-6 10l-4 24c-1.33301 3.33301 -3.66602 8.66602 -6.99902 15.999l2 -2c-4 6.66699 -7.66699 14.667 -11 24l3 -3c-4 4.66699 -7.33301 11.334 -10 20.001l-5 7l-4 22l2 -1l-6 9l-4 20l2 -1
c-4 4 -7.33301 9.66699 -10 17l2 -1l-6 7c-2 6.66699 -3.33301 13.334 -4 20.001l1 -1l-1 8c-2 1.33301 -3.33301 3.33301 -4 6c1.33301 -11.333 1 -17.333 -1 -18c3.33301 -4.66699 5.33301 -18 6 -40l-4 -4v-18c2 -6 3.33301 -12 4 -18l-5 -5v-2
c0 -2 0.833008 -5.33301 2.5 -10s2.5 -8.33398 2.5 -11.001l-4 -4v-30l4 -6v-20l2 -1v-144c10.667 -0.666992 25.334 -2.33398 44.001 -5.00098l9 -9l2 -14l-2 -13c-6.66699 -8.66699 -15.334 -15.334 -26.001 -20.001h-121l-24 7l-3 11c0 8 2 14.333 6 19
c1.33301 4 2.66602 11.333 3.99902 22c13.333 -1.33301 23 -2 29 -2c6.66699 0 12.667 0.666992 18 2v36l5 5l-1 4l-10 10l9 9l-3 3v65l3 4l2 13l-2 1l2 19l-1 -1l1 4l-1 3l1 -1v0c-3.33301 15.333 -5 35 -5 59c0 16 0.5 38.833 1.5 68.5s1.5 49.5 1.5 59.5
c-9.33301 -0.666992 -16.666 -1 -21.999 -1c-25.333 0 -38 9.66699 -38 29c0 14 9 25 27 33c4.66699 0 12 0.666992 22 2s17.667 2 23 2c3.33301 0 7 -1.66699 11 -5c18 0 35.667 -1.33301 53 -4l14 -14l3 -20l-1 1l6 -8c0.666992 -2 3.33398 -4.33301 8.00098 -7l4 -30
l-2 1l6 -9l3 -20c4 -4 6.66699 -9.33301 8 -16l5 -6c1.33301 -7.33301 2.66602 -16.333 3.99902 -27c4.66699 -6 7.33398 -12.667 8.00098 -20l-2 1l6 -7c2 -7.33301 3.33301 -14.666 4 -21.999l-2 1l6 -7c2 -5.33301 3.66699 -10.833 5 -16.5s4 -12.834 8 -21.501
c0 1.33301 4 6.66602 12 15.999c2 7.33301 3.33301 18.666 4 33.999c0.666992 0.666992 6.66699 11 18 31l2 -1c1.33301 0 2 2 2 6c5.33301 0 8 0.666992 8 2c-1.33301 2.66699 -2 6 -2 10l-7 -3l-1 -3c2 16.667 8 29 18 37v46l8 4c0 4.66699 1 11.667 3 21
c4 1.33301 6.66699 4.66602 8 9.99902c4 3.33301 6.66699 7.33301 8 12l1 1l-9 9c18 14 48.667 21 92 21v-1h3l28 -1l17 -8l2 -16l-2 -18l-15 -14h-14c3.33301 0 -4.66699 1 -24 3l-5 -6l2 -4c5.33301 -48 8.33301 -69 9 -63l-4 -4l4 -3v-29l-5 -5l5 -5v-21l-4 -5v-26
c2 -4.66699 3 -14.667 3 -30z" />
    <glyph glyph-name="N" unicode="N" 
d="M395 292l-1 -1l1 1v0zM342 93l-2.00098 -2c0.666992 -0.666992 1.33398 -1 2.00098 -1h1c-0.666992 0.666992 -1 1.66699 -1 3zM160.999 406h-1l2 -4zM161.999 125l4.99902 -7.99805v-16l-5 -6v-2c0 -2.66699 0.833008 -5.66699 2.5 -9
s1.83398 -7.66602 0.500977 -12.999c2 -5.33301 3.33301 -11.333 4 -18h44l11 -7l6 -10l2 -12l-2 -14c-13.333 -12.667 -33 -17.667 -59 -15l-4 -3l-31 -1c-24.667 -0.666992 -53.667 3 -87 11l-2 20l2 16c6.66699 6 16.667 10 30 12c13.333 2.66699 24.333 2.66699 33 0
v173l2 1v195h-57c-6 4 -11.333 9.33301 -16 16v12c9.33301 14.667 26 22 50 22c12.667 0 23 -3 31 -9c3.33301 -4.66699 5.33301 -9.33398 6 -14.001l3 -3c-2.66699 6.66699 -4.66699 16.334 -6 29.001h56c8 -5.33301 15 -16.333 21 -33l-2 2
c3.33301 -4.66699 6.33301 -10.667 9 -18c4 -4 7 -10 9 -18l-2 1l6 -7c1.33301 -4.66699 2.66602 -10.667 3.99902 -18l-2 1c4 -3.33301 7 -9 9 -17c3.33301 -2.66699 6.33301 -8 9 -16c4 -5.33301 6.66699 -13.666 8 -24.999
c3.33301 -5.33301 5.66602 -10.666 6.99902 -15.999l4 -3l5 -12l5 -5c0.666992 -8.66699 1.66699 -15 3 -19l5 -5l2 -11l6 -5c0.666992 -8 1.66699 -14.333 3 -19h-1l7 -11v-17l-3 -3l4 1c8 -2.66699 16.333 -10.834 25 -24.501s14 -25.167 16 -34.5h-1l6 -9l2 -7v61l-2 -1
c1.33301 7.33301 2 13 2 17v0l2 11l3 2l-3 3l-2 9l-6 8v28l4 7c-2.66699 4 -4 7.66699 -4 11s1.33301 7.33301 4 12v25c-3.33301 6 -4.66602 13 -3.99902 21l4 4l-10 9l6 5v23l6 11c-4.66699 0.666992 -8 10 -10 28c-10.667 2.66699 -27 2.33398 -49 -0.999023
c-1.33301 4 -5.33301 13.667 -12 29c0 10 5.66699 18.333 17 25c44 6.66699 63.333 10 58 10c10.667 0 27 -1.5 49 -4.5s38.833 -4.5 50.5 -4.5s17.5 -8.66699 17.5 -26l-2 -13c-8.66699 -8.66699 -19.167 -13.334 -31.5 -14.001l-36.5 -2c0 -76.667 -0.333008 -117 -1 -121
l3 -4l3 -10l-3 -12l-4 -3v-48l-8 -5l-1 -2l4 -2c2.66699 -7.33301 4.66699 -13.666 6 -18.999c4 -4 6 -10 6 -18l-5 -5v-2c3.33301 -4.66699 5 -10.334 5 -17.001c0 -7.33301 -1.66699 -13 -5 -17v-2c2 -4 3.66699 -8.33301 5 -13l-2 -7h1v-94
c-4 -6.66699 -9.66699 -12.334 -17 -17.001h-32c-2 4 -8.66699 10 -20 18c-0.666992 7.33301 -2.83398 14.666 -6.50098 21.999s-7.83398 17.666 -12.501 30.999c-4 3.33301 -7 9.66602 -9 18.999l2 -2c-3.33301 4.66699 -6.33301 10.667 -9 18c-4 4 -6.66699 9.66699 -8 17
c-4 4.66699 -7 13 -9 25l2 -1l-6 10c-2 8 -2 16.333 0 25h-10c-10.667 13.333 -16.667 26.666 -18 39.999l-13 16l-2 25c-3.33301 4 -7.66602 8.33301 -12.999 13c-1.33301 4.66699 -4.33301 8.33398 -9 11.001c0 4.66699 -1 11.667 -3 21l-4 5
c-1.33301 4 -3.66602 7.33301 -6.99902 10l-13 34c-0.666992 0.666992 -5 7 -13 19l-4 22l-2 3l3 -5v-12l-4 -5l-1 1l5 -8v-21l-4 -4v-171c2.66699 -4.66699 4 -11 4 -19l-5 -5c0.666992 -1.33301 2.33398 -3.33301 5.00098 -6v-16l-4 -5z" />
    <glyph glyph-name="O" unicode="O" 
d="M411 367l8.99805 -5.00098v-36c2 -5.33301 6.66699 -12.333 14 -21v-131c-3.33301 -1.33301 -8 -3.66602 -14 -6.99902v-4l6 -5v-21c-4.66699 -2 -7.66699 -8 -9 -18l-5 -4l-4 -16c-6.66699 -6 -14.334 -16.333 -23.001 -31
c-3.33301 -5.33301 -7.66602 -11.333 -12.999 -18c-3.33301 -10.667 -13 -21 -29 -31l-9 1l-11 -11l-12 -4v1l-7 -6c-15.333 -6 -35 -9 -59 -9c-4.66699 0 -19.5 3.66699 -44.5 11s-41.167 12.333 -48.5 15c-10 10 -22.333 20.667 -37 32l-4 13l-4 4
c-1.33301 4.66699 -6.66602 9.66699 -15.999 15l-2 7c-2.66699 2.66699 -5 5.66699 -7 9l-3 26l1 -1l-6 9c0 4 -2.33301 7.33301 -7 10l-4 22l-11 10l6 5c0 -2 -0.666992 8.33301 -2 31c-0.666992 19.333 -0.666992 34.666 0 45.999c0.666992 16 3 26 7 30
c2.66699 6.66699 6.33398 17 11.001 31l6 10c0 6.66699 0.666992 14 2 22l6 10l2 17l6 8c0.666992 4 1.33398 9 2.00098 15c4.66699 3.33301 8 7.66602 10 12.999c3.33301 2.66699 5.66602 6.33398 6.99902 11.001c10 10.667 25.667 24.667 47 42l9 2l6 5l35 12v-1l9 6
c4.66699 0.666992 10 2.33398 16 5.00098h4c5.33301 0 13 -0.666992 23 -2s17.667 -2 23 -2c12.667 -8 32.667 -18 60 -30l37 -37c1.33301 -4.66699 4.33301 -8.66699 9 -12l2 -19l14 -14zM391.998 224.999c-7.33301 10.667 -10.998 18.333 -10.998 23
c0 3.33301 1.33301 7.33301 4 12v0l2 -1l-6 10l-4 24c-3.33301 5.33301 -6 10.666 -8 15.999c-2.66699 2.66699 -5 8 -7 16l-4 4c-2.66699 11.333 -5 18.5 -7 21.5s-8 7.83301 -18 14.5l5 6l-14 14c-0.666992 4.66699 -4.66699 9.33398 -12 14.001c-12 18 -30 26.667 -54 26
h-4c-0.666992 -0.666992 -10 -1 -28 -1c-9.33301 -4.66699 -21.666 -9.66699 -36.999 -15c-3.33301 -3.33301 -5.33301 -7.33301 -6 -12c-4.66699 -7.33301 -12 -17 -22 -29c-0.666992 -3.33301 -1.33398 -7 -2.00098 -11l-6 -5
c-0.666992 -3.33301 -1.33398 -7.33301 -2.00098 -12c-4.66699 -3.33301 -7.66699 -7.33301 -9 -12l-11 -11v-118c3.33301 -8 5.66602 -15.667 6.99902 -23l5 -6c2 -10.667 4.16699 -21.167 6.5 -31.5s7.83301 -19.166 16.5 -26.499c2 -10 9.66699 -20.333 23 -31l3 -6
c29.333 -12 45 -18 47 -18h27c2 0 13.333 4.33301 34 13l5 6c10 3.33301 15.667 5.33301 17 6c6 2.66699 9.66699 7 11 13l3 4l5 21c7.33301 6.66699 11.333 10.667 12 12c1.33301 5.33301 3 10.666 5 15.999l3 3c2 8 4.66699 14.333 8 19c0.666992 10 2.66699 19.667 6 29
l11 6l3 16z" />
    <glyph glyph-name="P" unicode="P" 
d="M436 394l5 -5.00098c0.666992 -4 5.66699 -10.667 15 -20l4 -16l6 -5v-71l-6 -5l-4 -16c-14 -16.667 -23 -26.667 -27 -30c-10.667 -10 -22.334 -17.333 -35.001 -22c-4 -8.66699 -13 -16.334 -27 -23.001c-8 0 -20.333 -1.5 -37 -4.5s-29 -4.5 -37 -4.5l-91 2v-66l-4 -1
l2 -2v-12l-2 -1c2.66699 -12.667 3.66699 -23 3 -31c16.667 -3.33301 37 -4.66602 61 -3.99902c8.66699 -3.33301 17.667 -10 27 -20v-28c-18.667 -12 -39.334 -18 -62.001 -18h-161c-9.33301 6.66699 -17.333 15 -24 25v16c2.66699 4 5.33398 7.33301 8.00098 10
c16 6.66699 42.333 12.334 79 17.001v139h1l-1 1v217c-21.333 -1.33301 -32.666 -2 -33.999 -2c-21.333 0 -39 6.33301 -53 19l-2 14l2 15c12.667 9.33301 22 14 28 14h77c3.33301 0 8.33301 -1.33301 15 -4c14 0 36 1.5 66 4.5s52.333 4.5 67 4.5
c12.667 0 38 -6.33301 76 -19c9.33301 -10 24 -23 44 -39l2 -5c8.66699 -4.66699 15 -12.667 19 -24zM198 236.999c53.333 0 85.9971 0.334961 97.9971 1.00195c48.667 5.33301 74 18.666 76 39.999c3.33301 4.66699 7.66602 9.33398 12.999 14.001
c0.666992 6.66699 2.33398 13.667 5.00098 21l3 2v25c-4.66699 7.33301 -6.66699 20.666 -6 39.999c-3.33301 3.33301 -5.66602 6.33301 -6.99902 9c-4.66699 1.33301 -11.667 4 -21 8c-3.33301 7.33301 -12.666 12 -27.999 14l-4 4c-8 0 -20.667 0.5 -38 1.5
s-30.666 1.5 -39.999 1.5l-48 1c-2 -1.33301 -4.66699 -4 -8 -8h-5c4.66699 -4.66699 10.667 -9.33398 18 -14.001l-7 -8l3 -7l2 -2l-2 -19l1 4l1 -1c2 -6 3.33301 -22.333 4 -49l-6 -4v-38l-7 -2l1 -7l-3 1l7 -11v-16z" />
    <glyph glyph-name="Q" unicode="Q" 
d="M366 299l-3.99805 2.00195l-4 3c-2 0 -6.66699 -0.666992 -14 -2c-1.33301 4.66699 -5 10.667 -11 18c-0.666992 4 -3.33398 9.33301 -8.00098 16l-3 13c-4.66699 4 -7.66699 9.66699 -9 17l-42 38c-4 0 -9.66699 0.833008 -17 2.5s-13 2.5 -17 2.5
c-2.66699 -2.66699 -12.667 -6.33398 -30 -11.001c-14.667 -4 -23.667 -8.66699 -27 -14c-4 -2.66699 -10.333 -6.33398 -19 -11.001l-2 -10c-10.667 -11.333 -15.667 -21.666 -15 -30.999h-4l-20 -21l-8 8c-6 -8.66699 -9.66699 -16 -11 -22
c-3.33301 -2 -5.66602 -5.33301 -6.99902 -10l2 -7l-3 -10l-4 -5v-67c4.66699 -10 7.66699 -21 9 -33c3.33301 -3.33301 6 -11.333 8 -24l-2 1c4 -3.33301 7 -9 9 -17c2 -1.33301 4.66699 -5.33301 8 -12l4 9l3 3c5.33301 17.333 18 30.666 38 39.999
c17.333 8 36.333 11.667 57 11l23 -1c22 -8.66699 41 -21 57 -37l4 -12h-1l6 -10l2 -12c3.33301 4 7.66602 10.667 12.999 20c2.66699 1.33301 4.66699 6.33301 6 15c3.33301 2 5.66602 7.66699 6.99902 17c5.33301 7.33301 10 13 14 17v78l3 2l-1 2v18l5 5l5 21v0z
M338.002 18.002l-6.99805 7.00195l-4 -17l-2 -3v-5c0 -6.66699 1 -16.667 3 -30s3 -23.333 3 -30c3.33301 -4.66699 6 -10 8 -16c2.66699 -2 10 -4 22 -6l7 -6l5 21l13 9l4 12l3 3c1.33301 5.33301 3 11 5 17l4 3c1.33301 5.33301 3.33301 11 6 17
c15.333 3.33301 24.333 5 27 5h6c6.66699 -4.66699 15 -12.334 25 -23.001v-21l-6 -7l-4 -19c-3.33301 -1.33301 -5.66602 -7.33301 -6.99902 -18c-4.66699 -3.33301 -7.66699 -7.33301 -9 -12c-5.33301 -4.66699 -11.666 -12.667 -18.999 -24
c-28.667 -6.66699 -52.334 -10 -71.001 -10c-22.667 0 -44 7 -64 21c-2.66699 6 -4.66699 12.333 -6 19c-2 2 -4.66699 5.33301 -8 10l2 -1l-8 12v61c-4.66699 -3.33301 -7.33398 -5 -8.00098 -5c-39.333 0 -71.333 4.33301 -96 13
c-18.667 11.333 -45.334 31.666 -80.001 60.999c-1.33301 6.66699 -4 12.667 -8 18l-2 9l-14 23c-1.33301 7.33301 -2.66602 16.333 -3.99902 27l-4 5l-3 19l-5 5v127l4 5l4 23l4 5l4 23l6 7c0.666992 2.66699 1.66699 7 3 13c3.33301 2 5.66602 8.33301 6.99902 19
c4.66699 3.33301 7.66699 7.33301 9 12c13.333 11.333 21.333 22 24 32c23.333 17.333 41.333 29 54 35c18 8 39 12 63 12c26.667 0 60 -10.667 100 -32c1.33301 -2 7.33301 -8 18 -18l-2 3c8 -9.33301 18.333 -24 31 -44c3.33301 -3.33301 6 -9 8 -17l5 -4
c3.33301 -14 6.66602 -35.333 9.99902 -64c4.66699 -1.33301 10 -4.33301 16 -9v-15l-5 -5v-8c-0.666992 -6 3.66602 -12.667 12.999 -20v-15l-6 -6v-53l-9 -5l-7 -16h-7c0.666992 -16.667 -2.66602 -27 -9.99902 -31v-43l-4 -3c2 -4 3 -10 3 -18c-10.667 0 -19 -1 -25 -3
l-3 -4c1.33301 -4.66699 2.33301 -8.66699 3 -12zM172.004 58.0039c16.667 -7.33301 30.999 -10.999 42.999 -10.999h12c14 0 26.333 3 37 9v34c-3.33301 3.33301 -5.66602 6.66602 -6.99902 9.99902l-13 12l-16 5l-13 -4c-8.66699 -10.667 -21 -17.667 -37 -21h32
c-11.333 -7.33301 -23 -18 -35 -32z" />
    <glyph glyph-name="R" unicode="R" 
d="M387 56v-2l1 2h-1zM173 208l4 1.99902c-1.33301 0.666992 -3 1.33398 -5 2.00098v-1c0 -0.666992 0.333008 -1.66699 1 -3zM281 234.999c2 2.66699 5.66699 6.00098 11 10.001c14 0 29 5 45 15s25 21.333 27 34l5 5c1.33301 4 2.33301 8.33301 3 13l5 6v28l-5 6l-3 19
l-5 5c0 5.33301 -0.666992 10.333 -2 15l-6 2l-7 6l-13 4c-2.66699 3.33301 -8.16699 7.16602 -16.5 11.499s-14.833 6.5 -19.5 6.5l-89 -1c-12 0 -23 -1 -33 -3c2 -20 2.66699 -62.667 2 -128c2.66699 -6 4 -12 4 -18l-4 -4v-19h22c34 0 60.333 -2 79 -6v-7zM402 415
l12.9961 -3.99707c2 -6.66699 5.33301 -11.667 10 -15c0.666992 -4.66699 3.33398 -8.66699 8.00098 -12l2 -12l7 -6v-71c-4.66699 -4.66699 -7.66699 -11.334 -9 -20.001c-2 -2 -5 -6.66699 -9 -14c-4 -3.33301 -6.66699 -7 -8 -11
c-25.333 -26.667 -52.666 -42.667 -81.999 -48c5.33301 0 9.66602 -5.33301 12.999 -16c18 -16.667 28.667 -31.667 32 -45l5 -4c1.33301 -6 2 -12 2 -18c0 -10.667 -0.666992 -16.667 -2 -18c3.33301 -16.667 4.66602 -30.334 3.99902 -41.001l3 -2l15 -3
c14.667 2.66699 23.334 4 26.001 4c23.333 -11.333 35 -24 35 -38l-3 -17c-16.667 -4 -28 -6 -34 -6l-64 -1c-3.33301 0 -9 3.33301 -17 10c-1.33301 5.33301 -4 9 -8 11c-0.666992 4 -3.66699 9.33301 -9 16v20l4 6v2l-6 21c-4.66699 4 -6.66699 10 -6 18l4 6v2l-6 14l-6 7
l-3 19l1 -1c-9.33301 12 -25 24 -47 36l13 12h-9v5l-7 -6h-86v-144h60l11 -7c4.66699 -6 7.33398 -12 8.00098 -18l-3 -10c-9.33301 -12 -17.666 -18 -24.999 -18l-167 -4c-8.66699 -0.666992 -18 4 -28 14l-2 16l2 16c13.333 13.333 42.666 18.666 87.999 15.999l-1 4l2 10
v1v136l2 3l-4 3v201l-71 7c-6 2.66699 -11.333 8 -16 16v16c4.66699 8 10 13.333 16 16l26 4l-1 -2l11 6l27 1c9.33301 0 22.833 -0.666992 40.5 -2s30.834 -2 39.501 -2s21.667 0.833008 39 2.5s30.333 2.5 39 2.5c54.667 0 98.334 -16.333 131.001 -49v-15z" />
    <glyph glyph-name="S" unicode="S" 
d="M174 380l3.00098 -55.999l12 -15c17.333 -8.66699 33.666 -16.334 48.999 -23.001c53.333 -0.666992 103.666 -14 150.999 -40c1.33301 -5.33301 9.66602 -15.333 24.999 -30l3 -20l-1 1l6 -9l2 -8l7 -6v-76c-3.33301 -6.66699 -7.66602 -13 -12.999 -19l-5 -19
c-11.333 -7.33301 -23.333 -17.666 -36 -30.999c-10 -3.33301 -19 -7.66602 -27 -12.999l-10 -2c-10 -10 -30.333 -15 -61 -15c8 0 -16.333 3 -73 9c-4.66699 2.66699 -11.667 7 -21 13c-12.667 4.66699 -19 11.334 -19 20.001l-2 -6c-4.66699 6.66699 -12 15 -22 25v-24
l-9 -12l2 1l-7 -10c-7.33301 -4.66699 -17.333 -10 -30 -16h-18c-0.666992 5.33301 -1.33398 10.333 -2.00098 15s-3 8 -7 10v32l5 7l3 13l6 8v4c0 4.66699 0.666992 11 2 19l6 5v90l20 9h18c9.33301 -7.33301 15.333 -14.666 18 -21.999c2.66699 -2 6.66699 -7 12 -15
l-2 -1v-33l4 -4c1.33301 -4.66699 6.66602 -11.334 15.999 -20.001c1.33301 -6.66699 5.66602 -13.167 12.999 -19.5s14.333 -10.166 21 -11.499l7 -6c6.66699 -2 15.667 -5.33301 27 -10h1c40 0 71.333 5.33301 94 16l4 15c1.33301 1.33301 6.33301 7 15 17l-2 -1
c2 4.66699 4.33301 8.33398 7 11.001v45c-3.33301 5.33301 -6 10.666 -8 15.999c-10.667 11.333 -19.667 19.166 -27 23.499s-21.666 7.16602 -42.999 8.49902c-24 1.33301 -40 3.33301 -48 6c-18.667 6.66699 -40.334 12 -65.001 16l-5 4
c-12 2.66699 -19.333 8.66699 -22 18l-21 20l-3 12l-5 5c-0.666992 8.66699 -1.66699 15 -3 19l-5 6v60c4 2.66699 6.66699 10.334 8 23.001l5 5c1.33301 4 2.33301 8.33301 3 13l14 11c5.33301 18 21.333 33 48 45c22.667 10 45 15 67 15c17.333 0 36 -3.66699 56 -11l3 -3
c10 -2.66699 17.333 -7.83398 22 -15.501s8.33398 -11.5 11.001 -11.5l1 1l5 22c14 9.33301 25.667 14 35 14l14 -3c2.66699 -6 6.66699 -12 12 -18v-43c-5.33301 -4 -8.66602 -8.33301 -9.99902 -13l-4 -4v-75c-6.66699 -6.66699 -16 -13 -28 -19h-9
c-12 0 -21.667 3.66699 -29 11v34l-6 5c-0.666992 7.33301 -1.66699 13.666 -3 18.999h1c-2.66699 5.33301 -9.33398 13.666 -20.001 24.999c-27.333 10 -44.666 15 -51.999 15c-13.333 0 -33.666 -5 -60.999 -15c-3.33301 -3.33301 -5.66602 -8.33301 -6.99902 -15
c-4.66699 -2 -7 -5 -7 -9z" />
    <glyph glyph-name="T" unicode="T" 
d="M430 417c-5.33301 0.666992 -8.66699 1 -10 1l7 -5l3 1v3zM380.999 1l-60.9971 0.000976562l2 2c-30 -4.66699 -79 -7 -147 -7c-1.33301 0 -2 0.333008 -2 1l-49 4l-23 23l26 14h94v285l4 2l-2 3v12l4 7l-4 4v49l5 9c-3.33301 4.66699 -5.33301 11 -6 19
c-8 0 -24 -0.666992 -48 -2c-20.667 -1.33301 -37 -2 -49 -2l-5 -6c2.66699 -3.33301 4 -7.33301 4 -12l-3 -11l2 -2v-38l-4 -4v-3l4 -6c0 -6.66699 -1.33301 -11.667 -4 -15v-1l-4 1v0l3 -4l4 -6l2 -14l-2 -13l-6 -10l-3 -25h-18c-10 4.66699 -18.333 11 -25 19v162
c8.66699 6 19 14.667 31 26l124 -1c7.33301 0 18.166 -0.666992 32.499 -2s25.166 -2 32.499 -2l-1 -4c5.33301 1.33301 13 4.33301 23 9h8c2.66699 0 6.16699 -0.666992 10.5 -2s7.5 -2 9.5 -2l7 -4c6.66699 5.33301 11.667 8 15 8h39c5.33301 0 15 -3 29 -9v-36l3 -1
l-3 -2v-8c0 -2.66699 0.666992 -6.83398 2 -12.501s2 -9.5 2 -11.5l6 -5v-91c0 -12 -2 -23.667 -6 -35h-29c-4 0 -11.333 3 -22 9c0 20.667 -0.5 48 -1.5 82s-1.5 62.333 -1.5 85c-5.33301 0 -13.333 -0.333008 -24 -1s-18.667 -1 -24 -1c-11.333 0 -26.333 7 -45 21l-4 -12
l-4 -4v-190l-4 -2l2 -2v-18l-2 -2l4 -2v-49l6 -6v-18l-4 -4v-97c24 -2.66699 49.667 -3.66699 77 -3v-1l4 2h14c5.33301 0 14.666 -5.33301 27.999 -16z" />
    <glyph glyph-name="U" unicode="U" 
d="M393 229l4.99902 -4.99902l-6 -5c1.33301 -6 2 -11 2 -15l-2 -4l6 -5l-5 -5v-119c-4.66699 -2 -16.667 -17.667 -36 -47l-54 -27h-80c-3.33301 0 -13.666 3.33301 -30.999 10c-10.667 6 -23.667 18 -39 36c-3.33301 3.33301 -6.33301 7.33301 -9 12l-4 5l-3 10l2 11h1
l-4 11c-2 2 -3.66699 4.66699 -5 8l1 304c-2 6 -2.66699 11.667 -2 17c-18.667 -2.66699 -31.667 -4 -39 -4l-41 20l50 13h165c-26 -20 -51.667 -31 -77 -33v-353l10 -12c1.33301 -4.66699 7.16602 -10 17.499 -16s17.833 -9 22.5 -9h54c6.66699 0 19 8.33301 37 25l4 18
l5 3v130l8 4v107l6 5l-4 5v23l4 1l-4 5v23c3.33301 2 5 3.33301 5 4c0 2 -0.833008 5.5 -2.5 10.5s-2.5 8.83301 -2.5 11.5l4 5v2c0 0.666992 -1 4.66699 -3 12h-57v24l13 6c8 -2.66699 22.333 -11.334 43 -26.001v4c8 11.333 23.667 18.333 47 21c0 -14 -1 -26.333 -3 -37
c-2 -6.66699 -1.66699 -15.667 1 -27v-40l-2 -1c4.66699 -10 4.33398 -20 -0.999023 -30l3 -2v-84z" />
    <glyph glyph-name="V" unicode="V" horiz-adv-x="499" 
d="M423 452l2 1h-2v0v-1zM325 490c6 2.66699 11 4.00098 15 4.00098h93c8 0 17.333 -5 28 -15l2 -15l-2 -14c-2.66699 -6.66699 -7.66699 -12.334 -15 -17.001l-19 -3l2 1l-6 1v-3c-2.66699 0 -6.66699 0.666992 -12 2s-9.33301 2 -12 2
c-7.33301 0 -12.666 -1.66699 -15.999 -5v-43l-8 -4v-44l-7 -4c-1.33301 -5.33301 -3 -10 -5 -14l-5 -6v-3c0 -4.66699 -0.666992 -9.33398 -2 -14.001c2 -6.66699 2 -12 0 -16c-3.33301 -4.66699 -6.33301 -9.33398 -9 -14.001c2 -3.33301 3 -7.66602 3 -12.999l-3 -9
l-17 -12l3 -4v-25l-7 -11c0 -6.66699 -0.666992 -15.667 -2 -27l-5 -5v-41l-8 -4v-48l-6 -4c0 -20.667 -12 -41 -36 -61c-9.33301 -0.666992 -16.333 -1 -21 -1c-20.667 0 -37 8 -49 24l-4 26l-6 4v32c-6 8 -8.66699 23.333 -8 46c-4.66699 3.33301 -9 7.33301 -13 12
c-3.33301 11.333 -5.33301 21.666 -6 30.999c-4 7.33301 -5.66699 22 -5 44c-4.66699 6.66699 -7.33398 19 -8.00098 37l-6 4c-0.666992 4.66699 -2.66699 14.667 -6 30c-2.66699 12.667 -4 22.667 -4 30c-16.667 24 -24.667 52.333 -24 85
c-5.33301 6.66699 -8.33301 13.334 -9 20.001c-13.333 1.33301 -31.666 2.33301 -54.999 3l-15 14l-2 14l2 14l8 8l12 4l6 -2l1 1c16 8.66699 35.667 13 59 13c51.333 0 85.333 -6.33301 102 -19l3 -12l-2 -13l-14 -14c-10.667 -1.33301 -23 -3.33301 -37 -6v-28l3 -6
c1.33301 -8 6 -16 14 -24l-10 -10c4.66699 -1.33301 9.66699 -4.66602 15 -9.99902v-33c4 -6.66699 6.33301 -19.667 7 -39l6 -9l4 -26l-2 1l6 -9c0.666992 -4 2.66699 -12.667 6 -26c3.33301 -10.667 5 -19.334 5 -26.001c10 -23.333 15.333 -46 16 -68
c4 -7.33301 6.66699 -13.666 8 -18.999v4l8 4v32l8 4v33l6 2l4 22l4 5c0.666992 8.66699 2.33398 17.334 5.00098 26.001l11 9c0.666992 8 2 15.667 4 23l5 6c-1.33301 5.33301 -2 10.333 -2 15c0 8.66699 0.666992 13.334 2 14.001l4 16l5 5v58l8 4v32l9 4l1 6l4 5l-1 4
l-42 1l-14 7c-2.66699 5.33301 -4 11.666 -4 18.999c0 11.333 2.33301 20.666 7 27.999c7.33301 5.33301 13.666 8 18.999 8c3.33301 0 8.16602 -0.833008 14.499 -2.5s10.833 -2.5 13.5 -2.5z" />
    <glyph glyph-name="W" unicode="W" horiz-adv-x="499" 
d="M352 453v7v-7zM375 436l-0.00292969 1.00195l-22 -2c0 -0.666992 -0.333008 -0.666992 -1 0c-13.333 0 -23 6.33301 -29 19v8c0 5.33301 1 11.333 3 18c15.333 8 26.666 12 33.999 12l63 -1c6.66699 0 16.167 -0.5 28.5 -1.5s21.5 -1.5 27.5 -1.5
c0.666992 -4.66699 4.33398 -10.334 11.001 -17.001v-23c-14.667 -10.667 -34 -15.334 -58 -14.001l-3 -5v-74c3.33301 -4.66699 5 -8.33398 5 -11.001c0 -4 -2.33301 -8 -7 -12c-1.33301 -5.33301 -3 -10.333 -5 -15l-3 -2v-61c-0.666992 -0.666992 -1 -1.66699 -1 -3
c0 -4 -2.33301 -8.33301 -7 -13v-45l-8 -4v-119l-2 -2v-7l-5 -6c-0.666992 -7.33301 -2 -14 -4 -20l-6 -7v-2c0.666992 -6.66699 -5.33301 -14.334 -18 -23.001h-6c-14 0 -30.667 4.66699 -50 14c-2 4 -6 9.33301 -12 16c-0.666992 6 -2 12 -4 18l-7 5v32
c-6 8 -8.66699 21.333 -8 40c-6 8 -8.66699 21.667 -8 41l-6 5l-4 28l-6 4v36l-6 5l-4 28l2 -1l-6 9l-1 5v-42l-7 -4l-4 -23l-5 -5v-42l-8 -4v-60l-8 -4v-31l-5 -3v0l-6 -19l3 2c-0.666992 -7.33301 -2.33398 -15.666 -5.00098 -24.999l-4 -3
c-1.33301 -5.33301 -3.66602 -11.333 -6.99902 -18h-55c-3.33301 1.33301 -12.333 7 -27 17v32c-6.66699 6 -9 12.667 -7 20l-1 1c0 17.333 -1.33301 42.166 -4 74.499s-4 56.833 -4 73.5c-6.66699 10 -10 43 -10 99c-4.66699 10.667 -6.66699 24.667 -6 42l-9 4v54
c-11.333 2 -26 5 -44 9l-10 7v35c16.667 8.66699 28.667 13 36 13l64 -1c23.333 0 39.333 -2.66699 48 -8c11.333 -7.33301 19 -22 23 -44h-59v-38c4 -7.33301 6 -18.666 6 -33.999c-4 -2 -6 -3.33301 -6 -4l1 -2c4 -7.33301 6.33301 -30 7 -68
c4.66699 -8 7.33398 -30.667 8.00098 -68c4.66699 -8 7.33398 -27 8.00098 -57c4 -6 6.33301 -17.333 7 -34l2 11l4 5l5 29l5 4v34l8 4v38l7 2l5 27l5 4v33l6 4c0.666992 8 2.33398 16 5.00098 24l4 4c3.33301 8.66699 9.66602 15.667 18.999 21l13 1
c11.333 0 28 -7.66699 50 -23v-34c4 -6.66699 6.33301 -23 7 -49c4 -4 7 -8.33301 9 -13l5 -5c4.66699 -17.333 11.334 -43.666 20.001 -78.999l7 -5v5l8 4v66l-6 5l14 9v37l8 4v74l-6 5l14 9v51h5z" />
    <glyph glyph-name="X" unicode="X" 
d="M309 379v0v0zM351 468l-6 10.9971c8.66699 4.66699 18 7 28 7c13.333 0 30.666 -5.66699 51.999 -17l4 -7l3 -1h40c-17.333 -25.333 -36 -38 -56 -38c-4 0 -9.66699 0.5 -17 1.5s-12.666 1.5 -15.999 1.5c-8 0 -15.333 -1.66699 -22 -5
c-3.33301 -3.33301 -6.66602 -7.66602 -9.99902 -12.999c-6.66699 -4.66699 -11.667 -8.66699 -15 -12l7 -6l-10 -16l-8 -5l-4 7l-5 -8v0c0.666992 -3.33301 3.33398 -6 8.00098 -8v-22l-13 -13l-5 -26c-4 -2.66699 -6.66699 -6 -8 -10l-4 -5l-3 -14
c-2 -2 -4.33301 -4.66699 -7 -8l-2 -5l-4 -4l-4 -19l-7 -3c6 -4 14 -10 24 -18l2 -11l6 -7c1.33301 -7.33301 7 -17 17 -29s16 -21.667 18 -29h-1l22 -30c3.33301 -6.66699 7.33301 -17.334 12 -32.001l6 -9l18 -8h3c6 6 14.333 9 25 9l11 -2
c12.667 -12.667 20 -21.167 22 -25.5s4 -15.5 6 -33.5c-12.667 0 -32 -0.833008 -58 -2.5s-45.333 -2.5 -58 -2.5c-8 0 -20 0.666992 -36 2s-27.667 2 -35 2c-8 6 -13.667 12.333 -17 19v14l7 13c4 2 16.333 6 37 12c-2.66699 3.33301 -4.66699 7.33301 -6 12
c-4 4 -6.66699 9.33301 -8 16c-3.33301 3.33301 -6.33301 7 -9 11s-5 10 -7 18c-2.66699 2 -5.33398 7.33301 -8.00098 16c-3.33301 3.33301 -6 7 -8 11c-4 4 -6.66699 8.33301 -8 13c-3.33301 4 -5.66602 7.33301 -6.99902 10l-4 -11l-35 -39
c-4.66699 -19.333 -10 -31.333 -16 -36l-4 -21l-6 -9c4 2.66699 8.33301 4 13 4l10 -1c16.667 -11.333 25 -22 25 -32l-2 -13c-3.33301 -6 -8.66602 -11.333 -15.999 -16c-7.33301 0 -18.833 -0.666992 -34.5 -2s-27.5 -2 -35.5 -2c-10 0 -24.833 0.666992 -44.5 2
s-34.167 2 -43.5 2l-15 15l-2 14l2 13c10 12.667 35.333 20.334 76 23.001l1 2c1.33301 5.33301 3 11.333 5 18l4 4c2 4.66699 4.66699 8.66699 8 12c2 6.66699 7.33301 14.334 16 23.001l3 13l6 8v2c0 10 2.33301 17.333 7 22c1.33301 7.33301 4.33301 13 9 17
c2 4.66699 4.33301 8.33398 7 11.001c3.33301 12 11.666 24.667 24.999 38l6 1v1l-5 9l-23 36l-3 19l1 -1l-6 7c-6.66699 6.66699 -13.334 16.667 -20.001 30l2 -1l-6 9l-3 12c-11.333 12 -19.333 24 -24 36l-4 4c-2 5.33301 -3.66699 11 -5 17l-1 2l-62 8l-14 14l-2 12
l2 10c4.66699 8.66699 13.334 15.667 26.001 21h131c10 -8 16.333 -15.333 19 -22l22 -22c-12 -6.66699 -30 -13 -54 -19l5 -8c1.33301 -5.33301 6.66602 -9.33301 15.999 -12c0 -7.33301 1 -18 3 -32l-1 1l6 -7l3 -10c12.667 -12.667 20.667 -23.334 24 -32.001l3 -4l4 5
c1.33301 3.33301 4 8.33301 8 15c1.33301 4 3.66602 7.66699 6.99902 11c1.33301 5.33301 3 11.333 5 18l4 4c2 4.66699 4.66699 8.33398 8 11.001c4.66699 9.33301 11 23.333 19 42l4 4v1c-8.66699 1.33301 -20 4.33301 -34 9c-2.66699 9.33301 -4 16 -4 20
c0 22 18 33 54 33c23.333 0 38 -5 44 -15z" />
    <glyph glyph-name="Y" unicode="Y" 
d="M305 421c-10.667 2.66699 -26.6689 7.66504 -48.002 14.998c-2 6.66699 -3 12.667 -3 18c0 4.66699 1 10.334 3 17.001c18.667 8 39 12 61 12h13l6 -5h20c16 -0.666992 28 1 36 5h25c9.33301 -4 18 -8.66699 26 -14l2 -15l-2 -14c-7.33301 -10 -19.333 -16.333 -36 -19
c-2 -0.666992 -16.333 -2 -43 -4l-3 -11l-4 -3c-0.666992 -4 -3.66699 -9.66699 -9 -17c0.666992 -1.33301 1 -3.33301 1 -6c0 -4 -1.33301 -9.33301 -4 -16l-4 -6c-1.33301 -5.33301 -3.66602 -11 -6.99902 -17l-5 -25c-2 -1.33301 -5 -8.33301 -9 -21
c-1.33301 -0.666992 -4 -7.33398 -8 -20.001c-2.66699 -1.33301 -4.66699 -7 -6 -17l-5 -5c-1.33301 -4 -2.33301 -9.66699 -3 -17l-5 -7c-3.33301 -6.66699 -7 -17 -11 -31l-11 -12v-123c22.667 2 38.334 3 47.001 3c15.333 0 26.666 -2 33.999 -6
c4.66699 -2 13 -8.66699 25 -20l3 -10l-2 -9c-12 -15.333 -36 -23 -72 -23l-180 -1c-12.667 7.33301 -19 19 -19 35c0 7.33301 1.66699 14 5 20l14 7h83v127l-5 9c-2.66699 2.66699 -5 5.33398 -7 8.00098l-3 19l-13 22l-4 26l2 -1l-6 7l-3 9h1
c-4 3.33301 -7.33301 9 -10 17l2 -1l-6 7c-2 4.66699 -3.33301 10 -4 16c-4 5.33301 -6.66699 13 -8 23c-3.33301 3.33301 -5.66602 7 -6.99902 11l-4 4c-2.66699 10 -4.33398 19.667 -5.00098 29l2 -1l-5 6c-4.66699 10.667 -8.66699 21.334 -12 32.001
c-11.333 -2.66699 -34.666 -3.66699 -69.999 -3v48c41.333 6 74 9 98 9l66 1l18 -9v-41c-9.33301 -4 -24 -7.66699 -44 -11v-16c2.66699 -7.33301 4.66699 -15 6 -23l-1 1c2.66699 -4 7.33398 -10 14.001 -18c3.33301 -8 7.33301 -20.333 12 -37
c4 -5.33301 6.66699 -13 8 -23c3.33301 -4.66699 6 -11 8 -19s6 -19.667 12 -35l1 2c1.33301 5.33301 3 11 5 17l3 3c2 8 4.33301 15.167 7 21.5s5.66699 11.5 9 15.5c2 9.33301 4.66699 17 8 23c1.33301 5.33301 2.66602 13.333 3.99902 24l6 9l-2 -1
c1.33301 4.66699 4.66602 10.667 9.99902 18v3c0 4 0.666992 9 2 15l5 6c0.666992 4 2.33398 8.33301 5.00098 13z" />
    <glyph glyph-name="Z" unicode="Z" horiz-adv-x="504" 
d="M438 168l-1.00098 -113.998l-7 -4v-39c-20.667 -11.333 -41.334 -17 -62.001 -17h-265c-10 0 -21.667 4.33301 -35 13v9c0 6 2 10.667 6 14l2 9c6 9.33301 16 22.333 30 39c0.666992 3.33301 1.33398 7.33301 2.00098 12c4.66699 3.33301 7.33398 7.33301 8.00098 12
c4.66699 3.33301 7.66699 7.33301 9 12l21 19c0.666992 4.66699 3.33398 10 8.00098 16c2 8 7.33301 16.333 16 25l4 11c6 8 14.667 20.333 26 37c2.66699 0.666992 4.66699 3.66699 6 9l28 24c1.33301 4 2.33301 10 3 18l21 25l5 14l4 4
c2.66699 4.66699 5.33398 9 8.00098 13s5.33398 7.66699 8.00098 11l14 21.5c9.33301 14.333 20.666 30.833 33.999 49.5l2 6l-23 -1c-6.66699 0 -16.667 1 -30 3s-23 3 -29 3c-8 0 -39 -2.66699 -93 -8v-27l4 -6v-20l-4 -7l4 -4v-14l-6 -6v-33
c-11.333 -4.66699 -23.666 -10.334 -36.999 -17.001h-10l-17 8v102l4 5c0.666992 2.66699 0.666992 5.33398 0 8.00098l2 -1l-6 11v21c5.33301 6.66699 8.66602 14.667 9.99902 24c23.333 14 51.666 21 84.999 21c6.66699 0 16.334 -0.666992 29.001 -2s22.334 -2 29.001 -2
c11.333 0 28.5 0.666992 51.5 2s40.167 2 51.5 2c35.333 0 59 -5 71 -15l2 -20l-2 -20c-14.667 -12.667 -22.667 -23.334 -24 -32.001c-4 -5.33301 -8.66699 -11 -14 -17c-3.33301 -8.66699 -13.666 -22 -30.999 -40c-4.66699 -18 -13.334 -31 -26.001 -39l-5 -9
c-2.66699 -2 -4.66699 -5.66699 -6 -11c-4 -2.66699 -6.66699 -6.33398 -8 -11.001c-4 -3.33301 -6.66699 -7.33301 -8 -12l-13 -12c-0.666992 -3.33301 -1.33398 -7.33301 -2.00098 -12c-4.66699 -3.33301 -7.66699 -7.33301 -9 -12l-21 -19
c-0.666992 -4.66699 -3.33398 -10 -8.00098 -16c-0.666992 -3.33301 -3 -7.33301 -7 -12c-2.66699 -11.333 -9.66699 -24 -21 -38l-29 -32c-0.666992 -4.66699 -3.66699 -10.667 -9 -18c-0.666992 -0.666992 -1.33398 -2.66699 -2.00098 -6
c-4 -3.33301 -6.66699 -7.33301 -8 -12l-3 -3v-3c36.667 -2 53 -3 49 -3h150l4 9v1l-3 10l3 10l3 3v14c-2.66699 4 -4.66699 8.33301 -6 13l3 10l1 2l-10 10l14 9v38l8 11h-2c4 9.33301 10.333 18 19 26h20c10 -5.33301 18.667 -12 26 -20v-25z" />
    <glyph glyph-name="underscore" unicode="_" horiz-adv-x="499" 
d="M492 -83c-6 -16 -18.001 -24 -36.001 -24s-45 1 -81 3s-63 3 -81 3h-209c-5.33301 0 -13.166 -0.666992 -23.499 -2s-18.166 -2 -23.499 -2c-16.667 0 -27.334 8.66699 -32.001 26l-5 6v38l5 6l5 15l15 7h5c2.66699 0 6.33398 -0.666992 11.001 -2s8.33398 -2 11.001 -2
h150c4 0 10.333 -0.833008 19 -2.5s15 -2.5 19 -2.5c5.33301 0 13.333 0.833008 24 2.5s18.667 2.5 24 2.5c7.33301 0 18.166 -0.666992 32.499 -2s25.166 -2 32.499 -2c4 0 10.333 0.666992 19 2s15 2 19 2h90l16 -15v-51z" />
    <glyph glyph-name="grave" unicode="`" horiz-adv-x="165" 
d="M55 763c13.333 0 29.667 -5.66699 49 -17c1.33301 -5.33301 9.66602 -15.333 24.999 -30l2 -11l37 -24l4 -17l6 -7v-28c-5.33301 -2.66699 -8.33301 -6 -9 -10c-4.66699 -5.33301 -9.66699 -10 -15 -14l-14 -1c-12 0 -32.333 11 -61 33c-2 4.66699 -7 7.66699 -15 9
c-2 2.66699 -8.33301 8 -19 16l-3 11c-15.333 4.66699 -33.666 16.334 -54.999 35.001v18c6 6.66699 9.66699 15 11 25c3.33301 1.33301 6 6.66602 8 15.999h50z" />
    <glyph glyph-name="a" unicode="a" 
d="M409 58l10.998 7.99512c14 0 26.667 -9.66699 38 -29c-3.33301 -2.66699 -7.66602 -8 -12.999 -16l-14 -13h-63l-6 6c-3.33301 0.666992 -7 1.33398 -11 2.00098l-16 14c-5.33301 4.66699 -8.66602 10 -9.99902 16l2 -1l-6 9l-1 3l-17 -17l-11 -2
c-4.66699 -5.33301 -14 -10.666 -28 -15.999c-16 -6.66699 -26 -11.334 -30 -14.001c-38 -6 -58 -9 -60 -9c-43.333 0 -77.333 15.667 -102 47l-4 11l-5 6v75l5 6c10.667 26 31.667 43.667 63 53c14.667 4 45.667 8 93 12c40 2.66699 68.333 9 85 19v34
c-13.333 17.333 -54.333 26 -123 26l-9 -1l4 -5v-28c-2.66699 -2 -6 -7 -10 -15c-12.667 -9.33301 -25.334 -14 -38.001 -14l-18 1c-2 4 -8.33301 9.33301 -19 16l-2 7c-2.66699 2.66699 -5 5.66699 -7 9v24l6 8c0.666992 2.66699 1.33398 6.33398 2.00098 11.001
c4.66699 2.66699 8 7.33398 10 14.001c17.333 8.66699 44 19 80 31l7 6h9c14.667 0 34.334 -2.66699 59.001 -8c28 -5.33301 47.333 -8.33301 58 -9c13.333 -11.333 21.666 -18.666 24.999 -21.999c8.66699 -8 14.667 -17.333 18 -28c6 -15.333 9 -29.666 9 -42.999
c0 -4 -1 -5.66699 -3 -5l7 -11v-78l-4 -4v-26c3.33301 -6 5 -10.667 5 -14c0 -6.66699 -1.66699 -12 -5 -16l3 -4c1.33301 -6 2.33301 -11.667 3 -17l6 -2l6 1c7.33301 0 14.333 -2.66699 21 -8zM191.998 60.9951c14.667 0 31.833 5.16797 51.5 15.501
s33.167 21.833 40.5 34.5c8 3.33301 16.333 8.66602 25 15.999v41c-16 0 -40.167 -3 -72.5 -9s-56.833 -9 -73.5 -9c-13.333 -6 -26 -13 -38 -21l-5 -9v-32c2.66699 -4 8 -9.33301 16 -16c38 -7.33301 56.667 -11 56 -11z" />
    <glyph glyph-name="b" unicode="b" 
d="M101 445l-2 -1h2v0v1zM311 9c-6 -4 -11.6709 -8.66406 -17.0039 -13.9971h-38l-6 7l-10 2c-9.33301 6 -23.666 17.333 -42.999 34v-24c-3.33301 -8 -9.33301 -14.333 -18 -19h-16c-8.66699 0 -17.667 6.66699 -27 20c-2 6.66699 -2 13.334 0 20.001l-6 5l10 9l-1 78l3 -1
l-6 10l-2 11l2 14l4 5v11l-10 12l12 8v49h-24l22 21v55c-2.66699 4 -4.66699 9 -6 15l6 10v4c-2.66699 3.33301 -4 12.666 -4 27.999v27l-2 2l1 4c-6 1.33301 -12.333 3 -19 5l-1 1c-11.333 -4.66699 -22.333 -7 -33 -7c-7.33301 3.33301 -13.666 8.66602 -18.999 15.999
l-2 11l2 11c4 5.33301 9 10.333 15 15l19 3l-2 -1l6 -1v4c6 0 11 -2.33301 15 -7l8 9c10.667 4 25.334 6 44.001 6c10.667 0 20.334 -8.66699 29.001 -26v-53l-4 -4l4 -7v-64l-6 -10v-45l14 2l-5 1v25c12.667 10.667 25.334 22 38.001 34c20 6 32.667 9 38 9h45
c4 0 14.333 -3 31 -9c4.66699 -4.66699 13.334 -10.334 26.001 -17.001l12 -13l2 -10l9 -4v-33l5 -5c0.666992 -6.66699 3.33398 -14 8.00098 -22c1.33301 -7.33301 7 -14.666 17 -21.999v-71c0 -2 -3 -15.667 -9 -41c-2.66699 -5.33301 -7.33398 -13 -14.001 -23
c-0.666992 -2.66699 -1.33398 -6.33398 -2.00098 -11.001l-14 -14l-8 -1c-0.666992 -3.33301 -1.33398 -8 -2.00098 -14c-4 -2.66699 -8 -7.33398 -12 -14.001c-12 -8 -31.667 -12.667 -59 -14v8zM196.996 137.003l3.99902 -3c8.66699 -9.33301 18.667 -25 30 -47l4 -3
l3 -10c3.33301 -0.666992 7.66602 -3.33398 12.999 -8.00098c22.667 -10 48.667 -16 78 -18c7.33301 9.33301 20.333 21 39 35v37l1 1l-1 4l3 10l3 3v70c-8.66699 8 -14 19 -16 33l-13 10c-0.666992 8 -8.16699 15.333 -22.5 22s-26.166 10 -35.499 10
c-6 0 -23.667 -5.66699 -53 -17h-2c-1.33301 -20.667 -9.66602 -30.667 -24.999 -30c3.33301 -1.33301 5 -4.66602 5 -9.99902l-1 -4c-5.33301 -3.33301 -11 -6 -17 -8h-1v-7c2 -6 3 -23.667 3 -53l6 -5l-5 -5v-7z" />
    <glyph glyph-name="c" unicode="c" horiz-adv-x="498" 
d="M161 122c4 -5.33301 7.00293 -11.667 9.00293 -19l42 -41c13.333 -8.66699 33.333 -13 60 -13c13.333 6 33 18 59 36c2.66699 3.33301 6 9 10 17l-1 5c0 18 14.333 27 43 27c3.33301 0 9.66602 -3.66699 18.999 -11v-30l-6 -7c-1.33301 -6 -2.33301 -14 -3 -24
c-15.333 -15.333 -40.333 -35.666 -75 -60.999v0c-8 -6 -21.667 -9 -41 -9c-6 -3.33301 -26.333 -5 -61 -5c-13.333 0 -41.333 18 -84 54c-2 8 -7.33301 16 -16 24l-4 13l-5 6l-3 18l-7 1c0 28.667 -0.333008 44.334 -1 47.001l-5 6v25l4 6l4 23l4 5l5 26
c4 3.33301 6.66699 7.66602 8 12.999c4 2.66699 6.66699 7 8 13c9.33301 4 14.666 10.667 15.999 20c25.333 11.333 43.333 22.666 54 33.999l11 4c10 10 19.333 15 28 15c50 0 80.333 -7.33301 91 -22c2.66699 1.33301 5.66699 2 9 2c10.667 0 22.334 -5 35.001 -15
c1.33301 -4.66699 4 -8.33398 8 -11.001c1.33301 -5.33301 7.33301 -13 18 -23v-25l-6 -7l-13 -31l-23 -11h-20c-4.66699 4 -15.334 11.333 -32.001 22v48c6 2 11 4.33301 15 7h-67c-14.667 0 -23.667 -3.33301 -27 -10c-8.66699 -3.33301 -20.334 -10 -35.001 -20
c-1.33301 -4.66699 -3.83301 -9.16699 -7.5 -13.5s-8.5 -11.166 -14.5 -20.499c-0.666992 -14 -3.33398 -24.333 -8.00098 -31v-19c2.66699 -6 4.33398 -18.667 5.00098 -38z" />
    <glyph glyph-name="d" unicode="d" 
d="M317 55h3h-3v0zM305 55v7l2 6c-4 -4.66699 -9 -9 -15 -13h13zM366 63h47l17 -9l2 -16l-2 -17c-12 -16 -27 -24 -45 -24c-40.667 0 -67.334 8.33301 -80.001 25v12l-42 -30c-12.667 -7.33301 -30 -11 -52 -11c-31.333 0 -53.333 6.33301 -66 19l-25 9
c-1.33301 6 -4.33301 10.667 -9 14c0 4.66699 -2.66699 9 -8 13c-0.666992 4.66699 -3 8.66699 -7 12l-2 6c-2.66699 2.66699 -5 5.66699 -7 9l-4 22c-0.666992 4.66699 -4.66699 11.667 -12 21v91l5 5c1.33301 6.66699 2.33301 17.667 3 33h14v29
c2.66699 0.666992 6.33398 4.33398 11.001 11.001c4 3.33301 6.66699 7.66602 8 12.999c32.667 25.333 56 38 70 38c41.333 0 81 -15 119 -45v129h-12h-46c-6.66699 0 -15.667 2.66699 -27 8l-2 18l2 19c23.333 8 46.333 12 69 12h33l4 -4l8 1l14 -2
c5.33301 -7.33301 8.33301 -16.333 9 -27l-2 5c5.33301 -18 8.33301 -82.333 9 -193c3.33301 -5.33301 5.66602 -10.333 6.99902 -15l-3 -10l-1 -2l1 -2l3 -10l-3 -10l-1 -2l1 -2l3 -10l-3 -10l-2 -3v-55c3.33301 -4 5 -7.66699 5 -11c0 -2.66699 -2 -6.66699 -6 -12l-2 -13
c0.666992 3.33301 1.33398 5 2.00098 5l1 -1c4 -9.33301 5.33301 -20.333 4 -33zM284 120l17 22.998v64c-2.66699 4.66699 -17.334 20.334 -44.001 47.001l-1 9c-6.66699 3.33301 -14 8 -22 14c-9.33301 2.66699 -18.666 4 -27.999 4c-14.667 0 -27 -4 -37 -12
c-3.33301 -2.66699 -12.333 -11.667 -27 -27c-1.33301 -7.33301 -4 -13 -8 -17c-1.33301 -4.66699 -3.66602 -8.66699 -6.99902 -12l-3 -21l2 -1v-49c5.33301 -10 8.33301 -19.667 9 -29c3.33301 -5.33301 5.66602 -10.666 6.99902 -15.999l14 -12l2 -11l12 -13
c6.66699 -1.33301 11.667 -3.33301 15 -6h39c9.33301 0 24.333 11.333 45 34c6 18 11 28.333 15 31z" />
    <glyph glyph-name="e" unicode="e" horiz-adv-x="498" 
d="M339 302l12.0029 -2.99902l13 -13c1.33301 -7.33301 6.33301 -15 15 -23c1.33301 -4.66699 4 -8.33398 8 -11.001c1.33301 -5.33301 4 -9.66602 8 -12.999c1.33301 -4.66699 4.66602 -9 9.99902 -13v-84c-5.33301 0 -13 0.833008 -23 2.5s-17.333 2.5 -22 2.5h-53
c-2 0 -5.33301 -0.666992 -10 -2s-8 -2 -10 -2h-136v-15c3.33301 -6.66699 5.66602 -13 6.99902 -19c4 -6 7.16699 -11.167 9.5 -15.5s6.16602 -10.5 11.499 -18.5c7.33301 -4.66699 17 -11.667 29 -21c29.333 -4.66699 42.666 -7 39.999 -7c13.333 0 27 3.33301 41 10
c24 12 36.333 18.333 37 19c2.66699 4.66699 8 12.667 16 24h37c6.66699 -3.33301 12.667 -9 18 -17v-16c-5.33301 -6.66699 -8.33301 -13.334 -9 -20.001c-4.66699 -3.33301 -7.66699 -7.66602 -9 -12.999c-38 -22.667 -60.333 -35.334 -67 -38.001
c-20.667 -9.33301 -45.667 -14 -75 -14c-4.66699 0 -9 1.66699 -13 5l-18 3c-4 3.33301 -19 9.33301 -45 18c-1.33301 3.33301 -9.66602 9 -24.999 17c-3.33301 9.33301 -5.33301 14.5 -6 15.5s-4.33398 4.5 -11.001 10.5c-0.666992 3.33301 -3.66699 8.33301 -9 15
c-0.666992 4 -6 13.333 -16 28l-3 18l-5 7v21l6 6v75c13.333 10.667 22.333 24.667 27 42c10 12 28.333 28.667 55 50c10 14 33 21 69 21c30.667 0 51.334 -4.66699 62.001 -14c8 -2 14 -5 18 -9l9 -3zM154.003 197.001c6.66699 1.33301 38.333 2 95 2l22 1
c2.66699 0 6.16699 -0.666992 10.5 -2s7.83301 -2 10.5 -2c-7.33301 0 11 1 55 3c-2.66699 2 -5 7 -7 15c-3.33301 3.33301 -5.66602 7.33301 -6.99902 12c-8 8 -20 19.333 -36 34c-4 1.33301 -9 3.33301 -15 6c-3.33301 6.66699 -13 10 -29 10
c-3.33301 0 -19.333 -4.66699 -48 -14l-2 -6c-4.66699 -1.33301 -10 -5.33301 -16 -12c-8.66699 -9.33301 -13.334 -14.333 -14.001 -15c-2.66699 -8 -9 -14.333 -19 -19l2 -5z" />
    <glyph glyph-name="f" unicode="f" 
d="M411 393l-0.998047 -0.999023v-3c2.66699 1.33301 5 2 7 2c4.66699 0 8 -3 10 -9l6 5c-1.33301 -1.33301 -4 -8.66602 -8 -21.999c-8 -9.33301 -16.333 -15.333 -25 -18h-16c-13.333 0 -24 2.33301 -32 7c-2.66699 6 -4.33398 11 -5.00098 15l-4 4l-3 10l3 10l3 4l2 9
c-8.66699 4 -16.334 6 -23.001 6h-44c-2.66699 0 -10 -3 -22 -9c-6 -12 -9.33301 -24 -10 -36l-5 -3h8v-46c14.667 4 32 6 52 6c29.333 0 44 -9 44 -27c0 -6 -2 -12.333 -6 -19c-14.667 -8 -27.667 -12 -39 -12c-4.66699 0 -9.33398 1.33301 -14.001 4
c-6.66699 5.33301 -10.334 8 -11.001 8l-24 -2v-121c2.66699 -6 4 -18.333 4 -37l-4 -5c-0.666992 1.33301 -1.66699 2.66602 -3 3.99902l7 -11v-26c0 -2.66699 -0.833008 -7 -2.5 -13s-2.16699 -10.667 -1.5 -14l6 -3c5.33301 0 13.333 0.666992 24 2s18.667 2 24 2
c22.667 0 41 -4.66699 55 -14v-27c0 -8.66699 -12.667 -15.334 -38 -20.001c-18 -3.33301 -35.333 -5 -52 -5c-17.333 0 -43.666 0.666992 -78.999 2s-61.666 2 -78.999 2l-15 15l-2 18l2 15l16 12h85v6c-3.33301 6 -5 10.333 -5 13l1 9v1v89l6 10l-6 10v62
c-2 6 -3.33301 12.333 -4 19c-2 -0.666992 -6.83301 -1.16699 -14.5 -1.5s-13.834 -0.5 -18.501 -0.5c-35.333 0 -53 11 -53 33l1 11c7.33301 7.33301 14 11 20 11h36c3.33301 0 10.333 -2.66699 21 -8l11 2l2 8l3 2v18c-4 6.66699 -6 13 -6 19c0 20.667 0.666992 33 2 37
l5 4c3.33301 12 17 28.667 41 50l10 2c10 10 31 15 63 15c18.667 0 36.334 -4 53.001 -12c20.667 -8.66699 32.667 -20.667 36 -36h23l-7 -16l14 -2v-14h-24z" />
    <glyph glyph-name="g" unicode="g" 
d="M318 343c2.66699 1.33301 6.32812 8.33203 10.9951 20.999h20c45.333 0 77.333 -13.667 96 -41v-58c-6.66699 -7.33301 -18 -15 -34 -23h-5c-20 0 -32.667 7.33301 -38 22v40c-7.33301 2 -15.333 3 -24 3c-8 0 -17.333 -2 -28 -6l-1 -2c6.66699 -6 10.667 -12.667 12 -20
l-1 1c2 -12.667 2.66699 -25 2 -37c2.66699 -6 4.66699 -12.333 6 -19l2 -1c-0.666992 -10 -2.33398 -24.667 -5.00098 -44l-13 -12c-8.66699 -33.333 -50 -50 -124 -50c-5.33301 0 -21.333 6.66699 -48 20l-2 -7l-2 -2l-1 -26c2.66699 -3.33301 5.33398 -10 8.00098 -20
c2 2 4 4.33301 6 7c13.333 1.33301 33.333 4 60 8c0 -4.66699 -2.66699 -7.66699 -8 -9c8 -0.666992 11.667 -5 11 -13c4 14.667 33.333 22.334 88 23.001c8.66699 -4.66699 19.667 -7.66699 33 -9c8.66699 -3.33301 19.667 -10.666 33 -21.999c8 -2 15.667 -6 23 -12
c1.33301 -4.66699 4.33301 -8.66699 9 -12c0.666992 -8 3.66699 -13.333 9 -16v-68c-5.33301 -4 -8.66602 -8.33301 -9.99902 -13l-4 -4c-1.33301 -4.66699 -2.33301 -9.66699 -3 -15c-4.66699 -6.66699 -12 -15.334 -22 -26.001c-8 -2 -23.667 -8 -47 -18
c-19.333 -8 -35.333 -12 -48 -12h-77c-43.333 0 -84.666 18 -123.999 54c-1.33301 4.66699 -5 8 -11 10v39l-6 6v7h20c-6 2 -9 5.66699 -9 11c-2 -2.66699 -4.66699 -4 -8 -4l7 15c3.33301 1.33301 5.33301 5.33301 6 12l5 6c1.33301 6 2.33301 16.333 3 31
c4.66699 1.33301 8.66699 2.66602 12 3.99902v4v5l-4 6c-0.666992 8.66699 -1.66699 15.667 -3 21c-3.33301 3.33301 -5 10 -5 20l6 6v33c2.66699 0.666992 6.33398 4 11.001 10l3 3v23c-3.33301 6 -4.66602 25.667 -3.99902 59c4.66699 4 8.33398 7.66699 11.001 11l-3 7
v17l6 6c0.666992 3.33301 1.66699 7.33301 3 12c3.33301 2.66699 7.33301 8.33398 12 17.001l10 3l7 9c4 0.666992 7.33301 2.33398 10 5.00098c7.33301 1.33301 17 2.66602 29 3.99902l21 13h9c27.333 0 49 -7 65 -21c4.66699 4 12.667 8.33301 24 13h6zM152.994 246.999
l4.00098 -2v-36c2 -4 4.66699 -9.66699 8 -17l4 -4c0.666992 -2.66699 5.66699 -7.66699 15 -15c8 -2.66699 13 -5 15 -7h31c3.33301 0 8.16602 1 14.499 3l12.5 4l26 26v70l-7 2c-15.333 16 -32.666 24 -51.999 24h-16c-8.66699 0 -16.334 -1.33301 -23.001 -4
c-8 -8 -19 -17.667 -33 -29l8 -8zM360.995 -38.001l-2.00195 2.00195v18l5 5c-0.666992 14 -5.66699 25.333 -15 34c-4 4 -14.333 10.667 -31 20c-30 5.33301 -51.667 8 -65 8h-33c-9.33301 0 -25.333 -3.83301 -48 -11.5s-36 -14.167 -40 -19.5
c-1.33301 -2.66699 -3.66602 -6.33398 -6.99902 -11.001c-1.33301 -14.667 -3.66602 -23.667 -6.99902 -27c-0.666992 1.33301 -1.66699 2.66602 -3 3.99902l1 -8c4 -7.33301 10.333 -17 19 -29c52 -12.667 83.667 -19 95 -19c50 0 93 10.333 129 31z" />
    <glyph glyph-name="h" unicode="h" 
d="M205 29h-2h2v0v0zM174 271c13.333 14 31.998 22.333 55.998 25v1v15l14 17c14 0 23.333 0.666992 28 2l5 4c2.66699 0.666992 6 2.66699 10 6h6c14.667 0 31 -6 49 -18s28.667 -24.667 32 -38l4 -4c2 -3.33301 3 -10.666 3 -21.999c0 -8 -3.66699 -14.333 -11 -19l7 -4
c6.66699 -14.667 10.334 -37 11.001 -67l-2 -1c2 -5.33301 3 -11.333 3 -18c0 -7.33301 -1 -13.666 -3 -18.999l-2 -1l5 -6v-15l-5 -8v-46c14.667 -2.66699 32 -4.66699 52 -6l10 -6l6 -10l2 -15l-2 -17l-17 -9h-155l-10 6c-5.33301 7.33301 -8 15.666 -8 24.999
c0 20.667 10.667 29.667 32 27c6.66699 2 17 3 31 3v177l8 6l2 3l-7 5c-9.33301 24 -24.333 36 -45 36c-2.66699 0 -8.33398 -0.333008 -17.001 -1s-15.667 -1 -21 -1c-3.33301 -14 -10 -25.167 -20 -33.5s-15 -13.5 -15 -15.5
c-7.33301 -6.66699 -12.666 -13.667 -15.999 -21c-7.33301 -14 -11 -21.333 -11 -22v-135l21 2h-2l3 -1v2c14.667 0 26.667 -4.66699 36 -14c2.66699 -6.66699 4 -13.334 4 -20.001c0 -5.33301 -1.66699 -12 -5 -20l-15 -7c-18 -0.666992 -36 -1 -54 -1
c-21.333 -0.666992 -38.666 -2.66699 -51.999 -6c-9.33301 -3.33301 -22.666 -5 -39.999 -5c-6.66699 0 -15.334 6.33301 -26.001 19v50c14 -2.66699 24.667 -7.66699 32 -15l8 5l1 -2l11 16h17v119c0 12 0.666992 18.667 2 20v95l6 2v1h-6v117h-62
c-1.33301 7.33301 -7.66602 16.333 -18.999 27c9.33301 4.66699 15.666 13 18.999 25l14 14h33c8 0 19.5 -1.66699 34.5 -5s26.833 -5 35.5 -5v-45l-4 -4v-41c2.66699 -4.66699 4 -8.66699 4 -12l-2 -7l2 -2v-51l-4 -4z" />
    <glyph glyph-name="i" unicode="i" 
d="M252 371l-34 -0.000976562c-4 0 -15 7 -33 21l-4 13l-5 7v20l13 22c7.33301 12.667 17.666 19 30.999 19h31c3.33301 0 9.33301 -3.33301 18 -10c1.33301 -10 4 -17 8 -21c0.666992 -8 3.66699 -17 9 -27v-22c-9.33301 -7.33301 -20.666 -14.666 -33.999 -21.999z
M273 48.999c3.33301 0.666992 7.50098 0.833008 12.501 0.5s8.5 -0.5 10.5 -0.5c8.66699 0 21.667 0.833008 39 2.5s30.333 2.5 39 2.5c0.666992 0 14 -0.666992 40 -2l10 -6l6 -10l2 -16l-2 -16c-7.33301 -13.333 -19 -20 -35 -20h-322c-2.66699 14 -12.667 25 -30 33
c13.333 10 20 19.333 20 28c8 8.66699 16.667 13 26 13s23 -1.5 41 -4.5s31.667 -4.5 41 -4.5h43v32l3 1l-1 3v184c-16.667 -2 -27.334 -3 -32.001 -3h-96l-17 8v45l17 9h120c6 0 14.667 -0.666992 26 -2s20 -2 26 -2l18 -9v-258z" />
    <glyph glyph-name="j" unicode="j" 
d="M369 397c-16 -15.333 -33.998 -22.998 -53.998 -22.998c-4 0 -12 0.333008 -24 1l-23 22c0 3.33301 -2.66699 8 -8 14v34l14 15c3.33301 0 8.66602 2.16699 15.999 6.5s11.666 6.5 12.999 6.5h24c11.333 -4.66699 25.333 -13.334 42 -26.001
c2.66699 -18.667 4 -26.334 4 -23.001c0 -2.66699 -1.33301 -11.667 -4 -27zM357.002 59.002l-0.995117 -8.00391c0 0.666992 0.333008 1 1 1v-7l-1 1c2 -12.667 2.66699 -28.667 2 -48c2 -6 3.33301 -29.333 4 -70l-7 -6
c-0.666992 -3.33301 -1.33398 -7.66602 -2.00098 -12.999c-4.66699 -3.33301 -7.66699 -7.33301 -9 -12c-4 -3.33301 -6.66699 -7.66602 -8 -12.999c-42.667 -24.667 -75.334 -37 -98.001 -37c-16.667 0 -42.334 4.66699 -77.001 14
c-10.667 8.66699 -23.334 19.667 -38.001 33c-0.666992 4 -6 10.667 -16 20l-4 30l1 -1l-2 19l1 1c1.33301 5.33301 2.66602 14 3.99902 26c10.667 16 27.667 24 51 24c12 0 23.667 -6.33301 35 -19v-49c-4.66699 -5.33301 -10.667 -10.666 -18 -15.999
c16.667 -14 27.667 -21 33 -21h36c16.667 0 31.667 6.33301 45 19l5 13l3 3c0.666992 8.66699 2.33398 16.667 5.00098 24l-1 3v34l5 9l-1 5l2 -1l-6 11v218l5 9l-1 9l2 -1l-5 5l-2 6h-79c-6 -3.33301 -25 -4.66602 -57 -3.99902c-6.66699 2.66699 -12.334 8 -17.001 16v30
l15 16l147 -1c2.66699 0 15 -1.33301 37 -4c2.66699 -2.66699 8 -4.66699 16 -6c0.666992 -8 -0.333008 -15 -3 -21c1.33301 -4 2.33301 -8 3 -12l-4 -6v-43c2 -6 3 -31.667 3 -77l1 -10l-3 -2l3 -5v-81z" />
    <glyph glyph-name="k" unicode="k" 
d="M349 120l-12.9951 37.999l34 -77c6 -6 14.333 -13 25 -21h68l11 -7l7 -11v-27c-5.33301 -2 -9 -7.66699 -11 -17l-122 1c-28.667 0 -52.667 2 -72 6c-6.66699 6 -10 13.333 -10 22s3 16 9 22c14 4 30 7 48 9l-16 21c-0.666992 6.66699 -4.33398 11.334 -11.001 14.001
c-4 4 -6.66699 8 -8 12c-4 4 -6.66699 8 -8 12l-41 52l-15 -10l-3 -7c-22.667 -11.333 -36.667 -22 -42 -32v-58c12 -1.33301 28.667 -4 50 -8l10 -10v-31c-12 -10 -43 -15 -93 -15h-56l-32 1l-17 8v53h79v270c0 10 -0.5 25 -1.5 45s-1.5 35 -1.5 45
c-5.33301 -1.33301 -9.33301 -2 -12 -2h-55c-0.666992 6.66699 -1.66699 12.334 -3 17.001l-10 9c13.333 22 29 33 47 33c3.33301 0 10.5 -0.333008 21.5 -1s20.833 -1 29.5 -1c5.33301 2.66699 14.666 4 27.999 4c1.33301 -4.66699 5.33301 -10.667 12 -18v-40l-5 -5l5 -5
v-115c-1.33301 0 -1.66602 -0.666992 -0.999023 -2c0 -0.666992 0.333008 -1 1 -1v-16c-0.666992 0 -1 -0.333008 -1 -1c-0.666992 -1.33301 -0.333984 -2 0.999023 -2v-41l2 -1v-47l8 4c5.33301 8.66699 23 26.667 53 54s48 41.333 54 42c-14 -0.666992 -20.667 -1 -20 -1
c-11.333 0 -21.333 3.66699 -30 11v14c0 16.667 6.83301 25 20.5 25s33.667 1.33301 60 4s46.166 4 59.499 4c23.333 0 42.666 -2.33301 57.999 -7l9 -9v-45h-79l-93 -72c10 -13.333 18.333 -23.333 25 -30c1.33301 -4.66699 6.66602 -11.334 15.999 -20.001
c1.33301 -5.33301 4 -9 8 -11c1.33301 -4.66699 9 -14 23 -28z" />
    <glyph glyph-name="l" unicode="l" 
d="M300 53c11.333 0 28 0.668945 50 2.00195s38.667 2 50 2h6c6.66699 -2.66699 11.667 -5.33398 15 -8.00098h36v-51l-43 -11l-98 1c-6 0 -14.667 0.5 -26 1.5s-20 1.5 -26 1.5c-6 -2.66699 -10.667 -4 -14 -4h-52c-3.33301 0 -8.5 0.666992 -15.5 2s-12.167 2 -15.5 2
c-1.33301 0 -3.5 -0.666992 -6.5 -2s-5.16699 -2 -6.5 -2h-56l-11 7l-6 10l-2 16l2 16c8 14.667 24.667 22 50 22c16 0 28.333 -1.66699 37 -5h70l-1 132c0 12 0.666992 18.667 2 20c1.33301 4 2.33301 9.33301 3 16l-14 13l6 5v32l4 4v22l-4 6v21l4 4v76h-40
c-2 0 -5.16699 -0.833008 -9.5 -2.5s-7.83301 -2.5 -10.5 -2.5h-64c-6.66699 3.33301 -15 10 -25 20v33c4.66699 2 7.66699 6.66699 9 14c6.66699 1.33301 11.667 3.66602 15 6.99902h6c2.66699 0 6.66699 -0.666992 12 -2s9.33301 -2 12 -2c3.33301 0 8.5 0.666992 15.5 2
s12.167 2 15.5 2h103c6 0 15 -6.66699 27 -20v-71l-4 -4l-1 -26l5 -4v-113l-11 -7c2 -6.66699 7.66699 -13.667 17 -21l-10 -10v-144z" />
    <glyph glyph-name="m" unicode="m" horiz-adv-x="503" 
d="M326 38c2 2 3.66797 6.33301 5.00098 13c14.667 0.666992 28.667 2.66699 42 6l1 9l-13 8l13 12c-0.666992 2.66699 -1 4.33398 -1 5.00098l1 -1v0l-2 18l-3 4v32l2 6l-2 6v13l4 4v88l-4 4v8l2 5l1 -2l-1 2c-2 4.66699 -3.33301 8 -4 10l-16 1
c-14.667 -8.66699 -23.667 -19 -27 -31c-4 -6.66699 -11 -16.334 -21 -29.001c-0.666992 -2.66699 -1.33398 -6 -2.00098 -10l-5 -5c-1.33301 -4.66699 -2.33301 -10 -3 -16l-5 -5v-38c-1.33301 -0.666992 -2 -1.66699 -2 -3v-65l-2 -2l2 -5v-26l30 -4l10 -10v-2z
M280.001 288c9.33301 12 24.6758 29.332 46.0088 51.999c10.667 4 19 6 25 6c30 0 54.667 -12.333 74 -37c0 -26 0.333008 -68.333 1 -127c0.666992 -54.667 1 -97 1 -127l15 1c11.333 0 20.666 -3.66699 27.999 -11l2 -12l-2 -11
c-6.66699 -8.66699 -15.334 -15 -26.001 -19h-25c-7.33301 -4 -18.333 -6 -33 -6c-21.333 0 -39.333 2.66699 -54 8c-2 3.33301 -4 7 -6 11v-18h-106c-6 0 -15 4.66699 -27 14l-3 13l3 13c12 8.66699 25 14.334 39 17.001v15l-2 1l2 1v-2l5 -4l-5 10v9l4 5l-4 5v46l4 5l-4 5
v71l4 4v42c-2 4 -4.66699 9.66699 -8 17h-19c-8.66699 -10.667 -22.334 -26 -41.001 -46c-3.33301 -7.33301 -7.33301 -19.666 -12 -36.999l-6 -5c-0.666992 -3.33301 -1.33398 -7 -2.00098 -11l-3 -3l4 -3v-24l-3 -6l3 -6v-13l-6 -5l1 -2l-1 -2l11 -10l-4 -4l4 -4l-9 -9
v-34l5 -8c6 -2.66699 19 -4.66699 39 -6v-49c-10.667 0 -26.334 -0.666992 -47.001 -2s-36.334 -2 -47.001 -2c-25.333 0 -35.333 0 -30 0c-8.66699 0.666992 -17.334 4 -26.001 10l-2 17c0 14.667 6.33301 25.667 19 33h35v219h-35
c-0.666992 7.33301 -1.33398 11.333 -2.00098 12c-1.33301 3.33301 -3.66602 6 -6.99902 8v21c10 10.667 32.667 16 68 16c13.333 0 25.666 -9 36.999 -27l-7 -7v-8l4 4c4 14 14.667 26.667 32 38s33.666 17 48.999 17c2 0 14.667 -6 38 -18
c1.33301 -4.66699 2.33301 -9 3 -13l6 -5c0.666992 -10.667 1.66699 -18.334 3 -23.001z" />
    <glyph glyph-name="n" unicode="n" 
d="M387 196l5.00195 -6.99609v-8c0 -6 -1.66699 -11 -5 -15v-45c3.33301 -4.66699 5 -8.66699 5 -12s-1.66699 -7 -5 -11v-35h51l11 -7l6 -10l2 -14l-2 -15c-6 -7.33301 -14.333 -14 -25 -20h-7c-16 0 -39.667 0.833008 -71 2.5s-54.666 2.5 -69.999 2.5
c-8 6 -13.667 12.333 -17 19v14l7 13l10 6l12 2c10 0 18.667 -1.66699 26 -5l6 3v211c-6.66699 10.667 -16 16 -28 16c-14 0 -30.833 -5.16699 -50.5 -15.5s-33.167 -21.5 -40.5 -33.5c-4.66699 -8.66699 -12.334 -21.334 -23.001 -38.001v-36
c-1.33301 0 -2.33301 -0.333008 -3 -1c0 -0.666992 0.333008 -1.33398 1 -2.00098v-40l-4 -7l4 -5v-15l5 -5l-10 -10l-1 -8c0 0.666992 0.333008 1 1 1v-7c22 0 36.333 -0.666992 43 -2c18 -4 27 -13.667 27 -29l-2 -11c-3.33301 -6 -8.33301 -11 -15 -15
c-6.66699 -0.666992 -25.334 -2.33398 -56.001 -5.00098c-23.333 -2.66699 -42 -4 -56 -4c-4 0 -10.333 0.666992 -19 2s-15 2 -19 2c-6 4.66699 -14 12.667 -24 24v18l13 14c11.333 4 29.666 5.66699 54.999 5v35l3 -1l-6 11v67l2 5c-2 1.33301 -3 6.66602 -3 15.999
c0 8 1.66699 14 5 18l-1 67c-8 2 -23 1.66699 -45 -1l-15 15l-1 15c0 24.667 20 37 60 37v-25c0 8 4 12 12 12c-6.66699 1.33301 -10 5.33301 -10 12l33 -4c6.66699 -5.33301 14.667 -13.333 24 -24v-18l-9 -8l2 -11l8 7l4 10c6 8 20 18.333 42 31l39 18h18
c45.333 0 75 -14 89 -42c9.33301 -19.333 13.333 -54 12 -104z" />
    <glyph glyph-name="o" unicode="o" 
d="M407 229l7.99902 -4.99805v-36c3.33301 -7.33301 5.33301 -24.333 6 -51l-6 -10l-1 -36c-6.66699 -1.33301 -10 -3.66602 -10 -6.99902c-5.33301 -6 -11.333 -18 -18 -36c-3.33301 -2.66699 -5.66602 -6.66699 -6.99902 -12c-30.667 -20.667 -51 -33 -61 -37
c-20.667 -10 -44.334 -15 -71.001 -15c-27.333 0 -45.666 4.66699 -54.999 14l-29 12c-8 8.66699 -25.333 23 -52 43c-1.33301 4.66699 -5 8 -11 10v36c-10 10.667 -14.667 37 -14 79l4 5l4 27c3.33301 3.33301 9.33301 17 18 41c3.33301 1.33301 5.33301 6 6 14
c4.66699 3.33301 7.66699 7.33301 9 12c4 3.33301 6.66699 7.66602 8 12.999c11.333 7.33301 20.333 14.666 27 21.999c30.667 15.333 52.334 23 65.001 23h60c11.333 0 25.666 -5.33301 42.999 -16c24.667 -14.667 38 -22.667 40 -24c2 -6 5.33301 -10.667 10 -14
c0.666992 -4.66699 5.66699 -11.334 15 -20.001c1.33301 -4.66699 4.33301 -8.66699 9 -12zM155.999 118.002c4 -5.33301 7.00098 -11.333 9.00098 -18c7.33301 -7.33301 12.666 -15.666 15.999 -24.999c10.667 -4.66699 23 -11.334 37 -20.001
c4.66699 -1.33301 7.66699 -2 9 -2h52c4.66699 0 10.334 0.666992 17.001 2c5.33301 6 12.666 12 21.999 18c2.66699 4 8 10.667 16 20l8 1c1.33301 2.66699 4 6 8 10v40l6 4v31c-5.33301 6.66699 -6.33301 13 -3 19l-9 9l-3 20c-10 8 -22.333 18.667 -37 32l-2 1l-23 22
c0 -8 -14.667 -12 -44 -12c-8.66699 0 -29.334 -13 -62.001 -39l-4 -13c-2.66699 -4.66699 -6.66699 -10 -12 -16v-32l-6 -4v-10c2.66699 -6 4.33398 -18.667 5.00098 -38z" />
    <glyph glyph-name="p" unicode="p" 
d="M448 255l8.00195 -5v-32c4 -7.33301 6 -32.666 6 -75.999c0 -2 -3 -15.667 -9 -41c-4.66699 -10.667 -12.334 -24 -23.001 -40c-0.666992 -0.666992 -1.33398 -3.33398 -2.00098 -8.00098l-46 -32c-16 -10.667 -33.333 -16 -52 -16c-20.667 0 -52.334 12.667 -95.001 38
l-11 16l-1 -2c0 -0.666992 1.66699 -3.33398 5 -8.00098v-23l5 -5l-4 -4l4 -4l-9 -9v-45c2.66699 -6 4 -12 4 -18l-5 -7c0 -0.666992 0.666992 -1.66699 2 -3h84c6 -5.33301 11.333 -11.333 16 -18v-21c-12 -13.333 -21 -20 -27 -20h-47c-4.66699 0 -11.5 0.666992 -20.5 2
s-15.833 2 -20.5 2c-7.33301 0 -18.166 -0.5 -32.499 -1.5s-25.166 -1.5 -32.499 -1.5l-50 -1l-17 9v43c9.33301 6.66699 21.666 10 36.999 10c5.33301 0 13.666 -0.833008 24.999 -2.5s20 -2.5 26 -2.5h4v168c-2 4 -3.66699 8.33301 -5 13l2 7v0v57l4 8v4l1 -1l-5 10v37
l-2 15l2 18l4 3v18h-18c-5.33301 2.66699 -9.66602 4.33398 -12.999 5.00098l-11 -4h-34l-17 8l-2 21l2 18c10 10 19.333 15 28 15h116v-57l29 38c30 18 61.667 27 95 27c10.667 0 35 -15.333 73 -46c2 -5.33301 4.83301 -9.83301 8.5 -13.5s7.5 -11.167 11.5 -22.5l6 -7z
M313.002 62c25.333 0.666992 48 11 68 31l5 12l3 3c2 9.33301 6.33301 24 13 44l-2 8c0 3.33301 1.33301 7 4 11l-4 7c0 3.33301 0.333008 7.33301 1 12c-3.33301 12.667 -7.33301 31 -12 55c-4.66699 8.66699 -11.667 18 -21 28l-1 5
c-7.33301 4.66699 -14.333 7.66699 -21 9l-7 4l-5 1h-26c-6.66699 0 -13.667 -4 -21 -12c-4 -1.33301 -7.33301 -3 -10 -5c-4 -8.66699 -19.333 -26.667 -46 -54l-4 -25h1v-14l-2 -3l4 -2v-31c4 -4.66699 10.667 -11.667 20 -21c2 -6.66699 3.66699 -13.667 5 -21h-1l7 -10
c6.66699 -4 11.667 -8.66699 15 -14z" />
    <glyph glyph-name="q" unicode="q" horiz-adv-x="506" 
d="M359 191c4.66699 -36 7.33301 -126.666 8 -271.999c-1.33301 0 7.66699 0 27 0c18.667 0 38 -9.66699 58 -29c-9.33301 -7.33301 -15.333 -15.333 -18 -24h-195v40l11 7l58 5l-1 126c-34.667 -27.333 -57.334 -41 -68.001 -41h-73c-18.667 18 -36 30.667 -52 38l-12 13
c-0.666992 5.33301 -6 15.333 -16 30l-4 22l-4 5v107l6 6l2 10l4 5l4 19c4.66699 4.66699 7.33398 10 8.00098 16l6 7c0.666992 2.66699 1.33398 6.66699 2.00098 12c4.66699 3.33301 8.66699 7 12 11c27.333 15.333 43 23.666 47 24.999c16 7.33301 33.667 11 53 11
c25.333 0 53.666 -15.667 84.999 -47l3 -8v38c5.33301 6 11.333 11.333 18 16h20c8 -5.33301 13.667 -11.333 17 -18v-125zM141.999 102.001c16 -23.333 32.001 -38.6689 48.001 -46.002h39l13 3l28 21c1.33301 4 3.66602 7.33301 6.99902 10
c0.666992 4.66699 3.33398 10.334 8.00098 17.001c2 4 4.66699 8.16699 8 12.5s8.33301 11.5 15 21.5v70c-22 16.667 -35 31 -39 43c-2.66699 2 -5.66699 3.66699 -9 5c-8 4.66699 -19.333 12.334 -34 23.001h-21c-7.33301 0 -16 -3.66699 -26 -11s-15.667 -14.333 -17 -21
c-4 -3.33301 -8.33301 -7.33301 -13 -12c-2 -4 -4.66699 -7.66699 -8 -11c-0.666992 -4 -2.66699 -9 -6 -15v-79c3.33301 -10 5.66602 -20.333 6.99902 -31v0z" />
    <glyph glyph-name="r" unicode="r" horiz-adv-x="504" 
d="M225 279c5.33301 8 16.001 18.665 32.001 31.998c13.333 18.667 30.666 28 51.999 28h44c7.33301 0 16.333 -2 27 -6l27 -7l21 -17l5 -13l5 -6c1.33301 -7.33301 2.66602 -16.333 3.99902 -27l5 -6v-17l-6 -6c-9.33301 -25.333 -26 -38 -50 -38l-13 1l-25 17l-4 25l-4 5
v14l4 5c1.33301 6 4 10.667 8 14l-7 1c-12.667 0 -33.667 -7.33301 -63 -22c-3.33301 -6 -9 -11.333 -17 -16c-3.33301 -6 -8.66602 -11.333 -15.999 -16c-1.33301 -3.33301 -3.16602 -6.83301 -5.49902 -10.5l-8 -12c-3 -4.33301 -6.16699 -8.16602 -9.5 -11.499v-130h42
c3.33301 0 8 0.666992 14 2s10.667 2 14 2l25 -19v-29c-4.66699 -2.66699 -8.66699 -7 -12 -13l-13 -9h-220c-0.666992 4.66699 -4 10.334 -10 17.001v24l10 16l7 6c18.667 1.33301 44 2 76 2v214h-59c-8.66699 2.66699 -17.334 9 -26.001 19l-2 18l2 19
c8.66699 6.66699 14.667 10 18 10h41c4 -2 8 -5 12 -9c6.66699 0 11.667 3 15 9h52c1.33301 -4.66699 5.33301 -10.667 12 -18v-25l-4 -4v-13z" />
    <glyph glyph-name="s" unicode="s" 
d="M404 163c6.66699 -4.66699 12.334 -13.0068 17.001 -25.0068l6 -6v-47c-10 -7.33301 -15.667 -18.666 -17 -33.999c-4.66699 -3.33301 -7.66699 -7.66602 -9 -12.999c-40.667 -27.333 -85.334 -41 -134.001 -41c-36 0 -76.667 11.667 -122 35
c-1.33301 -5.33301 -6.66602 -12.666 -15.999 -21.999l-16 -2l-20 2c-0.666992 4.66699 -4 10 -10 16v32l5 7l4 16l3 3v26c-3.33301 6.66699 -4.66602 28 -3.99902 64c27.333 -1.33301 48.333 -8.66602 63 -21.999v-34c10.667 -23.333 22.667 -36.333 36 -39l10 -8l-1 2
c17.333 -6.66699 31 -10 41 -10h53c8 0 19 1.83301 33 5.5s23.333 7.83398 28 12.501l10 6l2 4l-2 8l2 8l-2 8l2 8l-4 10c-15.333 16 -48 25 -98 27c-56 2 -91.667 7 -107 15l-32 25c-2 6 -5.33301 10.333 -10 13c-0.666992 7.33301 -3.33398 15.333 -8.00098 24v14l-6 5
l6 5v15l5 7c1.33301 4.66699 2.33301 10.334 3 17.001c9.33301 6 19.333 15.333 30 28l12 4c4 4 12.667 8 26 12s23.666 6 30.999 6h71c23.333 0 47 -7.66699 71 -23c2 6.66699 5.33301 12 10 16c5.33301 2 11.333 3 18 3s12.667 -1 18 -3l9 -9v-106
c-16.667 0.666992 -27.667 2 -33 4c-11.333 3.33301 -19 10.333 -23 21l-20 20l-20 5l-4 3c-32.667 4.66699 -49.334 7 -50.001 7c4.66699 0 -19 -2.33301 -71 -7c-4.66699 -3.33301 -9 -5.66602 -13 -6.99902l-1 -8l-3 -3v-27c4.66699 -6.66699 11.667 -10.667 21 -12l3 -4
c47.333 -0.666992 82.333 -2.66699 105 -6c36.667 -6 69.334 -17.667 98.001 -35c2 -6 5 -10.333 9 -13l3 -7z" />
    <glyph glyph-name="t" unicode="t" 
d="M361 119l-3.00098 0.00195312c3.33301 18 13.333 27 30 27c10 0 24 -6.33301 42 -19l2 -15l-2 -14c-12.667 -10.667 -21 -21.667 -25 -33c-8.66699 -7.33301 -17.667 -18 -27 -32c-5.33301 -2.66699 -11.333 -7 -18 -13c-8.66699 -17.333 -31.667 -26 -69 -26
c-34.667 0 -64.667 15.667 -90 47l-4 12l-4 5l-4 11l-5 6v147l4 4v52c-7.33301 -0.666992 -18 -2.33398 -32 -5.00098s-24.667 -4 -32 -4c-17.333 0 -29.666 5.66699 -36.999 17v40c9.33301 14 20.666 21 33.999 21c5.33301 0 13.333 -1.5 24 -4.5s18.667 -4.5 24 -4.5l19 1
v34c-3.33301 6.66699 -4.66602 36.667 -3.99902 90c9.33301 14.667 22.666 22 39.999 22c16.667 0 27 -6.66699 31 -20l4 -4l3 -10l-3 -12l-4 -3v-61l-6 -4v-29c15.333 -2.66699 38.666 -5 69.999 -7l20 8h8c12.667 0 32.667 -2 60 -6v-42c-7.33301 -14.667 -20 -22 -38 -22
c-11.333 0 -28.666 0.833008 -51.999 2.5s-40.666 2.5 -51.999 2.5c-6 0 -11.333 -0.666992 -16 -2v-107c3.33301 -4.66699 5 -8.33398 5 -11.001c0 -3.33301 -1.66699 -7 -5 -11v-54c2.66699 -4 5 -9 7 -15c8 -9.33301 15.667 -15.333 23 -18h11c4 0 15 2 33 6l3 4l15 6
l4 27z" />
    <glyph glyph-name="u" unicode="u" 
d="M378 278c5.33301 -21.333 8.33301 -94.332 9 -218.999h63v-48c-13.333 -9.33301 -38.666 -14 -75.999 -14c-11.333 0 -26 4.33301 -44 13v42c-10.667 -7.33301 -23 -18.333 -37 -33c-6.66699 -0.666992 -14.667 -4 -24 -10c-12 -8.66699 -28.667 -13 -50 -13
c-3.33301 0 -13.666 0.666992 -30.999 2c-16.667 7.33301 -26.334 12 -29.001 14c-10.667 6 -18 13.667 -22 23c-4 4 -7.33301 9 -10 15l3 -4c-6.66699 12.667 -9.66699 89.334 -9 230.001h-63v56c27.333 3.33301 61.333 5.33301 102 6l15 -17l2 -9
c4.66699 -3.33301 7 -9.33301 7 -18l-4 -6v-23c2.66699 -6 4 -13 4 -21l-5 -6v-6v-14l5 -7v-21l-4 -4c0 -30.667 -0.333008 -47.334 -1 -50.001l10 -9l-9 -9v-39l3 -4l2 -10l4 -4c18 -4 27.333 -6 28 -6c21.333 0 45.666 10.667 72.999 32
c3.33301 5.33301 8.33301 11.666 15 18.999l3 9l6 7l3 11l11 12v134c-4 0.666992 -15.333 0.666992 -34 0c-18.667 7.33301 -28 17.333 -28 30c0 4.66699 1.66699 13 5 25c4 0 10.167 0.666992 18.5 2s14.5 2 18.5 2c28 0 53 -4.33301 75 -13l3 -13l-3 -10l3 -10l-3 -10
l-2 -3v-7z" />
    <glyph glyph-name="v" unicode="v" 
d="M167 327v-1h1h1zM306 290l-21.9961 -1.99707c-19.333 8 -29 18 -29 30c0 0.666992 0.666992 5.66699 2 15c11.333 14 31 21 59 21l99 1c3.33301 -3.33301 6.66602 -5.33301 9.99902 -6l14 -13l2 -19l-2 -18c-12 -11.333 -36 -16.333 -72 -15l-2 -5l-5 -5
c0.666992 -2 1 -4.33301 1 -7c0 -5.33301 -1 -11.666 -3 -18.999l-5 -6c-1.33301 -4.66699 -3.66602 -10.334 -6.99902 -17.001c-0.666992 -7.33301 -3.33398 -17.333 -8.00098 -30l-4 -25l-5 -5v-32l-9 -6l-6 -8l-4 -25l-4 -4c-0.666992 -6.66699 -2 -16.334 -4 -29.001
l-6 -9l-2 -25c-4.66699 -2 -7.66699 -8 -9 -18c-22.667 -7.33301 -36.667 -11 -42 -11c-10.667 0 -20.334 2.33301 -29.001 7l-21 20l-3 20l1 -1l-6 10l-4 23c-2.66699 3.33301 -5 8.66602 -7 15.999l-5 6l-3 18l-5 6l-3 19l1 -1l-6 7
c-1.33301 4.66699 -2.66602 10.667 -3.99902 18l2 -1l-6 7c-2 6 -3.33301 14 -4 24c-8 10 -13.333 27 -16 51c-3.33301 4 -6 9.33301 -8 16l-4 4l-2 14c-30 0.666992 -48.333 4 -55 10c-0.666992 7.33301 -3.33398 17 -8.00098 29v6h-45l45 5v9
c7.33301 2 12.666 4.33301 15.999 7h19l15 -8c7.33301 2 14.333 4.66699 21 8c5.33301 0 13.333 0.666992 24 2s18.667 2 24 2v-4l5 2l-3 1c11.333 -0.666992 31 -6 59 -16l3 -14l-2 -12c-10.667 -12.667 -28 -20.334 -52 -23.001v-6l4 -5
c0.666992 -3.33301 3 -7.66602 7 -12.999c1.33301 -8.66699 2.66602 -16 3.99902 -22l-1 1l6 -7l3 -9h-1l6 -10c1.33301 -10 5.33301 -25.333 12 -46l-1 1c4 -7.33301 6.33301 -18 7 -32c5.33301 -6.66699 8.66602 -14.334 9.99902 -23.001c4 -7.33301 6.66699 -14 8 -20
l1 -2l1 2l3 4c0.666992 6.66699 2.33398 13.667 5.00098 21l3 3c1.33301 12 4 20 8 24c1.33301 14 4 23.333 8 28l4 26l12 19l2 1v36l8 5c1.33301 4 3.33301 7.66699 6 11z" />
    <glyph glyph-name="w" unicode="w" horiz-adv-x="504" 
d="M341 21v2v-1h-2zM340 84l0.998047 0.99707v46l8 4v40l8 4v66h14c-3.33301 4 -4.66602 10.333 -3.99902 19v6l4 4l1 6c-4.66699 0.666992 -17 4.33398 -37 11.001l-2 18l2 14c12.667 8.66699 21.667 13 27 13l68 1l10 -10v6h29v-29h-8v-13
c-12 -4 -23.333 -7.33301 -34 -10l-4 -7v-58l-8 -4v-37l-8 -4v-44l-9 -4v-40l-8 -4v-38l-7 -2c-1.33301 -6 -3 -12.667 -5 -20l-4 -4c-2 -4.66699 -5 -8.66699 -9 -12l-24 -6v4l-6 -1l2 -1l-20 3c-5.33301 5.33301 -8.66602 10.333 -9.99902 15l2 -1l-6 8l-4 20l2 -1l-6 7
c-2 5.33301 -3.33301 12 -4 20c-3.33301 6 -6 13.667 -8 23c-4 4 -6.66699 12 -8 24c-3.33301 4 -6 12 -8 24c-4 5.33301 -6.66699 16 -8 32l-2 4v-1l-3 -3c-0.666992 -8 -2.33398 -16.333 -5.00098 -25l-3 -3c-2 -6.66699 -4.66699 -12 -8 -16
c-0.666992 -7.33301 -3.33398 -16.666 -8.00098 -27.999c-0.666992 -7.33301 -3.33398 -16.666 -8.00098 -27.999c-0.666992 -6.66699 -2 -13 -4 -19l-6 -7v-3c0 -3.33301 -0.666992 -7.66602 -2 -12.999l-6 -8l-3 -13c-5.33301 -3.33301 -13.333 -7.66602 -24 -12.999h-9
c-10.667 0 -21 2.33301 -31 7c-9.33301 18 -13.666 39.333 -12.999 64l-13 10l5 4v29c-6 8 -8.66699 20 -8 36l-9 4v45l-6 6c-0.666992 12 -1.66699 21 -3 27l-5 7v24l2 4l-3 6c-6.66699 2 -17.667 4 -33 6l-14 14l-2 14l2 13c4 6.66699 9.33301 12 16 16
c8.66699 0 21.834 0.833008 39.501 2.5s30.834 2.5 39.501 2.5c11.333 0 21 -1.33301 29 -4l10 -9v-36c-8.66699 -5.33301 -18 -8.33301 -28 -9v-29c3.33301 -7.33301 5.33301 -22 6 -44c4.66699 -8 7.33398 -27 8.00098 -57l5 -5l2 -10l9 -5v-38l1 6l6 8v3
c0 3.33301 0.666992 7.66602 2 12.999l6 8v2c0 4 1 9.66699 3 17l4 5c1.33301 4.66699 2.33301 11.667 3 21l5 7c1.33301 4.66699 2.33301 10.334 3 17.001l5 7c1.33301 4.66699 2.33301 13 3 25c4.66699 3.33301 8 8.33301 10 15c7.33301 2 15 5.66699 23 11h12
c3.33301 -2.66699 9.66602 -6.33398 18.999 -11.001l12 -12c2 -6.66699 5 -12.667 9 -18l3 -18l5 -7c0.666992 -6.66699 1.66699 -12.334 3 -17.001l5 -7l4 -26l-2 1l6 -9l3 -16l-1 1l6 -9c1.33301 -5.33301 4 -11.333 8 -18z" />
    <glyph glyph-name="x" unicode="x" 
d="M279 165l3.00391 -4.00293c1.33301 -6 6.66602 -12.167 15.999 -18.5s15 -11.166 17 -14.499c0 -3.33301 2.33301 -6.33301 7 -9c1.33301 -5.33301 6.33301 -12 15 -20l3 -7c11.333 -6 17.666 -14.333 18.999 -25c4 -3.33301 9.33301 -7.33301 16 -12h61
c6 -4.66699 11.667 -10.334 17 -17.001v-6c0 -2 -1.66699 -6.66699 -5 -14c-4 -9.33301 -6 -14.666 -6 -15.999c-10 0 -24.667 -0.666992 -44 -2s-34 -2 -44 -2h-49c-11.333 0 -22.666 2.66699 -33.999 8v33l9 10c6 0.666992 13.667 1 23 1c-10 10 -16.333 18.667 -19 26
c-16.667 14.667 -27.334 28 -32.001 40l-8 7c-13.333 -14.667 -27.333 -32.334 -42 -53.001c-4.66699 -4.66699 -8 -9.66699 -10 -15l-5 -4h4c4 0 10 -1 18 -3l10 -9v-33c-17.333 -8.66699 -29.666 -13 -36.999 -13h-137v47l16 13h52l42 45c3.33301 6.66699 11 16 23 28
s19 21.333 21 28c4 3.33301 6.66699 7.33301 8 12l4 3c-6.66699 3.33301 -21.167 17.833 -43.5 43.5s-34.5 41.834 -36.5 48.501c-3.33301 2 -7 5.66699 -11 11h-49c-10.667 4 -19.334 10.667 -26.001 20v16c10 14 22 20.667 36 20l125 -1c14.667 -8.66699 22 -17 22 -25
c0 -6 -5.66699 -13.333 -17 -22l-23 -4c4 -6.66699 10 -14 18 -22c8 -10.667 20.333 -26 37 -46l17 23c11.333 2 19.666 6.66699 24.999 14h2l-2 7l3 13c5.33301 2.66699 11.666 5.33398 18.999 8.00098c-16.667 2 -30.667 6.66699 -42 14l-3 8v10c0 22 45.333 33 136 33
c12 0 27 -6 45 -18l4 -19l-4 -16l-15 -11h-58c-8 -5.33301 -18.333 -10.666 -31 -15.999c-4 -4 -9 -6.33301 -15 -7v-24l-8 2v-17l-8 -9l-2 -5c-6 -8 -15 -19 -27 -33z" />
    <glyph glyph-name="y" unicode="y" 
d="M262 74c2 6 5.99805 15.332 11.998 27.999l4 29l5 6c0.666992 4 2.66699 9 6 15c0 0.666992 2 8.33398 6 23.001c2.66699 2 5.66699 6.33301 9 13l4 2v37l9 4l2 12c-2 0.666992 -5.66699 0.666992 -11 0s-9 -1 -11 -1c-4 0 -13.667 6 -29 18l20 12c-2 4.66699 -3 9 -3 13
l5 12c6 0 15.167 0.666992 27.5 2s21.5 2 27.5 2h8c7.33301 -3.33301 13.666 -5 18.999 -5c6.66699 0 16.834 1.5 30.501 4.5s24.167 4.5 31.5 4.5l18 -9v-61h-74l-4 -5c-1.33301 -5.33301 -2.66602 -15 -3.99902 -29l-5 -5c-2 -4.66699 -4.66699 -8.66699 -8 -12v-38l-7 -2
l-5 -26c-2 -1.33301 -4.66699 -7.33301 -8 -18c-4 -4.66699 -8 -8.66699 -12 -12v-44c-7.33301 -1.33301 -11 -3.66602 -11 -6.99902l-5 -6c-1.33301 -5.33301 -2.33301 -11.333 -3 -18c-4.66699 -5.33301 -7.33398 -10.666 -8.00098 -15.999l-6 -10l-2 -25
c-4.66699 -2 -7.33398 -6.66699 -8.00098 -14l-5 -5c-1.33301 -4.66699 -2.33301 -12.334 -3 -23.001l-5 -4c-1.33301 -5.33301 -4 -11.333 -8 -18c-0.666992 -8 -2.33398 -16 -5.00098 -24l-4 -3c-4 -14.667 -12.667 -26.334 -26 -35.001c-10.667 -16 -33 -24 -67 -24
c-23.333 0 -41.666 3.66699 -54.999 11c-9.33301 5.33301 -23.666 17 -42.999 35l-4 12l-5 6v51l5 5l4 16c10 12 25.333 18 46 18h13l24 -17c1.33301 -4 2.33301 -8 3 -12l7 -6v-18l-7 -6c-0.666992 -3.33301 -1.66699 -7.66602 -3 -12.999l-19 -11l30 -9
c15.333 0 28.333 6 39 18c0.666992 6 3.66699 11.667 9 17l2 25c4 2 6.66699 6.33301 8 13l6 10l2 19l5 5c1.33301 4 2.33301 10.333 3 19l6 5l2 7l-8 9c0 5.33301 -5.33301 13 -16 23l-2 10l-6 7c0 3.33301 -2.33301 7.66602 -7 12.999
c-0.666992 4 -3.33398 9.33301 -8.00098 16c-0.666992 4 -3.66699 9.33301 -9 16c-0.666992 7.33301 -3.83398 16.666 -9.50098 27.999s-9.16699 20 -10.5 26c-3.33301 4 -6 9.66699 -8 17c-4 5.33301 -6.66699 12 -8 20l2 -1l-5 6c-2 4.66699 -3.66699 9.66699 -5 15
c-4 6.66699 -6.66699 12 -8 16c-3.33301 4 -6.66602 6 -9.99902 6c-5.33301 0 -13.833 -0.666992 -25.5 -2s-20.5 -2 -26.5 -2l-15 15v14v1v15c6.66699 9.33301 15.334 16.333 26.001 21h138l11 -7l6 -10l2 -14l-2 -18c-6 -4 -20.333 -8 -43 -12l3 -4l2 -9l6 -7l3 -19l-1 1
c2.66699 -4 7.33398 -10 14.001 -18c2.66699 -7.33301 6.33398 -18.666 11.001 -33.999l13 -9c0.666992 -12 1.66699 -21.333 3 -28c4 -4 7 -9.66699 9 -17l3 -3c2 -5.33301 3.66699 -11.333 5 -18z" />
    <glyph glyph-name="z" unicode="z" horiz-adv-x="498" 
d="M350 75l-2.00098 11.002c0 6 2.33301 11 7 15v43c10.667 8.66699 29 14.334 55 17.001v-134c-5.33301 -4 -8.66602 -8 -9.99902 -12c-10.667 -12.667 -19 -19 -25 -19l-186 1c-10 0 -25 0.666992 -45 2s-35 2 -45 2l-12 8l-8 13l7 -3c0 7.33301 3 11.333 9 12h-20v7
l36 36c18 19.333 27.667 32.666 29 39.999c13.333 8 40 34 80 78l78 87l-46 -1c-4.66699 0 -37.334 -1 -98.001 -3v-33l-6 -2v-5c3.33301 -4 5 -9.33301 5 -16l-2 -10c-10 -12.667 -30 -19.667 -60 -21v72v1l-8 8l14 9v46c22 8 37.333 12 46 12h241
c0.666992 -7.33301 1.66699 -13.333 3 -18l12 -11l-11 -10l-4 -17c-7.33301 -8.66699 -18.666 -21.334 -33.999 -38.001l-44 -36c-2.66699 -6 -8 -11.333 -16 -16c-3.33301 -7.33301 -12.166 -18 -26.499 -32s-22.833 -25 -25.5 -33c-12.667 -8 -22 -14.667 -28 -20
c-10.667 -10 -17 -19.333 -19 -28c-9.33301 -6 -18 -13 -26 -21c23.333 -1.33301 38.333 -2 45 -2c66.667 0 112 1.66699 136 5c1.33301 9.33301 2.66602 14.666 3.99902 15.999z" />
    <glyph glyph-name="sterling" unicode="&#xa3;" horiz-adv-x="498" 
d="M365 353l4 3c-2 0 -3.33301 0.333008 -4 1v-4zM477 138l0.00292969 -15.998l-6 -6v-53c-6.66699 -4 -12 -8 -16 -12l-4 -12l-20 -20c-6 -2 -15.833 -7.5 -29.5 -16.5s-25.167 -13.5 -34.5 -13.5h-70c-32 13.333 -60.667 30.666 -86 51.999v-2
c-22 -14 -38.333 -25 -49 -33h-19c-6 -2.66699 -24 -4 -54 -4c-8.66699 0 -19 1.66699 -31 5l-19.5 17.5c-7 6.33301 -11.5 13.166 -13.5 20.499l-4 7v11l6 6v43c2.66699 0.666992 6.33398 3.66699 11.001 9l12 13l20 8l6 6h23c2.66699 0 23.667 -3 63 -9l28 -15h2l1 30
l-3 5c-2.66699 6 -6 15.667 -10 29l-3 3c-12 0 -31.833 0.833008 -59.5 2.5s-48.834 2.5 -63.501 2.5c1.33301 7.33301 4.33301 17.666 9 30.999c16 13.333 41 18.333 75 15c-4.66699 4.66699 -7.33398 10.334 -8.00098 17.001c-3.33301 4 -5 7.66699 -5 11l1 6l-2 4h-55
c-6 4 -11.333 9.33301 -16 16v12c5.33301 8.66699 13.166 14.334 23.499 17.001l31.5 8v32l6 2c0.666992 6.66699 2.33398 13.667 5.00098 21l3 3c0.666992 4 7.33398 12.667 20.001 26l26 28c6 6.66699 17.667 12.167 35 16.5s28 9.5 32 15.5c44 1.33301 64.333 2 61 2
c16.667 0 33 -4.5 49 -13.5s31.333 -18.167 46 -27.5l5 -8l15 -9c1.33301 -5.33301 4.66602 -10 9.99902 -14v-52l-15 -15c-4 -0.666992 -7.33301 -2 -10 -4c-6.66699 -0.666992 -16 -2 -28 -4l3 2l-6 3v-5h-6c-3.33301 2.66699 -8.33301 4.66699 -15 6
c-1.33301 6.66699 -4.33301 12 -9 16v45c2 3.33301 5 7.33301 9 12c-16 9.33301 -29.667 14 -41 14h-74l-11 -6c-5.33301 -6.66699 -18 -12.334 -38 -17.001c-11.333 -21.333 -17.333 -35.666 -18 -42.999l-6 -10c1.33301 -6 2 -12.667 2 -20c50 0.666992 75.667 1 77 1
c44.667 0 71.667 -4.33301 81 -13v-20c-4.66699 -8.66699 -11 -14.334 -19 -17.001h-60l-4 4h-52l-4 4h-5l-6 -3l11 -10l2 -6l14 -9l4 -16c5.33301 -4 9.66602 -8 12.999 -12l3 4l9 5c8 0 19.833 0.666992 35.5 2s27.5 2 35.5 2h7l6 -6l16 -6l3 -16l-3 -13
c-12 -8.66699 -25.333 -13.667 -40 -15c14 1.33301 -1.66699 2 -47 2c1.33301 -6 2.33301 -13.333 3 -22l-2 1l7 -11v-51l5 -5l-6 -6c4.66699 -6 8.33398 -12.333 11.001 -19c10 -6.66699 26.333 -15.667 49 -27h41c13.333 0 28.666 7.33301 45.999 22
c1.33301 4.66699 4 9 8 13c2 8 7 15.667 15 23v37c-3.33301 4 -5 7.66699 -5 11c0 6 2.83301 11.5 8.5 16.5s11.5 7.5 17.5 7.5c9.33301 0 20.666 -4.66699 33.999 -14l4 -13l11 -11zM168.003 77.002l-8 6c-6.66699 1.33301 -12 4 -16 8
c-0.666992 -0.666992 -1.66699 -1 -3 -1c-4 0 -9 1.66699 -15 5h-29c-1.33301 0 -7 -2 -17 -6l-7 -8l3 -21c4.66699 -0.666992 9 -1 13 -1h47z" />
    <glyph glyph-name="section" unicode="&#xa7;" 
d="M312 540l-7.99707 0.00195312l-5 4c-14.667 2.66699 -28.667 4 -42 4c-17.333 0 -39.666 -11 -66.999 -33c-0.666992 -2.66699 -1.33398 -6 -2.00098 -10l-4 -4v-8c-0.666992 -6 3.33301 -12.333 12 -19c1.33301 -9.33301 10 -16 26 -20c6 -6 16.333 -13 31 -21
s24.667 -14.333 30 -19c10.667 -2.66699 19 -7 25 -13c4.66699 -1.33301 9 -3 13 -5c6 -6.66699 18.167 -13.5 36.5 -20.5s30.833 -13.833 37.5 -20.5l34 -34c12 -30.667 18 -53.334 18 -68.001c0 -2 -3 -15.667 -9 -41c-2.66699 -4 -7 -9.66699 -13 -17l-4 -14
c-9.33301 -6 -20 -14 -32 -24l1 -2v-84l-13 -13c-1.33301 -5.33301 -5 -11.666 -11 -18.999s-9.66699 -13 -11 -17c-18.667 -10 -42.667 -20.667 -72 -32h-71c-21.333 0 -36 5 -44 15c-8.66699 3.33301 -22 10.666 -40 21.999c-0.666992 5.33301 -3.66699 9.66602 -9 12.999
c0 4.66699 -2.66699 9 -8 13v62c2.66699 6.66699 11.167 14.167 25.5 22.5s25.166 12.5 32.499 12.5c10 0 24 -4.66699 42 -14c1.33301 -4.66699 2.33301 -9 3 -13l7 -6v-43c-6.66699 -4.66699 -13 -12.334 -19 -23.001c31.333 -2 43.333 -3 36 -3c8 0 18.333 1.33301 31 4
c17.333 4 27.333 6.33301 30 7c6.66699 4 11.834 7 15.501 9s5.83398 5.66699 6.50098 11c2 1.33301 6.66699 6.33301 14 15l-2 29c-1.33301 3.33301 -3.33301 7.66602 -6 12.999c-14 7.33301 -34 20 -60 38c-14 3.33301 -22.667 7.33301 -26 12
c-15.333 5.33301 -34 14.333 -56 27l-54 30c-10.667 8.66699 -26.334 24.667 -47.001 48l-5 6l-2 10l-6 6v46l4 5l4 27c9.33301 12 29.666 31.333 60.999 58v4l2 -1l-6 11v69l4 5c1.33301 6.66699 7.33301 14.334 18 23.001c5.33301 10.667 17.666 20.834 36.999 30.501
s35.666 14.5 48.999 14.5h45c19.333 0 39.333 -7.33301 60 -22c8 -5.33301 24.333 -19 49 -41c0.666992 -7.33301 3.66699 -15.333 9 -24v-45c-20 -15.333 -36.333 -23 -49 -23c-4.66699 0 -12 0.333008 -22 1c-8 6 -15.333 13.333 -22 22l-4 11l-5 6v38l5 6z
M359.003 210.002c9.33301 6.66699 17.335 13.668 24.002 21.001c2 8 3 16 3 24l-1 11c-0.666992 2 -1.66699 8 -3 18c-13.333 16 -30 29.667 -50 41c-2 2.66699 -17 10.667 -45 24l-51 23l-54 31l-1 -1c-12 -1.33301 -25 -9 -39 -23c-2 -4 -4 -7.66699 -6 -11v-37
c3.33301 -6 5.66602 -11 6.99902 -15c5.33301 -6.66699 11.666 -13.334 18.999 -20.001c10 -3.33301 23.667 -10 41 -20c8 -5.33301 20.667 -13.333 38 -24l81 -42h37z" />
    <glyph glyph-name="minus" unicode="&#xad;" 
d="M390 242c-4.66699 0 -11.501 0.666016 -20.501 1.99902s-15.833 2 -20.5 2c-2.66699 0 -6.5 -0.666992 -11.5 -2s-8.83301 -2 -11.5 -2l-4 4h-160c-6 0 -14.833 -0.666992 -26.5 -2s-20.5 -2 -26.5 -2l-14 13c-1.33301 4.66699 -4.33301 9 -9 13v58
c7.33301 12 19.666 18 36.999 18c8.66699 0 21.5 -0.833008 38.5 -2.5s29.5 -2.5 37.5 -2.5h172c4.66699 2.66699 10.334 4.33398 17.001 5.00098l3 -3c6.66699 -2.66699 12.334 -7 17.001 -13c4.66699 -8 9 -13 13 -15v-51c-10 -13.333 -20.333 -20 -31 -20z" />
    <glyph glyph-name="acute" unicode="&#xb4;" horiz-adv-x="181" 
d="M182 488c-6 -3.33301 -11.9941 -6.33105 -17.9941 -8.99805c-6.66699 -4.66699 -10.667 -9.66699 -12 -15c-2.66699 -0.666992 -5.5 -1.33398 -8.5 -2.00098s-4.16699 -2.33398 -3.5 -5.00098c-3.33301 -2 -7 -6 -11 -12c-2.66699 -1.33301 -16.667 -14.333 -42 -39
c-16.667 -15.333 -32.334 -23 -47.001 -23c-3.33301 0 -10.333 0.333008 -21 1c-8 6 -15.333 13.333 -22 22l-4 11h1l-7 11v12c5.33301 4 8.66602 10 9.99902 18c7.33301 9.33301 22.666 20 45.999 32l2 5c3.33301 3.33301 5.66602 9 6.99902 17
c9.33301 7.33301 14.666 17.666 15.999 30.999l15 15c8 0 20.167 1.33301 36.5 4s28.833 4 37.5 4c7.33301 0 19.666 -4.33301 36.999 -13v-49c-5.33301 -3.33301 -9.33301 -8.66602 -12 -15.999z" />
    <glyph glyph-name="periodcentered" unicode="&#xb7;" 
d="M345 309c-0.666992 -3.33301 -1.66699 -7.66699 -3 -13c-4 -2 -6.66699 -5.33301 -8 -10c-22.667 -23.333 -47.334 -35 -74.001 -35c-24.667 0 -51.667 12.667 -81 38l-4 12l-5 6v68c4.66699 4 10 11.333 16 22c4.66699 2 7.66699 6.33301 9 13l40 20h9
c22.667 0 40.334 -2.33301 53.001 -7c10 -4 25 -12.667 45 -26l4 -13l6 -6v-63z" />
    <glyph glyph-name="periodcentered" unicode="&#x2219;" 
d="M345 309c-0.666992 -3.33301 -1.66699 -7.66699 -3 -13c-4 -2 -6.66699 -5.33301 -8 -10c-22.667 -23.333 -47.334 -35 -74.001 -35c-24.667 0 -51.667 12.667 -81 38l-4 12l-5 6v68c4.66699 4 10 11.333 16 22c4.66699 2 7.66699 6.33301 9 13l40 20h9
c22.667 0 40.334 -2.33301 53.001 -7c10 -4 25 -12.667 45 -26l4 -13l6 -6v-63z" />
    <glyph glyph-name="onehalf" unicode="&#xbd;" 
d="M248 567l-8.00391 -10.002c-4.66699 -1.33301 -9.66699 -2 -15 -2l-9 -7l-4 -15c-14 -12 -30.667 -18 -50 -18c-7.33301 0 -13.5 2.83301 -18.5 8.5s-7.5 12.167 -7.5 19.5l2 12c5.33301 4 20.833 17 46.5 39s40.834 35.667 45.501 41c14 5.33301 26.333 10.333 37 15h12
c2.66699 -3.33301 5.66699 -5 9 -5c5.33301 -5.33301 11 -10.666 17 -15.999v-37c4.66699 -8 7.33398 -24.333 8.00098 -49l6 -6v-21l-6 -7c-1.33301 -5.33301 -2.33301 -11.666 -3 -18.999l9 -11v-41l-5 -5v-3c0.666992 -1.33301 2.33398 -3.33301 5.00098 -6v-18l-4 -4
c0.666992 -20 -1.66602 -33 -6.99902 -39s-17.333 -9 -36 -9l-8 2l-16 13v198zM344.996 34.998c2 2 3.99902 3 5.99902 3c6 0 9 -6.33301 9 -19l-2 -12c-3.33301 -6 -8.33301 -11 -15 -15c-18.667 -3.33301 -31.667 -5 -39 -5c-8 0 -19.833 0.666992 -35.5 2
s-27.5 2 -35.5 2c-6 0 -15.833 -0.666992 -29.5 -2s-23.834 -2 -30.501 -2c-7.33301 0 -16 2.66699 -26 8c-2.66699 6.66699 -4.66699 13.334 -6 20.001l-5 9c0 8 1.66699 14 5 18c0.666992 7.33301 3.66699 17 9 29c3.33301 16.667 16.666 35 39.999 55
c22 18 42.333 29.333 61 34c4 4 9.33301 6.66699 16 8c3.33301 4 9 6.66699 17 8l10 10v32c-6 3.33301 -12 7.66602 -18 12.999c-5.33301 2 -17.333 3 -36 3l-25 -10c-3.33301 -6 -8.33301 -10.667 -15 -14v-33h-46c-10.667 4.66699 -16.667 12 -18 22
c0.666992 6.66699 2.33398 12 5.00098 16c0.666992 9.33301 2 17 4 23c2 2.66699 14.333 15.667 37 39c16.667 6.66699 32 11 46 13h-39l-2 1c-22 -3.33301 -35.333 -5 -40 -5h-81c-11.333 0 -22.666 2.66699 -33.999 8v47c26 4 93 6 201 6c7.33301 0 18.5 0.666992 33.5 2
s26.167 2 33.5 2h63c53.333 0 86 -4.33301 98 -13c0.666992 -1.33301 4.33398 -6.66602 11.001 -15.999v-17c-8 -7.33301 -15 -11 -21 -11h-114l-2 1l-11 -5h-63c22 -2.66699 45.667 -10.334 71 -23.001c2 -4.66699 5.33301 -10 10 -16c1.33301 -10 7 -20.667 17 -32v-38
l-7 -11c0 -7.33301 -5 -15.333 -15 -24c-3.33301 -8.66699 -10.333 -14 -21 -16l1 1l-30 -22c-7.33301 -4 -19.333 -9.33301 -36 -16c-2.66699 -2.66699 -9.33398 -6 -20.001 -10c-3.33301 -5.33301 -8.33301 -10 -15 -14l-6 -10v-14c20.667 -2.66699 64.334 -3 131.001 -1z
" />
    <glyph glyph-name="Adieresis" unicode="&#xc4;" horiz-adv-x="498" 
d="M400 572l-6 -13.002c-15.333 -10.667 -26.666 -16 -33.999 -16h-20c-12 0 -24 7.66699 -36 23l-4 16l-12 11l-1 11c0 4.66699 1.33301 11 4 19c4 10.667 6.33301 17.334 7 20.001c10.667 -2.66699 17.334 -3.66699 20.001 -3h4c3.33301 3.33301 8.66602 6.33301 15.999 9
h22c7.33301 0 18.333 -4 33 -12c3.33301 -5.33301 7.66602 -10.666 12.999 -15.999v-43zM206 576.998l-3.99902 -18c-18.667 -10.667 -33 -16 -43 -16h-15l-21 10l-6 10l-19 10c-3.33301 4 -7.33301 8 -12 12v35c4 6 9 11.333 15 16c4.66699 0.666992 13.667 3 27 7
c11.333 4 19.666 6 24.999 6h24c2.66699 0 10.667 -4 24 -12c2 -4.66699 5.66699 -10 11 -16v-39zM391.001 87.998l8.99902 -3.99902v-38c30 0 41.333 0 34 0c11.333 -0.666992 20.666 -5.66699 27.999 -15v-17c-9.33301 -10 -18.333 -16.667 -27 -20h-119
c-8.66699 0 -17.667 4.66699 -27 14c-3.33301 9.33301 -6.33301 24.333 -9 45c-7.33301 0 10.667 -1.66699 54 -5v26c-2.66699 4.66699 -7 11.667 -13 21c-2 5.33301 -3.33301 11 -4 17c-24 2.66699 -35 4 -33 4c-45.333 0 -76.333 -2 -93 -6
c-1.33301 -6.66699 -3 -13 -5 -19l-4 -6c-4.66699 -22.667 -7 -32 -7 -28v-2c-4 0.666992 7.33301 1 34 1c10 0 17 -6.33301 21 -19c4.66699 -4.66699 7 -8.66699 7 -12c0 -4 -2.33301 -8.33301 -7 -13l-4 -10l-16 -8c-10 0 -25.167 -0.666992 -45.5 -2s-35.5 -2 -45.5 -2
c-37.333 0 -64.333 6.33301 -81 19v18c4.66699 4 7.66699 10.333 9 19c8 6.66699 18 10.667 30 12c17.333 1.33301 28 2.66602 32 3.99902v53c5.33301 3.33301 10 6.66602 14 9.99902v7v-2c0.666992 10 3.66699 14.667 9 14l-1 4l-7 -3l-1 -4
c0.666992 12.667 2.33398 24 5.00098 34l3 3c2 8 5.33301 15 10 21v57l14 9c0.666992 8 2 16.333 4 25l4 4c0 -1.33301 0.666992 -2.66602 2 -3.99902l-6 11v16l4 6c6.66699 27.333 12 43.333 16 48l5 27c4 2 6.66699 6.33301 8 13c4 1.33301 6.33301 4.66602 7 9.99902
l-8 7c10 6 15.333 13 16 21c4.66699 3.33301 7.66699 7.33301 9 12c17.333 15.333 34 23 50 23c6.66699 0 14.334 -1 23.001 -3c2.66699 -7.33301 6 -12.666 10 -15.999c0.666992 -1.33301 3.66699 -6.33301 9 -15c0.666992 -5.33301 1.66699 -11 3 -17l5 -7l4 -25l7 -4v-48
l8 -5v-30l5 -9l4 -22l3 -3c2 -6.66699 3.66699 -13.667 5 -21l-2 1l6 -9l3 -19l8 -4v-40c4.66699 -8 7.33398 -21.667 8.00098 -41c9.33301 -15.333 14.666 -35 15.999 -59zM238 316.999l-2.99902 -20.998l-6 -10c0.666992 -2 1 -4.33301 1 -7c0 -6 -1.33301 -13.333 -4 -22
l-4 -3v-38l-8 -2l-4 -20l-2 -3v-14c36 0 63.667 -2.66699 83 -8l9 6v23c-3.33301 6 -5.33301 18 -6 36l-5 4c-2.66699 7.33301 -3.33398 13.666 -2.00098 18.999l-1 1v31c-6 8 -8.66699 20.333 -8 37c-6 9.33301 -9.33301 18 -10 26c-2 2.66699 -6.33301 15.667 -13 39
c-0.666992 -6.66699 -2 -13.334 -4 -20.001l8 -7l-13 -9v-38h-8z" />
    <glyph glyph-name="Aring" unicode="&#xc5;" 
d="M356 585l5.99805 -8.99805v-8c0 -4 -4.33301 -13.333 -13 -28c-2 -11.333 -7.16699 -20.833 -15.5 -28.5l-25.5 -22.5c-12 -4 -23 -6 -33 -6h-31c-12.667 0 -33.334 9.33301 -62.001 28l-4 9c-4 3.33301 -7.33301 10.666 -10 21.999
c-5.33301 6 -14.666 15.333 -27.999 28l-1 13c0 8 1.66699 14.333 5 19c0.666992 7.33301 2.66699 14.666 6 21.999c20.667 14.667 43.334 32 68.001 52c20.667 6.66699 34.334 10 41.001 10c10.667 0 26 -5.33301 46 -16s31.667 -20.667 35 -30h-1l6 -7l3 -9l8 -5v-34z
M303.998 577.002l-3 5c-1.33301 5.33301 -4.66602 12.666 -9.99902 21.999l-25 13h-23l-9 -5c-0.666992 -1.33301 -2.66699 -4.33301 -6 -9c-2 -8.66699 -4.33301 -14 -7 -16v-22c4 -5.33301 11.667 -13.666 23 -24.999l17 -1c12 0 21.667 3.66699 29 11
c1.33301 4.66699 3.66602 8.66699 6.99902 12c2 6.66699 4.33301 11.667 7 15zM305.998 574.002l1 -1l-1 2v-1zM379.998 116.002c4 -8.66699 6.66895 -16.6641 8.00195 -23.9971l8 -4v-32c17.333 -0.666992 29.333 -1.66699 36 -3
c13.333 -2.66699 24.666 -7.33398 33.999 -14.001c-0.666992 -4 -3.66699 -16.333 -9 -37c-6.66699 -7.33301 -13 -11 -19 -11h-153v50c12 4.66699 27.333 8 46 10v36c-3.33301 3.33301 -6 9 -8 17c-6.66699 3.33301 -11.334 5 -14.001 5h-114
c-2 -4.66699 -4.66699 -8.33398 -8 -11.001v-42h-1c19.333 -2 34.666 -8 45.999 -18l2 -13l-2 -16c-3.33301 -2.66699 -7.33301 -8.66699 -12 -18h-170l-19 20c8.66699 12.667 20.334 26.667 35.001 42h50l6 6v37l6 4c1.33301 6 3 13 5 21l5 3v38l6 2l4 23l6 5v34l8 4v36
l9 4l-1 5c0 3.33301 0.666992 8.66602 2 15.999l4 5l5 25l5 4v36l6 1l4 22l6 10l2 23l5 5c1.33301 4.66699 2.33301 11.667 3 21c12.667 19.333 29 29 49 29c3.33301 0 10.333 -0.333008 21 -1c5.33301 -4 10.333 -9 15 -15c0.666992 -4 1.66699 -7.66699 3 -11l-8 5
c6 -5.33301 11 -13 15 -23l6 -8l3 -21l8 -4v-35c4.66699 -8 7.33398 -25.667 8.00098 -53c3.33301 -4 8.66602 -8.66699 15.999 -14v-30c4 -6.66699 6.33301 -19.667 7 -39c5.33301 -6.66699 8.66602 -16 9.99902 -28c4 -4 6 -10 6 -18l-5 -7
c8.66699 -13.333 13.334 -31.333 14.001 -54zM207 169.005c18.667 -2.66699 50.333 -4 95 -4h12l-5 7l-4 23l2 -1l-6 10l-4 23l-4 6c-7.33301 32.667 -10.666 60 -9.99902 82c-6 10 -9.33301 19 -10 27c-8.66699 13.333 -13.334 34 -14.001 62v-42l-7 -2
c-1.33301 -10.667 -3 -20.667 -5 -30l-4 -3v-34l-7 -2l-5 -24l-4 -4v-38l-7 -2l-4 -20l-6 -9c0 -6.66699 -0.666992 -14 -2 -22z" />
    <glyph glyph-name="Odieresis" unicode="&#xd6;" 
d="M393 545c-4 -0.666992 -7.33301 -2.33301 -10 -5h-20c-6 2 -12 3.33301 -18 4c-8 4.66699 -16.333 9 -25 13c-9.33301 6.66699 -15.333 13.667 -18 21l-5 6v41c14 19.333 33.333 29 58 29c8.66699 -4 14.334 -6.66699 17.001 -8c5.33301 -3.33301 9.33301 -8 12 -14
c9.33301 -8.66699 19.666 -16.667 30.999 -24v-35zM174 563.001l2 1h-2v0v-1zM210 582.001l2.99902 -5v-12c-3.33301 -4.66699 -8 -11.667 -14 -21l-21 -3l2 1l-6 1v-3c-5.33301 0.666992 -15 2.66699 -29 6l-4 18h-6c-14 0 -30 10.667 -48 32v21
c6.66699 10 20.334 19 41.001 27l8 6h24c20 0 34.667 -8.33301 44 -25l4 -23l5 -7c-0.666992 -4.66699 -1.66699 -9 -3 -13zM432.999 314.001l7.99902 -5.00195v-68c3.33301 -7.33301 5.33301 -21.666 6 -42.999l-6 -10l-1 -39l-7 -4v-37l-9 -3c-2 -7.33301 -5 -13 -9 -17
l-2 -6c-4 -3.33301 -7 -7.66602 -9 -12.999c-3.33301 -2.66699 -6 -6.66699 -8 -12c-3.33301 -2.66699 -5.33301 -6.33398 -6 -11.001c-40.667 -39.333 -80.334 -59 -119.001 -59c-17.333 0 -35 3 -53 9l-52 17l-71 70l-3 15c-1.33301 6 -5.66602 14 -12.999 24
c-0.666992 8 -1.66699 14.667 -3 20h1l-6 9l-3 16l1 -1l-6 11v11l-6 6l4 3v113l7 4c1.33301 4.66699 2.33301 10.334 3 17.001c4 2 6.66699 8.66699 8 20c4.66699 2 7.33398 6.33301 8.00098 13l6 10c2 10 12.667 24.333 32 43c2.66699 10.667 13.667 23.334 33 38.001
c3.33301 1.33301 6.66602 3.33301 9.99902 6h7l4 9l47 15h55c11.333 0 29.333 -7.66699 54 -23c22.667 -14.667 38.334 -27.334 47.001 -38.001l15 -18c1.33301 -4.66699 4.33301 -9 9 -13c0.666992 -5.33301 1.66699 -10.333 3 -15l5 -5c0 -3.33301 2.66699 -8 8 -14
c0.666992 -9.33301 1.66699 -16.333 3 -21h-1l-1 -1c0 -0.666992 2.33301 -3.66699 7 -9c0.666992 -5.33301 1.66699 -10 3 -14zM245.998 56.999c-3.33301 0 12.6631 0.999023 47.9961 2.99902c26 13.333 40.667 28 44 44c4 3.33301 6.66699 7.33301 8 12
c4 4 6.66699 8 8 12l12 11c0.666992 6.66699 2.33398 14 5.00098 22l5 3v45l6 4v54c-4.66699 7.33301 -6.66699 22.333 -6 45c-5.33301 7.33301 -8.66602 13.666 -9.99902 18.999s-5.33301 12.333 -12 21c-1.33301 4.66699 -4.33301 8.66699 -9 12l-2 12l-6 5l-2 11
c-5.33301 5.33301 -14 9.33301 -26 12c-6 10 -26.667 16.333 -62 19l-10 -8h-9l-5 2l6 5c-10.667 -6 -22.667 -14 -36 -24l-27 -15l-3 -11l-4 -4c-1.33301 -4 -2.33301 -10.333 -3 -19l-4 -4h5v-8c-4.66699 -5.33301 -11 -13.333 -19 -24l3 -7v-7l-2 -10
c-4 -5.33301 -7.66699 -9.66602 -11 -12.999v-45c3.33301 -6.66699 5 -13 5 -19c0 -10 -1.33301 -16 -4 -18c2.66699 -3.33301 4.33398 -7 5.00098 -11l5 -4c0.666992 -6 2 -12.333 4 -19l5 -5c0.666992 -5.33301 1.66699 -10.333 3 -15l4 -5c1.33301 -4 4 -7.33301 8 -10
c1.33301 -5.33301 4 -9.66602 8 -12.999c1.33301 -5.33301 4 -9 8 -11l3 -12c20.667 -15.333 39.334 -26 56.001 -32h8z" />
    <glyph glyph-name="adieresis" unicode="&#xe4;" 
d="M384 395h-35.001c-8.66699 2.66699 -17 8.66699 -25 18c-1.33301 4 -4.33301 7.66699 -9 11v39c4.66699 3.33301 7.66699 7 9 11l13 13l20 6h14c4 0 11.667 -2.33301 23 -7c4.66699 -6.66699 9.66699 -12.334 15 -17.001v-46
c-5.33301 -7.33301 -13.666 -16.666 -24.999 -27.999zM189.999 413c-5.33301 -6 -13.665 -12 -24.998 -18h-37c-6.66699 6.66699 -14.334 12 -23.001 16v50l6 7c0.666992 2 1.66699 6.66699 3 14c19.333 4.66699 32 7 38 7c1.33301 0 13.666 -2 36.999 -6
c1.33301 -11.333 3 -21 5 -29l-2 1l7 -11v-12c-4.66699 -6 -7.66699 -12.333 -9 -19zM375 76l2.99609 -10.0039l12 -11c9.33301 -2.66699 33.666 -3.66699 72.999 -3c-2.66699 -23.333 -7.5 -38.166 -14.5 -44.499s-21.5 -9.5 -43.5 -9.5c-14 0 -32.333 5.66699 -55 17
c-1.33301 2 -7.66602 6.66699 -18.999 14c-0.666992 6.66699 -2.66699 13.334 -6 20.001c-8.66699 -6.66699 -18 -15 -28 -25c-13.333 -2 -33 -7.66699 -59 -17c-18.667 -8 -42.667 -12 -72 -12c-32 0 -60 14.333 -84 43l-4 11l-5 6v73c15.333 26.667 38 45.334 68 56.001
c18.667 6.66699 48.334 12.167 89.001 16.5s70.334 9.83301 89.001 16.5v37c-10 13.333 -27 20 -51 20c-7.33301 3.33301 -19.666 5 -36.999 5c-21.333 0 -36.666 -1.66699 -45.999 -5v-38l-19 -14h-46l-14 14l-2 5l-7 9v24l5 7c1.33301 4.66699 2.33301 10.334 3 17.001
c41.333 25.333 85.333 38 132 38c47.333 0 79.333 -7.66699 96 -23c18 -4 30.333 -14.667 37 -32l6 -8zM198.996 48.9961c9.33301 0 26.668 4.66699 52.001 14l68 48v50l-97 -12c-46.667 -7.33301 -75.334 -16.333 -86.001 -27c-1.33301 -2.66699 -3.33301 -6 -6 -10v-39
l5 -9c3.33301 -2 7 -4.66699 11 -8c39.333 -4.66699 57 -7 53 -7z" />
    <glyph glyph-name="aring" unicode="&#xe5;" 
d="M187 553l-6 6c15.333 10 29 18 41 24h42c11.333 -5.33301 22 -11.333 32 -18c2 -4.66699 7.66699 -11.667 17 -21l2 -5l23 -24l4 -24l-2 1l7 -11v-12l-6 -8c-6.66699 -17.333 -17 -33.333 -31 -48c-16.667 -16.667 -33 -25 -49 -25h-36c-10 0 -22 5.33301 -36 16
s-23 20.667 -27 30l-4 5c-2 8 -3.66699 17.333 -5 28c-3.33301 4.66699 -5 10.667 -5 18c0 8 2 14.333 6 19c1.33301 6.66699 4 12 8 16c2.66699 12 11 23 25 33zM291 474l-0.999023 8.99902l-4 6l-3 21c-5.33301 4 -12 9.33301 -20 16c-6.66699 2.66699 -11.667 4 -15 4
c-22 0 -38.667 -7 -50 -21v-23c2.66699 -7.33301 5 -16.333 7 -27c2 -1.33301 5 -2.66602 9 -3.99902c3.33301 -6 9.66602 -10 18.999 -12l27 -6c6 4.66699 12.333 8 19 10l3 4l4 17zM145.001 155.999l1 -1c-4 -8 -11.667 -16 -23 -24l-4 -19l-3 -3v-11v-11
c16 -19.333 33.667 -29 53 -29h36c9.33301 0 21.833 2.83301 37.5 8.5s26.834 11.834 33.501 18.501l23 5c1.33301 2 2.66602 6.33301 3.99902 13c4.66699 2 7 4.66699 7 8l6 6v4c0 4.66699 0.666992 10.667 2 18l1 1c-3.33301 10.667 -1 19 7 25l-2 6
c-16 -4.66699 -40.667 -10.334 -74 -17.001v4c-9.33301 -5.33301 -16.333 -8 -21 -8h-70c-6 1.33301 -10.667 3.33301 -14 6zM431.001 30.999c6.66699 -0.666992 9.6709 -4.66309 9.00391 -11.9961l8 4l-8 -14l-13 -8h-41c-17.333 0 -37 11 -59 33l-4 12h1l-6 9l-1 1
c-10 -12.667 -25.667 -22.667 -47 -30c-29.333 -10.667 -47 -17.667 -53 -21l-33 -1c-19.333 -0.666992 -39.333 2.66602 -60 9.99902c-26 9.33301 -40.667 21.666 -44 36.999l2 -1l-6 9c-1.33301 4.66699 -4 9 -8 13v65c3.33301 2 7.66602 7.33301 12.999 16
c4.66699 6 11.667 10.333 21 13l10 10l7 4c7.33301 -0.666992 14.333 -4.33398 21 -11.001v10c1.33301 4.66699 4.66602 9 9.99902 13c8 2.66699 17.667 4 29 4l8 -3l2 -1c12 0.666992 28.667 3.66699 50 9l4 -3l5 -1c5.33301 -4.66699 8.33301 -8.33398 9 -11.001
c6 11.333 18 19.333 36 24c16 4.66699 24.333 8.33398 25 11.001l5 7l-1 5l-4 6l-3 24c-6 3.33301 -12.333 7.66602 -19 12.999c-25.333 8 -48 12 -68 12c-3.33301 0 -23.666 -1.33301 -60.999 -4c6 -2.66699 12.333 -6 19 -10v-23
c-2.66699 -1.33301 -6.33398 -8 -11.001 -20h-39c-5.33301 0 -14.333 2.33301 -27 7l-2 8c-2.66699 2.66699 -5 5.66699 -7 9v16l5 7c1.33301 6.66699 2.33301 16.334 3 29.001c35.333 20 63.666 30 84.999 30h52c20.667 0 43.667 -5 69 -15
c30 -10.667 47 -24.334 51 -41.001l6 -5v-112l-8 -2c1.33301 -2.66699 4 -7 8 -13v-67l-4 -4l16 -17c4 0 10.667 -0.5 20 -1.5s16.666 -1.5 21.999 -1.5c8.66699 -3.33301 17.667 -10 27 -20v-7h-21z" />
    <glyph glyph-name="odieresis" unicode="&#xf6;" 
d="M399 404c-12 -8.66699 -23 -13.001 -33 -13.001h-16c-9.33301 0 -20.666 4.66699 -33.999 14l-2 12l-6 6v38l5 6l3 15c11.333 12.667 21.333 19 30 19c10 0 25 -5.33301 45 -16c2 -4.66699 5.33301 -10 10 -16c0.666992 -6 3.66699 -13.333 9 -22v-27
c-2.66699 -3.33301 -6.33398 -8.66602 -11.001 -15.999zM107 404.999c-4.66699 6 -9.99902 11.666 -15.999 16.999v45c3.33301 2.66699 6.66602 7.33398 9.99902 14.001c6.66699 4 17 9.33301 31 16h23c19.333 0 34.666 -10 45.999 -30v-43
c-6 -8.66699 -15 -18.334 -27 -29.001c-17.333 -5.33301 -28.333 -8 -33 -8c-3.33301 0 -9.16602 2.33301 -17.499 7s-13.833 8.33398 -16.5 11.001zM412.001 148.998l-1.00098 -51.999l-8 -3l-2 -18c-14.667 -18.667 -33.334 -36 -56.001 -52
c-26.667 -18.667 -49.667 -28 -69 -28h-52c-10.667 0 -33.667 10 -69 30c0 1.33301 -15.667 16 -47 44c-0.666992 4 -3.66699 9 -9 15c-1.33301 7.33301 -2.66602 16.333 -3.99902 27l-4 5c-1.33301 7.33301 -2.66602 16.333 -3.99902 27l-4 6v25l6 6v41l9 4
c2.66699 8 5.66699 20 9 36c4.66699 3.33301 7.66699 7.33301 9 12c4.66699 3.33301 7 6.66602 7 9.99902c31.333 37.333 70 56 116 56h39c12 0 25.333 -7 40 -21l20 1l15 -15l1 -5l38 -30c1.33301 -4.66699 4.33301 -8.66699 9 -12l2 -12l9 -5v-32
c3.33301 -7.33301 5.33301 -26 6 -56l-4 -4v-3zM364 173.999l6 4l-1 4c-0.666992 -0.666992 -3 -1.66699 -7 -3zM301 280.999l-10.999 -2c-4 0 -8.66699 1.33301 -14 4l-29 -1c-8 0 -21.333 -3.33301 -40 -10c-6 -5.33301 -14.333 -9.33301 -25 -12l-12 -11
c-2.66699 -5.33301 -7.33398 -12.666 -14.001 -21.999c-0.666992 -7.33301 -2.66699 -16.666 -6 -27.999l-2 -2v-63c4 -6 6.33301 -13.333 7 -22l-2 1l6 -9l3 -11c10.667 -8 21.834 -15.833 33.501 -23.5s23.167 -11.5 34.5 -11.5h46c20 0 40.667 11 62 33
c1.33301 5.33301 4 9.66602 8 12.999c1.33301 5.33301 3 9.66602 5 12.999l4 4v42l6 2v1v-2l3 10c-6 8.66699 -9 21 -9 37l-4 4c-2.66699 4.66699 -4.33398 9 -5.00098 13c-3.33301 3.33301 -6 7.33301 -8 12c-4.66699 4.66699 -9.66699 12.334 -15 23.001
c-6 5.33301 -13.333 10.666 -22 15.999v2z" />
    <glyph glyph-name="udieresis" unicode="&#xfc;" horiz-adv-x="498" 
d="M396 430c-6 -8.66699 -14 -16.665 -24 -23.998c-2 0 -5.33301 -0.666992 -10 -2s-8.33398 -2 -11.001 -2h-12c-2.66699 0 -6.66699 0.666992 -12 2s-9.33301 2 -12 2c-1.33301 4 -5 9.33301 -11 16l-4 22l-5 7v19c4.66699 3.33301 7.66699 7 9 11
c8 9.33301 16.333 15.666 25 18.999h32c2.66699 0 11.334 -4.33301 26.001 -13c1.33301 -4.66699 4.33301 -9.33398 9 -14.001l2 -22zM187 458.002l0.00292969 -16c-4.66699 -4 -8.33398 -9.66699 -11.001 -17c-2.66699 -1.33301 -5.33398 -5 -8.00098 -11
c-4.66699 -3.33301 -12.334 -7.33301 -23.001 -12h-25c-2 0 -11 5.66699 -27 17c0 4 -2.66699 9 -8 15v33c4 2 7 9 9 21l34 12h17l31 -16c2 -6 7.66699 -12.667 17 -20zM369.003 140.002l3.00098 -3v-46l-4 -4v-27c22 0 36.333 -0.666992 43 -2c18 -4 27 -14 27 -30
c0 -12 -6.66699 -20.333 -20 -25h-88l-5 12l-8 2v45c-12.667 -10.667 -27.667 -25.334 -45 -44.001c-25.333 -13.333 -48 -20 -68 -20c-42.667 0 -69.667 12.667 -81 38c-4.66699 3.33301 -7.66699 10.333 -9 21l2 -5c-6 16.667 -8.66699 93.667 -8 231h-45
c-7.33301 2.66699 -13.333 7 -18 13l-2 13l2 14c10.667 10.667 22.667 16 36 16h57c4 -3.33301 7.33301 -5.33301 10 -6c5.33301 -5.33301 10.333 -10.666 15 -15.999v-100l-7 -11l7 -4v-87l-4 -4v-26l10 -11l3 -11c4.66699 -2.66699 10 -5 16 -7h7
c19.333 0 34.333 2.33301 45 7c6 2.66699 18.333 11 37 25l4 8c6 5.33301 9.33301 8.66602 10 9.99902s3 6.5 7 15.5s10.333 19.833 19 32.5v45l2 1v54l1 2c-2.66699 12 -4.33398 21.667 -5.00098 29h-44c-6.66699 3.33301 -12 8.33301 -16 15l-1 10
c0 10.667 5.66699 20.334 17 29.001h24l5 -3l-2 -1l9 4h25l5 -5l16 1c6.66699 -2.66699 13 -7 19 -13v-179z" />
    <glyph glyph-name="quoteright" unicode="&#x2019;" horiz-adv-x="85" 
d="M69 278l0.00195312 -0.998047c0 -1.33301 1.66699 -4.33301 5 -9v-29c-11.333 -12.667 -21.333 -19 -30 -19h-14c-10.667 4 -19.334 10.667 -26.001 20v25l4 4v25c-4.66699 7.33301 -6.66699 32.666 -6 75.999c-6 8 -9 24.333 -9 49c-4 7.33301 -6 30.666 -6 69.999
c5.33301 4 8.66602 8.33301 9.99902 13c4 3.33301 7.33301 9.33301 10 18h57c14.667 -8 24 -22.333 28 -43l-1 1l7 -11v-18l-6 -6v-33l-8 -4v-49l-8 -4v-74z" />
    <glyph glyph-name="quotesinglbase" unicode="&#x201a;" 
d="M334 2l-7.00195 -33.999l-4 -5l-5 -27c-3.33301 -2 -5.66602 -8.33301 -6.99902 -19c-4.66699 -3.33301 -7.66699 -7.33301 -9 -12c-4 -3.33301 -6.66699 -7.33301 -8 -12c-4 -3.33301 -6.66699 -7.33301 -8 -12c-8 -6.66699 -13.667 -10 -17 -10h-25
c-10.667 4.66699 -19.334 11.667 -26.001 21v43c6.66699 4 11.334 7.33301 14.001 10c6 4 9.33301 8.33301 10 13c3.33301 5.33301 7.66602 10.666 12.999 15.999c0.666992 6 2.33398 12 5.00098 18l3 3l1 9h-6h-28c-2 4 -10.333 8.66699 -25 14
c-4.66699 8.66699 -11 16.667 -19 24v68l15 16c16.667 16 38.667 24 66 24c4.66699 0 11.334 -1.66699 20.001 -5l7 -6l11 -3c10 -8 20.333 -18 31 -30v-29l-4 -4l4 -4v-66z" />
    <glyph glyph-name="quotedblright" unicode="&#x201d;" 
d="M392 602l2 -2v-12c-2 -2.66699 -3.66699 -4.66699 -5 -6l11 -13l-12 -8v-71c-6 -6 -12.333 -11 -19 -15h-16c-6 0 -12.667 3.33301 -20 10l-4 28c-2.66699 4.66699 -4.66699 9.33398 -6 14.001l3 10l3 3v17c-4.66699 7.33301 -6.66699 27 -6 59l-9 4v58l-6 5v56
c6 7.33301 17.333 17.666 34 30.999h26l30 -16c2.66699 -4 6.66699 -9.66699 12 -17v-74l-6 -5l-4 -16l-4 -5v-34zM196 527v-2.99805c3.33301 -4.66699 5 -11 5 -19s-2.83301 -15.667 -8.5 -23s-12.5 -11 -20.5 -11h-14c-8.66699 0 -17.667 6.66699 -27 20v25l4 4v25
c-4.66699 7.33301 -6.66699 32.333 -6 75c-6 8 -8.66699 24.333 -8 49c-4.66699 7.33301 -6.66699 30.666 -6 69.999c4.66699 4 7.66699 9 9 15c4 1.33301 7 6.66602 9 15.999h57c13.333 -6.66699 23 -20.667 29 -42l6 -6v-17l-6 -10l-1 -35l-7 -4v-48l-9 -4v-77h-6z" />
    <glyph glyph-name=".null" unicode="&#xe000;" horiz-adv-x="0" 
 />
    <glyph glyph-name="uniE001" unicode="&#xe001;" horiz-adv-x="500" 
 />
    <glyph glyph-name="colon" unicode="&#xe002;" 
d="M274 228h-32.001c-15.333 0 -29.666 7.33301 -42.999 22c-1.33301 4.66699 -4.33301 9 -9 13v56c4.66699 4 7.66699 8 9 12c14.667 18.667 32.334 28 53.001 28c22.667 0 40.667 -8 54 -24c1.33301 -4 4.66602 -8 9.99902 -12v-61c-7.33301 -14 -21.333 -25.333 -42 -34z
M218.999 -54l-9 5.99805c6 11.333 8.66699 20 8 26l1 2c-0.666992 8.66699 -2 19.667 -4 33l-15 8l-5 14l-5 6v60c4.66699 4 7.66699 8 9 12c12.667 16 32 24 58 24c24 0 43.667 -11.333 59 -34v-69l-6 -3l-1 -1c-4.66699 -5.33301 -9 -10 -13 -14l-12 -28
c-4 -9.33301 -10.333 -17.666 -19 -24.999c-0.666992 -2.66699 -3 -7.16699 -7 -13.5s-7.33301 -10.166 -10 -11.499c0 -8.66699 -4 -13 -12 -13c-2.66699 0 -4.66699 0.666992 -6 2l-30 -1c4 6.66699 8 14 12 22z" />
    <glyph glyph-name="uniE003" unicode="&#xe003;" horiz-adv-x="500" 
 />
    <glyph glyph-name="uniE004" unicode="&#xe004;" horiz-adv-x="500" 
 />
    <glyph glyph-name="u.nul" unicode="&#xe005;" horiz-adv-x="0" 
 />
    <glyph glyph-name="nonmarkingreturn" unicode="&#xe006;" horiz-adv-x="500" 
 />
    <glyph glyph-name=".null" unicode="&#xe007;" horiz-adv-x="0" 
 />
  </font>
</defs>
</svg>
